<svg width="64" height="80" viewBox="0 0 64 80" fill="none" xmlns="http://www.w3.org/2000/svg">
<g clip-path="url(#clip0_99_15)">
<path d="M14.3401 26.55L18.4401 18.34C17.8101 18.11 17.2201 17.81 16.6601 17.45L12.5601 25.66C13.1901 25.89 13.7801 26.19 14.3401 26.55Z" fill="white"/>
<path d="M45.6102 11.56L31.9902 9.5C31.9502 10.18 31.8502 10.84 31.6802 11.48L45.1202 13.51C45.2102 12.84 45.3802 12.18 45.6102 11.56Z" fill="white"/>
<path d="M56 35.05V24.95C55.67 24.98 55.34 25 55 25C54.66 25 54.33 24.98 54 24.95V35.05C54.33 35.02 54.66 35 55 35C55.34 35 55.67 35.02 56 35.05Z" fill="white"/>
<path d="M46.02 49.39C45.72 48.8 45.49 48.18 45.32 47.52L36.98 50.61C37.28 51.2 37.51 51.82 37.68 52.48L46.02 49.39Z" fill="white"/>
<path d="M15.1201 42.9L20.4201 48.48C20.8601 47.97 21.3501 47.51 21.8801 47.1L16.5801 41.52C16.1401 42.03 15.6501 42.49 15.1201 42.9Z" fill="white"/>
<path d="M18.6602 32.44C18.8402 33.08 18.9402 33.74 18.9802 34.42L22.3502 33.88C22.1902 33.24 22.0802 32.57 22.0402 31.9L18.6602 32.44Z" fill="white"/>
<path d="M29.1499 20.02L27.6399 17.25C27.0899 17.63 26.4999 17.96 25.8799 18.21L27.3999 20.99C27.9499 20.62 28.5399 20.29 29.1499 20.02Z" fill="white"/>
<path d="M44.5001 36.8C44.1801 37.38 43.8101 37.94 43.3901 38.46L46.1701 40.31C46.4801 39.72 46.8501 39.16 47.2701 38.65L44.5001 36.8Z" fill="white"/>
<path d="M30.1299 42.36L29.4399 45.11C30.1099 45.2 30.7599 45.36 31.3799 45.59L32.0699 42.84C31.4099 42.74 30.7599 42.58 30.1299 42.36Z" fill="white"/>
<path d="M46.2299 19.81L42.6499 22.7C43.1199 23.18 43.5399 23.7 43.9199 24.26L47.3699 21.47C46.9399 20.96 46.5599 20.4 46.2299 19.81Z" fill="white"/>
<path d="M24 31C24 36.51 28.49 41 34 41C39.51 41 44 36.51 44 31C44 25.49 39.51 21 34 21C28.49 21 24 25.49 24 31ZM34 25.44C35.53 25.44 36.78 26.68 36.78 28.22C36.78 29.76 35.54 31 34 31C32.46 31 31.22 29.76 31.22 28.22C31.22 26.68 32.46 25.44 34 25.44ZM29.56 34.33C29.56 33.11 30.56 32.11 31.78 32.11H36.22C37.44 32.11 38.44 33.11 38.44 34.33V37.64C37.17 38.49 35.64 38.99 34 38.99C32.36 38.99 30.83 38.49 29.56 37.64V34.33Z" fill="white"/>
<path d="M9 43C13.41 43 17 39.41 17 35C17 30.59 13.41 27 9 27C4.59 27 1 30.59 1 35C1 39.41 4.59 43 9 43ZM9 30C10.38 30 11.5 31.12 11.5 32.5C11.5 33.88 10.38 35 9 35C7.62 35 6.5 33.88 6.5 32.5C6.5 31.12 7.62 30 9 30ZM5 38C5 36.9 5.9 36 7 36H11C12.1 36 13 36.9 13 38V39.46C11.94 40.41 10.54 41 9 41C7.46 41 6.06 40.41 5 39.46V38Z" fill="white"/>
<path d="M22 1C17.59 1 14 4.59 14 9C14 13.41 17.59 17 22 17C26.41 17 30 13.41 30 9C30 4.59 26.41 1 22 1ZM22 4C23.38 4 24.5 5.12 24.5 6.5C24.5 7.88 23.38 9 22 9C20.62 9 19.5 7.88 19.5 6.5C19.5 5.12 20.62 4 22 4ZM26 13.46C24.94 14.41 23.54 15 22 15C20.46 15 19.06 14.41 18 13.46V12C18 10.9 18.9 10 20 10H24C25.1 10 26 10.9 26 12V13.46Z" fill="white"/>
<path d="M55 7C50.59 7 47 10.59 47 15C47 19.41 50.59 23 55 23C59.41 23 63 19.41 63 15C63 10.59 59.41 7 55 7ZM55 10C56.38 10 57.5 11.12 57.5 12.5C57.5 13.88 56.38 15 55 15C53.62 15 52.5 13.88 52.5 12.5C52.5 11.12 53.62 10 55 10ZM59 19.46C57.94 20.41 56.54 21 55 21C53.46 21 52.06 20.41 51 19.46V18C51 16.9 51.9 16 53 16H57C58.1 16 59 16.9 59 18V19.46Z" fill="white"/>
<path d="M36 55C36 50.59 32.41 47 28 47C23.59 47 20 50.59 20 55C20 59.41 23.59 63 28 63C32.41 63 36 59.41 36 55ZM28 50C29.38 50 30.5 51.12 30.5 52.5C30.5 53.88 29.38 55 28 55C26.62 55 25.5 53.88 25.5 52.5C25.5 51.12 26.62 50 28 50ZM32 59.46C30.94 60.41 29.54 61 28 61C26.46 61 25.06 60.41 24 59.46V58C24 56.9 24.9 56 26 56H30C31.1 56 32 56.9 32 58V59.46Z" fill="white"/>
<path d="M55 37C50.59 37 47 40.59 47 45C47 49.41 50.59 53 55 53C59.41 53 63 49.41 63 45C63 40.59 59.41 37 55 37ZM55 40C56.38 40 57.5 41.12 57.5 42.5C57.5 43.88 56.38 45 55 45C53.62 45 52.5 43.88 52.5 42.5C52.5 41.12 53.62 40 55 40ZM59 49.46C57.94 50.41 56.54 51 55 51C53.46 51 52.06 50.41 51 49.46V48C51 46.9 51.9 46 53 46H57C58.1 46 59 46.9 59 48V49.46Z" fill="white"/>
</g>
<defs>
<clipPath id="clip0_99_15">
<rect width="64" height="80" fill="white"/>
</clipPath>
</defs>
</svg>
