<svg width="100" height="125" viewBox="0 0 100 125" fill="none" xmlns="http://www.w3.org/2000/svg">
<g clip-path="url(#clip0_99_10)">
<path d="M98.5351 73.784L92.4281 67.676L80.0521 80.054L76.5161 76.519L88.8931 64.141L85.3561 60.606L76.5161 69.444L72.9811 65.909L81.8211 57.07L78.2861 53.535L65.9101 65.908L62.3751 62.373L74.7501 49.999L71.2151 46.464L62.3761 55.303L58.8401 51.768L67.6801 42.929L64.1441 39.393L55.3031 48.233L51.7681 44.698L60.6101 35.859L57.0731 32.322L44.6981 44.697L41.1621 41.162L53.5371 28.787L50.0011 25.25L41.1621 34.092L37.6271 30.557L46.4661 21.715L42.9291 18.179L34.0891 27.017L30.5541 23.482L39.3931 14.644L35.8571 11.108L23.4841 23.481L19.9491 19.946L32.3231 7.572L26.2161 1.465C24.2611 -0.487997 21.0961 -0.487997 19.1431 1.465L1.46806 19.146C-0.534938 21.144 -0.440938 24.31 1.46506 26.216L73.7871 98.535C75.7401 100.488 78.9041 100.488 80.8571 98.535L98.5371 80.859C100.49 78.907 100.486 75.734 98.5351 73.784ZM76.5161 87.124C75.5391 88.101 73.9571 88.101 72.9811 87.124C72.0051 86.147 72.0041 84.564 72.9811 83.588C73.9581 82.612 75.5401 82.612 76.5161 83.589C77.4921 84.566 77.4921 86.147 76.5161 87.124ZM97.6781 22.678C99.6311 20.725 99.6311 17.558 97.6781 15.608L83.5371 1.465C81.5451 -0.526997 78.3811 -0.448997 76.4671 1.465L54.9241 23.518L76.1361 44.729L97.6781 22.678ZM79.9971 5C80.0021 5 80.0021 5 80.0021 5L94.1431 19.144L83.5371 29.751L69.3931 15.607L79.9971 5ZM7.97206 71.581L0.857062 100L29.0951 92.878L45.1271 76.469L23.9171 55.259L7.97206 71.581ZM13.7081 91.633L9.22306 87.148L10.6331 81.512L19.3631 90.22L13.7081 91.633Z" fill="white"/>
</g>
<defs>
<clipPath id="clip0_99_10">
<rect width="100" height="125" fill="white"/>
</clipPath>
</defs>
</svg>
