<svg width="110" height="135" viewBox="0 0 110 135" fill="none" xmlns="http://www.w3.org/2000/svg">
<path d="M55.0002 71.391C59.6252 71.391 63.84 69.6254 66.9962 66.7269L67.004 66.7191C67.1915 66.5433 67.379 66.3675 67.5587 66.1839C70.7735 62.9691 72.7618 58.5316 72.7618 53.6249C72.7618 48.7182 70.7735 44.2811 67.5587 41.0659C64.3439 37.8507 59.9025 35.8628 54.9997 35.8628C50.0935 35.8628 45.6559 37.8511 42.4407 41.0659C39.2255 44.2807 37.2376 48.7182 37.2376 53.6249C37.2376 58.5316 39.2259 62.9687 42.4407 66.1839C42.6243 66.3675 42.8079 66.5433 42.9954 66.7191L43.0032 66.7269C46.1634 69.6214 50.3753 71.391 55.0002 71.391ZM19.9652 77.1527C18.1214 77.1527 16.4535 77.8988 15.2464 79.1097C14.0394 80.3167 13.2933 81.9847 13.2933 83.8285C13.2933 85.6723 14.0394 87.3402 15.2464 88.5433C16.4534 89.7503 18.1253 90.5003 19.9652 90.5003C21.809 90.5003 23.4769 89.7542 24.684 88.5433C25.891 87.3363 26.641 85.6683 26.641 83.8285C26.641 81.9847 25.8949 80.3168 24.684 79.1097C23.477 77.9027 21.8051 77.1527 19.9652 77.1527ZM12.0004 75.8597C14.0395 73.8206 16.8559 72.5589 19.9652 72.5589C23.0745 72.5589 25.8949 73.8206 27.934 75.8597C29.3481 77.2738 30.391 79.0706 30.8949 81.0745L35.3871 80.1292C36.5043 79.8948 37.4496 79.3011 38.1137 78.4808C38.7739 77.6722 39.1567 76.6214 39.1567 75.473V69.4027C35.1333 65.3597 32.645 59.7894 32.645 53.6327C32.645 47.4608 35.1489 41.8707 39.1919 37.8237C43.2349 33.7807 48.8247 31.2768 55.0009 31.2768C61.1728 31.2768 66.7629 33.7807 70.8099 37.8237C74.8529 41.8667 77.3568 47.4565 77.3568 53.6327C77.3568 59.785 74.8685 65.3597 70.8451 69.4027V75.473C70.8451 76.6214 71.2279 77.6722 71.8881 78.4808C72.5522 79.3011 73.4975 79.8949 74.6147 80.1292L79.1069 81.0745C79.6108 79.0706 80.6538 77.2776 82.0678 75.8597C84.1069 73.8206 86.9233 72.5589 90.0366 72.5589C93.146 72.5589 95.9663 73.8206 98.0014 75.8597C100.04 77.8988 101.302 80.7152 101.302 83.8285C101.302 86.9379 100.04 89.7582 98.0014 91.7933C95.9623 93.8324 93.1459 95.0941 90.0366 95.0941C86.9273 95.0941 84.1069 93.8324 82.0678 91.7933C80.4506 90.1761 79.3217 88.0706 78.9272 85.7191L73.685 84.6175C71.5053 84.1565 69.6498 82.9886 68.3373 81.3753C67.0209 79.7542 66.2553 77.6956 66.2553 75.4769V72.9574C63.5756 74.5199 60.5405 75.5433 57.3022 75.8754V86.7074C59.4936 87.1644 61.4467 88.2504 62.9702 89.7738C65.0093 91.8129 66.271 94.6293 66.271 97.7386C66.271 100.848 65.0093 103.668 62.9702 105.707C60.9311 107.746 58.1147 109.008 55.0054 109.008C51.8961 109.008 49.0757 107.746 47.0366 105.707C44.9975 103.668 43.7358 100.852 43.7358 97.7386C43.7358 94.6292 44.9975 91.8089 47.0366 89.7738C48.56 88.2504 50.5171 87.1605 52.7085 86.7074V75.8754C49.4702 75.5473 46.4351 74.5238 43.7554 72.9574V75.4769C43.7554 77.6957 42.9859 79.7542 41.6734 81.3753C40.3609 82.9925 38.5054 84.1605 36.3257 84.6175L31.0835 85.7191C30.6851 88.0707 29.5562 90.1761 27.9429 91.7933C25.9038 93.8324 23.0874 95.0941 19.9741 95.0941C16.8647 95.0941 14.0444 93.8324 12.0093 91.7933C9.9702 89.7542 8.7085 86.9378 8.7085 83.8285C8.7085 80.7192 9.9702 77.8988 12.0093 75.8597H12.0004ZM55.0004 91.0587C53.1566 91.0587 51.4887 91.8048 50.2816 93.0118C49.0745 94.2188 48.3285 95.8907 48.3285 97.7306C48.3285 99.5744 49.0746 101.242 50.2816 102.449C51.4886 103.656 53.1605 104.402 55.0004 104.402C56.8442 104.402 58.5121 103.656 59.7192 102.449C60.9263 101.242 61.6723 99.5705 61.6723 97.7306C61.6723 95.8868 60.9262 94.2189 59.7192 93.0118C58.5122 91.8047 56.8403 91.0587 55.0004 91.0587ZM90.0354 77.1527C88.1916 77.1527 86.5237 77.8988 85.3166 79.1097C84.1096 80.3167 83.3596 81.9847 83.3596 83.8285C83.3596 85.6723 84.1057 87.3402 85.3166 88.5433C86.5236 89.7503 88.1955 90.5003 90.0354 90.5003C91.8792 90.5003 93.5471 89.7542 94.7502 88.5433C95.9611 87.3363 96.7072 85.6683 96.7072 83.8285C96.7072 81.9847 95.9611 80.3168 94.7502 79.1097C93.5432 77.9027 91.8752 77.1527 90.0354 77.1527ZM27.4884 65.1137C27.9728 66.2856 27.4181 67.6254 26.2501 68.1098C25.0782 68.5942 23.7384 68.0395 23.254 66.8715C22.9102 66.0434 22.5899 65.1957 22.3087 64.3246C22.2071 64.0082 22.1056 63.684 22.0079 63.3597L14.5274 62.8637C13.3126 62.7855 12.3751 61.7778 12.379 60.5746H12.3712V46.6796C12.3712 45.414 13.3946 44.3866 14.6603 44.3827L22.0041 43.8983C22.3478 42.7186 22.7541 41.578 23.215 40.4647C23.6837 39.3397 24.2072 38.242 24.7892 37.1756L19.8439 31.5311C19.047 30.6209 19.1017 29.2499 19.9494 28.4061L19.9416 28.3983L29.7697 18.5702C30.6681 17.6717 32.1213 17.6717 33.0197 18.5702L33.0392 18.5936L38.547 23.4217C39.6134 22.8397 40.715 22.3123 41.84 21.8475C42.9455 21.3905 44.0861 20.9881 45.2736 20.6366L45.7697 13.1522C45.8439 11.9374 46.8556 10.9999 48.0588 11.0038V10.996H61.9538C63.2194 10.996 64.2468 12.0194 64.2507 13.2851L64.7351 20.6367C65.9147 20.9805 67.0554 21.3867 68.1687 21.8476C69.2937 22.3164 70.3914 22.8398 71.4578 23.4218L77.1062 18.4726C78.0163 17.6757 79.3874 17.7304 80.2312 18.5781L80.239 18.5703L90.0671 28.3984C90.9655 29.2968 90.9655 30.7461 90.0671 31.6484L90.0436 31.6679L85.2194 37.1718C85.8015 38.2382 86.3288 39.3398 86.7936 40.4648C87.2546 41.5703 87.653 42.7148 88.0045 43.8984L95.485 44.3945C96.6998 44.4687 97.6373 45.4804 97.6334 46.6836H97.6412V60.5786C97.6412 61.8442 96.6178 62.8716 95.3521 62.8755L88.0083 63.3599C87.9107 63.688 87.813 64.0122 87.7076 64.3247C87.4263 65.1919 87.106 66.0395 86.7623 66.8677C86.2779 68.0396 84.9342 68.5904 83.7662 68.106C82.5943 67.6216 82.0435 66.2779 82.5279 65.1099C82.8325 64.3833 83.1021 63.649 83.3482 62.9068C83.5864 62.1763 83.7935 61.4615 83.9654 60.7584C84.1529 59.7506 85.0044 58.9576 86.0787 58.8912L93.0514 58.4303V48.8248L86.0787 48.3638V48.356C85.1021 48.2974 84.2348 47.606 83.9967 46.6021C83.6412 45.1177 83.1568 43.6529 82.563 42.2193C81.9654 40.7779 81.2622 39.3951 80.4614 38.0904C79.9536 37.2545 80.02 36.1607 80.6958 35.3912L85.3052 30.1256L78.5083 23.3287L73.3247 27.8717C72.5943 28.5748 71.4536 28.7311 70.5435 28.1764C69.2388 27.3795 67.8599 26.6725 66.4146 26.0748C65.0279 25.5006 63.6021 25.0318 62.1412 24.6725C61.1295 24.485 60.3365 23.6334 60.274 22.5592L59.8131 15.5865H50.2076L49.7466 22.5592H49.7388C49.6802 23.5358 48.9888 24.403 47.9849 24.6412C46.5044 24.9967 45.0357 25.481 43.606 26.0748C42.1646 26.6725 40.7818 27.3756 39.4771 28.1764C38.6451 28.6842 37.5474 28.6178 36.7779 27.942L31.5123 23.3287L24.7154 30.1256L29.2584 35.3092C29.9616 36.0397 30.1178 37.1842 29.5631 38.0944C28.7662 39.3991 28.0592 40.778 27.4615 42.2233C26.8873 43.61 26.4146 45.0358 26.0592 46.4967C25.8717 47.5045 25.0201 48.3014 23.9459 48.3639L16.9732 48.8249V58.4304L23.9459 58.8913V58.8952C24.9225 58.9538 25.7857 59.6413 26.0279 60.6413C26.2037 61.3796 26.4224 62.1335 26.6724 62.9108C26.9146 63.653 27.1881 64.3913 27.4928 65.1139L27.4884 65.1137Z" fill="white"/>
</svg>
