<svg width="110" height="135" viewBox="0 0 110 135" fill="none" xmlns="http://www.w3.org/2000/svg">
<path fill-rule="evenodd" clip-rule="evenodd" d="M31 40H35V24H31V40ZM31 50V51.293C31 56.1602 28.25 60.6133 23.8945 62.789C20.8945 64.289 19 67.3554 19 70.707V78C19 79.1055 19.8945 80 21 80H45C46.1055 80 47 79.1055 47 78V70.707C47 67.3554 45.1055 64.289 42.1055 62.789C37.75 60.6132 35 56.1601 35 51.293V50H31ZM43 84H39V94C39 95.1055 39.8945 96 41 96C42.1055 96 43 95.1055 43 94V84ZM23 84H27V94C27 95.1055 26.1055 96 25 96C23.8945 96 23 95.1055 23 94V84ZM65 24C63.8945 24 63 24.8945 63 26V28H91V26C91 24.8945 90.1055 24 89 24H65ZM91 32H63V39.293C63 42.6446 64.8945 45.711 67.8945 47.211C72.25 49.3868 75 53.8399 75 58.707V60H79V58.707C79 53.8398 81.75 49.3867 86.1055 47.211C89.1055 45.711 91 42.6446 91 39.293V32ZM79 70H75V96H79V70ZM29 44C28.4492 44 28 44.4492 28 45C28 45.5508 28.4492 46 29 46H37C37.5508 46 38 45.5508 38 45C38 44.4492 37.5508 44 37 44H29ZM73 64C72.4492 64 72 64.4492 72 65C72 65.5508 72.4492 66 73 66H81C81.5508 66 82 65.5508 82 65C82 64.4492 81.5508 64 81 64H73Z" fill="white"/>
</svg>
