<?xml version="1.0" encoding="UTF-8"?>
<svg id="Layer_1" data-name="Layer 1" xmlns="http://www.w3.org/2000/svg" viewBox="0 0 100 100">
  <defs>
    <style>
      .cls-1 {
        fill: #c9f21d;
        stroke-width: 0px;
      }
    </style>
  </defs>
  <path class="cls-1" d="M74.61,48.33c-.9-.65-1.56-1.6-1.84-2.71l-10.41,11.21c-1.21-.74-2.62-1.19-4.13-1.19s-2.87.44-4.06,1.15l-8.49-9.34c-.74.76-1.53,1.48-2.36,2.15l8.48,9.33c-.97,1.32-1.56,2.94-1.56,4.7,0,4.41,3.58,7.99,7.99,7.99s7.99-3.58,7.99-7.99c0-1.73-.57-3.32-1.51-4.63l9.9-10.66Z"/>
  <path class="cls-1" d="M86.45,16.93c-2.08-1.86-4.68-2.84-7.43-2.84-.44,0-.88.03-1.32.08-5.03.57-9.14,4.62-9.78,9.63-.56,4.37,1.39,8.55,5.08,10.9,1.66,1.06,2.67,2.89,2.79,4.96h1.62v-11.63c-.95-.55-1.6-1.57-1.6-2.75,0-1.77,1.43-3.2,3.2-3.2s3.2,1.43,3.2,3.2c0,1.18-.65,2.2-1.6,2.75v11.63h1.62c.1-2.05,1.13-3.89,2.82-4.97,3.22-2.07,5.15-5.59,5.15-9.41,0-3.18-1.36-6.22-3.74-8.35Z"/>
  <path class="cls-1" d="M75.81,44.45c0,.88.72,1.6,1.6,1.6h3.2c.88,0,1.6-.72,1.6-1.6v-1.6h-6.39v1.6Z"/>
  <rect class="cls-1" x="77.4" y="1.3" width="3.2" height="6.39"/>
  <rect class="cls-1" x="62.22" y="6.7" width="3.2" height="6.78" transform="translate(11.56 48.08) rotate(-45)"/>
  <rect class="cls-1" x="90.79" y="8.49" width="6.78" height="3.2" transform="translate(20.45 69.55) rotate(-45)"/>
  <path class="cls-1" d="M33.34,32.21c-1.1,2.13-3.11,3.68-5.47,4.17v9.59c4.29-.39,8.14-2.33,10.99-5.25-.6-3.57-2.65-6.6-5.51-8.5Z"/>
  <circle class="cls-1" cx="26.27" cy="22.08" r="4.79"/>
  <path class="cls-1" d="M20.78,27.85c-1.53-1.46-2.5-3.5-2.5-5.77,0-4.41,3.58-7.99,7.99-7.99s7.99,3.58,7.99,7.99c0,2.27-.97,4.32-2.5,5.77,4.43,1.62,7.96,5.15,9.55,9.66,1.6-2.64,2.53-5.73,2.53-9.04,0-9.69-7.89-17.58-17.58-17.58s-17.58,7.89-17.58,17.58c0,3.31.94,6.4,2.53,9.04,1.59-4.51,5.12-8.04,9.55-9.66Z"/>
  <path class="cls-1" d="M30.49,30.79c-1.33-.46-2.75-.73-4.22-.73s-2.9.26-4.22.73c.81,1.54,2.42,2.57,4.22,2.57s3.41-1.03,4.22-2.57Z"/>
  <path class="cls-1" d="M19.2,32.21c-2.86,1.9-4.91,4.93-5.51,8.5,2.85,2.92,6.69,4.86,10.99,5.25v-9.59c-2.36-.49-4.37-2.04-5.47-4.17Z"/>
  <rect class="cls-1" x="88.59" y="55.63" width="6.39" height="41.55"/>
  <rect class="cls-1" x="40.65" y="74.81" width="6.39" height="22.37"/>
  <rect class="cls-1" x="56.63" y="78" width="6.39" height="19.17"/>
  <path class="cls-1" d="M29.47,65.22h-6.39c-.88,0-1.6.72-1.6,1.6v25.57c0,2.64,2.15,4.79,4.79,4.79s4.79-2.15,4.79-4.79v-25.57c0-.88-.72-1.6-1.6-1.6Z"/>
  <rect class="cls-1" x="72.61" y="62.02" width="6.39" height="35.15"/>
  <path class="cls-1" d="M23.07,55.43v5c0,.88.72,1.6,1.6,1.6h3.2c.88,0,1.6-.72,1.6-1.6v-5c-1.05.12-2.11.2-3.2.2s-2.15-.08-3.2-.2Z"/>
  <path class="cls-1" d="M50.24,28.47c0-13.22-10.75-23.97-23.97-23.97S2.3,15.25,2.3,28.47s10.75,23.97,23.97,23.97,23.97-10.75,23.97-23.97ZM5.5,28.47c0-11.45,9.32-20.77,20.77-20.77s20.77,9.32,20.77,20.77-9.32,20.77-20.77,20.77S5.5,39.92,5.5,28.47Z"/>
</svg>