<?xml version="1.0" encoding="UTF-8"?>
<svg id="Layer_1" data-name="Layer 1" xmlns="http://www.w3.org/2000/svg" viewBox="0 0 100 100">
  <defs>
    <style>
      .cls-1 {
        fill: #fff;
      }

      .cls-1, .cls-2, .cls-3 {
        fill-rule: evenodd;
        stroke-width: 0px;
      }

      .cls-2 {
        fill: #c9f21d;
      }

      .cls-3 {
        fill: #000;
      }
    </style>
  </defs>
  <path class="cls-3" d="M43.18,87.82c0-.27-.11-.52-.29-.71s-.44-.29-.71-.29h-8.48c-.55,0-1,.45-1,1s.45,1,1,1h8.48c.27,0,.52-.11.71-.29s.29-.44.29-.71h0Z"/>
  <path class="cls-2" d="M13.85,6.23c.17-2.35,2.12-4.17,4.48-4.18h39.21c2.48,0,4.49,2.02,4.5,4.5v12.59c10.12.41,19.31,6.05,24.25,14.89,4.95,8.84,4.95,19.62,0,28.46-4.95,8.84-14.13,14.48-24.25,14.89v12.59c0,2.48-2.02,4.49-4.5,4.5H18.34c-2.36,0-4.31-1.83-4.48-4.18-6.32-.65-11.12-5.97-11.13-12.33,0-6.35,4.8-11.68,11.12-12.34v-9.43c-3.04-2.51-6.03-5.01-7.64-7.6-2.02-3.27-1.34-6.6,1.3-8.14.71-.41,1.5-.65,2.31-.71,1.44-.09,2.87.33,4.03,1.19v-10c-6.32-.66-11.12-5.99-11.12-12.34,0-6.36,4.81-11.68,11.13-12.33v-.02Z"/>
  <path class="cls-1" d="M59.65,19.13V6.54c0-1.15-.94-2.09-2.09-2.09h-6.11v2.02c0,2.27-1.63,4.37-3.88,4.37h-19.25c-2.25,0-3.88-2.1-3.88-4.37v-2.02h-6.1c-1.04,0-1.91.76-2.07,1.78,6.3.68,11.09,6,11.08,12.34,0,6.34-4.8,11.66-11.1,12.32v10c1.16-.86,2.59-1.28,4.04-1.18,1.65.11,3.15.99,4.04,2.39,1.02,1.64,1.13,3.94-.44,6.47-1.67,2.69-4.98,5.43-7.64,7.6v9.44h0c6.35.61,11.2,5.95,11.2,12.33,0,1.1-.14,2.2-.43,3.25h32.63v-3.81c-10.12-.41-19.31-6.05-24.25-14.89-4.95-8.84-4.95-19.62,0-28.46,4.95-8.84,14.13-14.48,24.25-14.89h.01Z"/>
  <path class="cls-1" d="M16.11,44.53h0c-.2.39-.61.64-1.05.64-.45,0-.86-.24-1.06-.63-2.93-4.71-8.68-1.98-5.75,2.75,1.37,2.2,4.03,4.48,6.8,6.77,2.31-1.91,5.34-4.4,6.8-6.77,1.22-1.95,1.09-3.88-.46-4.8h0c-.39-.23-.83-.36-1.28-.4-1.32-.1-2.85.6-4,2.43h.02Z"/>
  <path class="cls-1" d="M22.11,11.5c-1.88-1.88-4.42-2.93-7.07-2.92-2.67-.04-5.25,1-7.15,2.88-1.91,1.88-2.98,4.44-2.98,7.11s1.07,5.24,2.98,7.11c1.9,1.88,4.48,2.91,7.15,2.88,4.04,0,7.69-2.43,9.24-6.16,1.55-3.73.7-8.03-2.16-10.89h0Z"/>
  <path class="cls-1" d="M8.89,15.18c0-.66.54-1.2,1.2-1.2s1.2.54,1.2,1.2v2.05c0,.66-.54,1.2-1.2,1.2s-1.2-.54-1.2-1.2v-2.05Z"/>
  <path class="cls-1" d="M18.79,15.18c0-.66.54-1.2,1.2-1.2s1.2.54,1.2,1.2v2.05c0,.66-.54,1.2-1.2,1.2s-1.2-.54-1.2-1.2v-2.05Z"/>
  <path class="cls-1" d="M9.11,22.63c-.32-.54-.17-1.23.34-1.59s1.21-.27,1.62.21c1.98,2.8,6.23,2.6,7.93.04.16-.3.43-.51.76-.6.32-.08.67-.02.95.16.28.18.47.48.52.81.05.34-.03.67-.24.94-2.66,4.03-8.96,4.18-11.88.04h0Z"/>
  <path class="cls-1" d="M22.11,70.87c-3.1-3.09-7.85-3.8-11.72-1.76-3.87,2.05-5.95,6.38-5.13,10.68.82,4.3,4.34,7.57,8.69,8.05,4.35.49,8.51-1.91,10.26-5.93v-.02c1.63-3.76.8-8.14-2.1-11.04h0Z"/>
  <path class="cls-2" d="M8.89,74.54c0-.66.54-1.2,1.2-1.2s1.2.54,1.2,1.2v2.06c0,.66-.54,1.2-1.2,1.2s-1.2-.54-1.2-1.2v-2.06Z"/>
  <path class="cls-2" d="M18.79,74.54c0-.66.54-1.2,1.2-1.2s1.2.54,1.2,1.2v2.06c0,.66-.54,1.2-1.2,1.2s-1.2-.54-1.2-1.2v-2.06Z"/>
  <path class="cls-2" d="M11.07,84.06c-.17.29-.45.5-.78.57-.33.07-.67,0-.95-.19-.28-.2-.46-.5-.5-.83-.04-.33.05-.67.27-.93,2.91-4.14,9.22-4,11.88.04h0c.31.55.14,1.24-.39,1.59-.53.35-1.23.23-1.61-.27-1.7-2.57-5.94-2.79-7.93.03h0Z"/>
  <path class="cls-2" d="M76.3,6.23c1.57-1.73,3.5-2.4,5.23-2.26h0c1.65.11,3.15.99,4.04,2.39,1.02,1.64,1.13,3.94-.44,6.47-1.77,2.83-5.36,5.73-8.08,7.96-.45.37-1.09.36-1.53-.01-3.2-2.62-6.38-5.24-8.07-7.96-2.02-3.27-1.34-6.6,1.3-8.14h0c.71-.41,1.5-.65,2.31-.71,1.73-.13,3.66.53,5.23,2.26h0Z"/>
  <path class="cls-1" d="M81.35,6.35c-1.32-.1-2.88.61-4.02,2.49h0c-.21.36-.61.59-1.02.59-.42,0-.81-.21-1.03-.57-2.91-4.79-8.73-2.06-5.78,2.69,1.37,2.2,4.03,4.48,6.8,6.77,2.32-1.91,5.34-4.4,6.8-6.77,1.22-1.96,1.09-3.89-.46-4.8h0c-.39-.23-.83-.36-1.28-.4h0Z"/>
  <path class="cls-2" d="M77.99,78.78c1.57-1.73,3.5-2.4,5.23-2.26h0c1.65.11,3.15.99,4.04,2.39,1.02,1.63,1.14,3.94-.43,6.46-1.77,2.84-5.36,5.73-8.08,7.96h0c-.45.37-1.09.36-1.54-.01-3.19-2.62-6.38-5.24-8.06-7.96-2.03-3.27-1.34-6.6,1.29-8.13.71-.41,1.5-.65,2.32-.71,1.73-.14,3.67.52,5.23,2.26h0Z"/>
  <path class="cls-1" d="M83.05,78.91c-1.33-.1-2.89.61-4.03,2.49h0c-.22.36-.61.58-1.02.58-.42,0-.81-.21-1.03-.57-2.91-4.79-8.73-2.06-5.78,2.7,1.36,2.2,4.03,4.48,6.8,6.77,2.32-1.91,5.34-4.4,6.8-6.76,1.21-1.96,1.09-3.89-.47-4.8h0c-.39-.23-.83-.36-1.28-.4h0Z"/>
  <path class="cls-1" d="M67.44,35.33v-.2c0-.35-.19-.67-.48-.84-.29-.18-.66-.19-.97-.04l-12.8,6.71-.05-.26c-.23-1.07-1.18-1.83-2.27-1.84h-6.98c-2.15,0-3.89,1.75-3.89,3.9v8.17h0c0,2.15,1.74,3.89,3.89,3.9h.19l1.89,6.75c.1.46.51.8.98.8h4.52c.31,0,.61-.15.79-.4s.25-.57.16-.87l-1.76-6.28h.26c.55-.03,1.07-.24,1.47-.61l.09-.09h0c.26-.26.45-.57.57-.92l.07-.22,12.77,6.4h0c.3.2.7.21,1.02.04.32-.17.52-.51.52-.87v-4.83l.1-.05h0c1.07-.65,1.97-1.53,2.64-2.59,1.14-1.81,1.51-4,1.01-6.08s-1.81-3.88-3.65-4.98l-.1-.06v-4.63Z"/>
  <path class="cls-2" d="M67.79,42.75c.26.28.5.58.7.91,1.43,2.3,1.14,5.28-.7,7.27l-.35.37v-8.91l.35.38Z"/>
  <polygon class="cls-2" points="50.15 60.38 47.71 60.38 46.15 54.83 48.61 54.83 50.15 60.38"/>
  <path class="cls-2" d="M50.89,52.82h0s-.02,0-.04,0h-6.96c-1.05,0-1.89-.85-1.89-1.9v-8.17c0-1.05.85-1.89,1.89-1.9h7.04l.24.24v11.44l-.16.4-.12-.11Z"/>
  <polygon class="cls-2" points="53.18 50.79 53.18 43.19 65.44 36.78 65.44 56.94 53.18 50.79"/>
  <path class="cls-1" d="M75.22,47.84h5.48,0c.55,0,1-.45,1-1s-.45-1-1-1h-5.48c-.55,0-1,.45-1,1s.45,1,1,1h0Z"/>
  <path class="cls-1" d="M74.25,40.36l4.74-3.3h0c.41-.33.49-.91.19-1.35-.3-.43-.88-.55-1.33-.29l-4.75,3.3c-.24.14-.41.38-.46.65-.05.27,0,.55.16.78.16.23.4.38.68.42.27.04.55-.04.77-.21h0Z"/>
  <path class="cls-1" d="M73.11,54.96l4.75,3.3h0c.45.3,1.06.18,1.37-.27.31-.45.2-1.05-.23-1.38l-4.74-3.29h0c-.22-.18-.5-.25-.77-.21-.27.04-.52.19-.68.42-.16.23-.21.51-.16.78.06.27.23.5.46.65h0Z"/>
</svg>