<svg width="110" height="135" viewBox="0 0 110 135" fill="none" xmlns="http://www.w3.org/2000/svg">
<path d="M34.8008 54.219C37.3399 58.8088 39.1211 63.2776 40.1016 67.5V74.5508C40.1016 76.0625 41.0235 77.3594 42.3204 77.9219V88.4529C42.3204 90.1326 43.5118 91.5427 45.1016 91.8748C45.2032 96.3631 48.8828 99.9959 53.4024 99.9959H56.6133C61.1328 99.9959 64.8125 96.367 64.9141 91.8748C66.4922 91.5467 67.6953 90.1365 67.6953 88.4529V77.9219C68.9961 77.3516 69.9141 76.0625 69.9141 74.5508V67.4922C70.8946 62.9219 72.5235 58.7031 74.793 54.9532C76.9532 51.3829 78.0938 47.2813 78.0938 43.0822C78.0938 36.6838 75.5352 30.7302 70.8946 26.3322C66.254 21.9338 60.1646 19.7033 53.7466 20.0431C41.7666 20.6837 31.9766 30.9841 31.9376 43.0121C31.9259 46.934 32.9259 50.8129 34.8165 54.2311L34.8008 54.219ZM56.6098 97H53.3989C50.5591 97 48.2387 94.7617 48.0981 91.9609H61.9181C61.7775 94.7617 59.4572 97 56.6173 97H56.6098ZM64.6801 88.4609C64.6801 88.7421 64.4614 88.9609 64.1801 88.9609H45.8091C45.5279 88.9609 45.3091 88.7421 45.3091 88.4609V85.1015H64.6801V88.4609ZM64.6801 82.1015H45.3091V78.2421H64.6801V82.1015ZM66.8989 74.5507C66.8989 74.9296 66.5903 75.2304 66.2192 75.2304H43.7782C43.3993 75.2304 43.0985 74.9218 43.0985 74.5507V68.8202H66.8995L66.8989 74.5507ZM53.8909 23.0307C59.469 22.7221 64.7699 24.6791 68.8129 28.5112C72.852 32.3393 75.0824 37.5229 75.0824 43.0812C75.0824 46.7296 74.0941 50.3 72.2113 53.4012C69.9496 57.1512 68.2621 61.3231 67.1996 65.8312H42.7776C41.6995 61.6398 39.8987 57.2531 37.426 52.7722C35.7776 49.8034 34.9065 46.4206 34.9143 43.0105C34.9534 32.5495 43.4651 23.5885 53.8833 23.0305L53.8909 23.0307Z" fill="white"/>
<path d="M43.1095 51.1209C43.3595 51.1209 43.6095 51.0623 43.84 50.9295C44.5587 50.5311 44.8282 49.6209 44.4181 48.8904C43.4181 47.0818 42.9064 45.1013 42.9181 43.031C42.9376 36.7419 48.0587 31.351 54.3161 31.019C55.1442 30.9799 55.777 30.269 55.738 29.4409C55.6989 28.6128 54.988 27.9995 54.1599 28.019C46.3396 28.4409 39.9489 35.1596 39.9219 43.019C39.9219 45.6206 40.543 48.0776 41.8008 50.3393C42.0703 50.8393 42.5898 51.1088 43.1094 51.1088L43.1095 51.1209Z" fill="white"/>
</svg>
