<svg width="110" height="136" viewBox="0 0 110 136" fill="none" xmlns="http://www.w3.org/2000/svg">
<path d="M48.5742 86.02H77.3942V94.8755H48.5742V86.02Z" fill="white"/>
<path d="M77.3948 82.8949V62.6409C77.3948 61.4964 76.9221 60.4104 76.0979 59.6604C75.3166 58.9495 74.3206 58.5979 73.2854 58.6995C73.2229 58.7034 73.1565 58.7073 73.094 58.7034L56.946 58.1761C56.1022 58.1487 55.4343 57.4573 55.4343 56.6136V43.5196C55.3991 42.7344 53.7312 40.1016 52.0046 40.1016H51.9929C50.1062 40.1016 48.5749 41.6368 48.5749 43.5196V72.4806C48.5749 73.0001 48.3171 73.4845 47.8874 73.7736C47.4577 74.0665 46.9147 74.1251 46.4304 73.9298L39.1296 71.0157C38.0671 70.5899 36.8601 70.8399 36.0515 71.6485C35.4265 72.2696 35.1296 73.1251 35.2272 73.9962C35.3249 74.8673 35.8093 75.6329 36.5553 76.0978L47.4573 82.8986H77.3913L77.3948 82.8949Z" fill="white"/>
<path d="M39.0274 46.0901H31.0391C30.1758 46.0901 29.4766 45.3909 29.4766 44.5276C29.4766 43.6643 30.1758 42.9651 31.0391 42.9651H39.0274C39.8906 42.9651 40.5899 43.6643 40.5899 44.5276C40.5899 45.3909 39.8906 46.0901 39.0274 46.0901Z" fill="white"/>
<path d="M43.5352 37.207C43.1367 37.207 42.7344 37.0546 42.4297 36.7499L36.7813 31.1015C36.1719 30.4922 36.1719 29.5038 36.7813 28.8906C37.3906 28.2812 38.379 28.2812 38.9922 28.8906L44.6406 34.539C45.2499 35.1484 45.2499 36.1367 44.6406 36.7499C44.3359 37.0546 43.9375 37.207 43.5352 37.207Z" fill="white"/>
<path d="M51.0078 34.1131C50.1445 34.1131 49.4453 33.4138 49.4453 32.5506V24.5623C49.4453 23.699 50.1445 22.9998 51.0078 22.9998C51.8711 22.9998 52.5703 23.699 52.5703 24.5623V32.5506C52.5703 33.4138 51.8711 34.1131 51.0078 34.1131Z" fill="white"/>
<path d="M59.8907 38.6171C59.4922 38.6171 59.0899 38.4648 58.7852 38.1601C58.1758 37.5507 58.1758 36.5624 58.7852 35.9492L64.4336 30.3008C65.0429 29.6914 66.0313 29.6914 66.6445 30.3008C67.2538 30.9102 67.2538 31.8985 66.6445 32.5117L60.9961 38.1601C60.6914 38.4648 60.293 38.6171 59.8907 38.6171Z" fill="white"/>
<path d="M70.9727 48.0859H62.9883C62.125 48.0859 61.4258 47.3867 61.4258 46.5234C61.4258 45.6602 62.125 44.9609 62.9883 44.9609H70.9727C71.836 44.9609 72.5352 45.6602 72.5352 46.5234C72.5352 47.3867 71.836 48.0859 70.9727 48.0859Z" fill="white"/>
</svg>
