<svg width="110" height="136" viewBox="0 0 110 136" fill="none" xmlns="http://www.w3.org/2000/svg">
<path fill-rule="evenodd" clip-rule="evenodd" d="M29.5508 57.9299H37.5703V61.9494C40.2226 62.4807 42.6914 63.5197 44.8672 64.9689L47.7149 62.1212L53.379 67.7853L50.5313 70.633C51.9805 72.8049 53.0196 75.2775 53.5508 77.9299H57.5703V85.9494H53.5508C53.0195 88.6017 51.9805 91.0705 50.5313 93.2463L53.379 96.094L47.7149 101.758L44.8672 98.9104C42.6953 100.36 40.2227 101.399 37.5703 101.93V105.949H29.5508V101.93C26.8985 101.399 24.4297 100.36 22.2539 98.9104L19.4062 101.758L13.7421 96.094L16.5898 93.2463C15.1406 91.0744 14.1015 88.6018 13.5703 85.9494H9.53906V77.9299H13.5586C14.0898 75.2776 15.1289 72.8088 16.5781 70.633L13.7304 67.7853L19.3945 62.1212L22.2422 64.9689C24.4141 63.5197 26.8867 62.4806 29.5391 61.9494V57.9299H29.5508ZM74.7348 102.278V104.891C74.7348 105.747 73.7465 106.278 73.0317 105.727L62.8287 97.8404C62.2779 97.4108 62.2779 96.5865 62.8287 96.1685L73.0317 88.2818C73.7465 87.7311 74.7348 88.2623 74.7348 89.1178V91.4967C92.6728 88.61 97.2658 72.0357 97.8368 59.4027C106.001 77.4377 94.1532 99.9299 74.7348 102.278ZM35.2658 18.7229C15.8478 21.0706 3.99976 43.5629 12.1638 61.5939C12.7341 48.9609 17.3279 32.3989 35.2658 29.4999V31.8788C35.2658 32.746 36.254 33.2655 36.9689 32.7147L47.1719 24.828C47.7226 24.3984 47.7226 23.5741 47.1719 23.1561L36.9689 15.2694C36.254 14.7187 35.2658 15.2499 35.2658 16.1054V18.7229ZM76.4378 15.0393C63.1718 15.0393 52.4178 25.7933 52.4178 39.0593C52.4178 52.3253 63.1718 63.0793 76.4378 63.0793C89.7038 63.0793 100.458 52.3253 100.458 39.0593C100.462 25.7973 89.7038 15.0393 76.4378 15.0393ZM74.969 29.1013C74.969 28.2849 75.633 27.6325 76.4378 27.6325C77.2542 27.6325 77.9066 28.2966 77.9066 29.1013V30.6716C79.2113 30.8747 80.3949 31.6091 81.1605 32.6716C81.6409 33.3239 81.4886 34.2536 80.8323 34.7224C80.18 35.2029 79.2503 35.0505 78.7815 34.3943C78.0589 33.3943 77.137 33.5466 76.0471 33.5466C74.2815 33.5466 73.3323 35.6989 74.6174 36.9841C75.2893 37.656 75.9651 37.5779 76.8205 37.5779C81.1994 37.5779 83.465 42.906 80.3322 46.0467C79.6799 46.699 78.8439 47.1795 77.9025 47.3826V49.0154C77.9025 49.8318 77.2385 50.4842 76.4337 50.4842C75.6173 50.4842 74.9649 49.8201 74.9649 49.0154V47.4451C73.6602 47.242 72.4766 46.5076 71.711 45.4451C71.2306 44.7927 71.3829 43.8631 72.0392 43.3943C72.6915 42.9138 73.6212 43.0662 74.09 43.7224C74.8126 44.7224 75.7345 44.5701 76.8244 44.5701C78.59 44.5701 79.5392 42.4178 78.2541 41.1326C77.5822 40.4607 76.9064 40.5388 76.051 40.5388C71.6721 40.5388 69.4065 35.2107 72.5393 32.07C73.1916 31.4177 74.0276 30.9372 74.969 30.7341V29.1013ZM76.4378 20.8279C86.5078 20.8279 94.6718 28.992 94.6718 39.0619C94.6718 49.1318 86.5077 57.2959 76.4378 57.2959C66.3679 57.2959 58.2038 49.1318 58.2038 39.0619C58.2038 28.9879 66.3679 20.8279 76.4378 20.8279ZM87.2538 28.2459C93.2226 34.2147 93.2226 43.8979 87.2538 49.8669C81.285 55.8359 71.6018 55.8357 65.6328 49.8669C59.6638 43.8981 59.664 34.2149 65.6328 28.2459C71.6016 22.2769 81.2778 22.2771 87.2538 28.2459ZM37.8988 82.1329C35.6019 82.1329 33.7465 83.9884 33.7465 86.2852C33.7465 89.9688 38.227 91.8243 40.8285 89.2227C43.4496 86.6133 41.5941 82.1329 37.8988 82.1329ZM38.7542 85.4298C38.0003 84.6759 36.6917 85.215 36.6917 86.2853C36.6917 87.3556 37.9964 87.8986 38.7542 87.1407C39.223 86.6642 39.223 85.8985 38.7542 85.4298ZM29.2151 73.4498C26.9182 73.4498 25.0628 75.3053 25.0628 77.6021C25.0628 81.2857 29.5433 83.1412 32.1448 80.5396C34.7659 77.9185 32.9066 73.4498 29.2151 73.4498ZM30.0706 76.7467C29.3167 75.9928 28.0081 76.5319 28.0081 77.6022C28.0081 78.6725 29.3128 79.2155 30.0706 78.4576C30.5394 77.9811 30.5394 77.2154 30.0706 76.7467ZM37.5823 75.8365L27.4613 85.9576C26.891 86.5279 26.891 87.4693 27.4613 88.0396C28.0316 88.6099 28.973 88.6099 29.5433 88.0396L39.6643 77.9185C40.2346 77.3482 40.2346 76.4068 39.6643 75.8365C39.094 75.2662 38.1526 75.2662 37.5823 75.8365ZM33.5628 68.5513C26.1644 68.5513 20.1758 74.5396 20.1758 81.9383C20.1758 89.337 26.1641 95.3253 33.5628 95.3253C40.9615 95.3253 46.9498 89.337 46.9498 81.9383C46.9498 74.5396 40.9615 68.5513 33.5628 68.5513Z" fill="white"/>
</svg>
