<svg width="110" height="136" viewBox="0 0 110 136" fill="none" xmlns="http://www.w3.org/2000/svg">
<path fill-rule="evenodd" clip-rule="evenodd" d="M63.7465 65.7499C63.7465 66.4335 63.1918 66.9882 62.5082 66.9882C61.8246 66.9882 61.2699 66.4336 61.2699 65.7499V64.7499C60.2933 64.5195 59.4222 64.0195 58.7387 63.3319C57.7738 62.3671 57.1762 61.035 57.1762 59.5624C57.1762 58.8789 57.7309 58.3241 58.4145 58.3241C59.0981 58.3241 59.6528 58.8788 59.6528 59.5624C59.6528 60.3515 59.9731 61.0663 60.4887 61.5819C60.9575 62.0507 61.5864 62.3554 62.2895 62.4101C62.3598 62.3983 62.434 62.3905 62.5083 62.3905C62.5825 62.3905 62.6567 62.3983 62.727 62.4101C63.4262 62.3554 64.059 62.0507 64.5278 61.5819C65.0434 61.0663 65.3638 60.3514 65.3638 59.5624C65.3638 58.832 65.0747 58.2108 64.602 57.7421C64.0552 57.1953 63.27 56.832 62.3989 56.703C62.3677 56.6991 62.3325 56.6952 62.2974 56.6913C60.8169 56.4335 59.5318 55.8359 58.6177 54.9179C57.7075 54.0078 57.1763 52.8202 57.1763 51.3788C57.1763 49.9061 57.7739 48.5741 58.7388 47.6093C59.4224 46.9257 60.2935 46.4257 61.27 46.1913V45.1913C61.27 44.5077 61.8247 43.953 62.5083 43.953C63.1919 43.953 63.7466 44.5077 63.7466 45.1913V46.1913C64.7231 46.4218 65.5943 46.9218 66.2778 47.6093C67.2426 48.5742 67.8403 49.9062 67.8403 51.3788C67.8403 52.0624 67.2856 52.6171 66.602 52.6171C65.9184 52.6171 65.3637 52.0624 65.3637 51.3788C65.3637 50.5898 65.0434 49.8749 64.5277 49.3593C64.059 48.8906 63.43 48.5859 62.7269 48.5312C62.6566 48.5429 62.5824 48.5507 62.5082 48.5507C62.434 48.5507 62.3597 48.5429 62.2894 48.5312C61.5902 48.5859 60.9574 48.8906 60.4886 49.3593C59.973 49.8749 59.6527 50.5898 59.6527 51.3788C59.6527 52.1171 59.9183 52.7147 60.3714 53.1679C60.9183 53.7148 61.7386 54.082 62.7152 54.2538L62.7465 54.2616C64.1449 54.4648 65.4301 55.0702 66.352 55.996C67.27 56.914 67.8364 58.1288 67.8364 59.5663C67.8364 61.039 67.2387 62.371 66.2739 63.3358C65.5903 64.0194 64.7192 64.5194 63.7427 64.7538V65.7538L63.7465 65.7499ZM16.5315 29.6679H95.4725V18.8159C95.4725 18.2378 95.2342 17.7143 94.8553 17.3315C94.4725 16.9487 93.949 16.7144 93.3709 16.7144H18.6369C18.0588 16.7144 17.5353 16.9526 17.1525 17.3315C16.7697 17.7144 16.5353 18.2378 16.5353 18.8159V29.6679H16.5315ZM45.1915 24.2304C44.5079 24.2304 43.9532 23.6758 43.9532 22.9921C43.9532 22.3086 44.5079 21.7538 45.1915 21.7538H85.9065C86.5901 21.7538 87.1448 22.3085 87.1448 22.9921C87.1448 23.6757 86.5901 24.2304 85.9065 24.2304H45.1915ZM23.1755 24.2304C22.4919 24.2304 21.9372 23.6758 21.9372 22.9921C21.9372 22.3086 22.4919 21.7538 23.1755 21.7538H23.1794C23.863 21.7538 24.4177 22.3085 24.4177 22.9921C24.4177 23.6757 23.863 24.2304 23.1794 24.2304H23.1755ZM30.2536 24.2304C29.57 24.2304 29.0153 23.6758 29.0153 22.9921C29.0153 22.3086 29.57 21.7538 30.2536 21.7538H30.2575C30.9411 21.7538 31.4958 22.3085 31.4958 22.9921C31.4958 23.6757 30.9411 24.2304 30.2575 24.2304H30.2536ZM37.3317 24.2304C36.6481 24.2304 36.0934 23.6758 36.0934 22.9921C36.0934 22.3086 36.6481 21.7538 37.3317 21.7538H37.3356C38.0192 21.7538 38.5739 22.3085 38.5739 22.9921C38.5739 23.6757 38.0192 24.2304 37.3356 24.2304H37.3317ZM47.7847 57.5234C48.9136 57.0938 50.0659 57.2344 51.0503 57.7266C51.5854 57.9961 52.0698 58.375 52.4605 58.8243C52.8511 59.2696 53.1636 59.7969 53.3628 60.3673C53.8784 61.8595 53.6284 63.5978 52.0581 64.9571L51.4917 65.4493C52.7495 66.8399 54.2651 67.9884 55.9605 68.8204C57.9293 69.7852 60.148 70.3282 62.5035 70.3282C66.6051 70.3282 70.3199 68.6641 73.0115 65.9766C75.699 63.2891 77.3631 59.5743 77.3631 55.4686C77.3631 51.3629 75.699 47.6522 73.0115 44.9606C70.324 42.2731 66.6092 40.609 62.5035 40.609C58.398 40.609 54.6871 42.2731 51.9955 44.9606C49.308 47.6481 47.6439 51.3629 47.6439 55.4686C47.6439 56.1404 47.683 56.7733 47.7611 57.3709C47.7689 57.4216 47.7728 57.4685 47.7806 57.5193L47.7847 57.5234ZM51.5933 81.7534C51.6597 81.7847 51.7261 81.8159 51.7925 81.8511C52.3198 82.1206 52.7964 82.4995 53.1831 82.9449C53.5659 83.3863 53.8706 83.9097 54.0659 84.4683C54.2339 84.9527 54.3198 85.4644 54.3042 85.98H93.3702C93.9483 85.98 94.4718 85.7417 94.8546 85.3628C95.2374 84.98 95.4718 84.4566 95.4718 83.8784V32.1444H16.5308V83.8784C16.5308 84.4136 16.7339 84.9018 17.0659 85.2729C17.2964 85.5307 17.5855 85.7339 17.9175 85.851L20.6402 83.4877C20.8785 82.5307 21.1988 81.5658 21.5894 80.5893C22.0347 79.476 22.5621 78.3666 23.1558 77.2573C24.4722 74.8042 24.5074 71.6596 24.5464 68.1245C24.5581 67.0503 24.5699 65.9448 24.6128 64.8511V64.8238C24.6909 62.984 25.7417 61.5816 27.0816 60.8629C27.6637 60.5504 28.3004 60.3707 28.941 60.3395C29.6051 60.3043 30.273 60.4293 30.8824 60.734C32.1129 61.3473 33.0855 62.6481 33.2886 64.7926H33.2925L33.8316 69.5114L45.5586 59.1094C45.457 58.6406 45.3789 58.1641 45.3164 57.6797C45.2187 56.9297 45.1719 56.1914 45.1719 55.4649C45.1719 50.6797 47.1133 46.3438 50.25 43.2069C53.3867 40.07 57.7227 38.1288 62.508 38.1288C67.2932 38.1288 71.6291 40.0702 74.766 43.2069C77.9029 46.3436 79.8441 50.6796 79.8441 55.4649C79.8441 60.2502 77.9027 64.586 74.766 67.7229C71.6293 70.8596 67.2933 72.801 62.508 72.801C59.7775 72.801 57.1877 72.1643 54.8791 71.0315C52.883 70.051 51.1018 68.6956 49.6291 67.0627L48.1682 68.3322C48.215 68.3556 48.2619 68.3791 48.3049 68.3986C48.8322 68.6681 49.3088 69.047 49.6955 69.4924C50.0783 69.9338 50.383 70.4572 50.5783 71.0158C51.0236 72.301 50.8947 73.7658 49.8596 75.0119C49.9299 75.0431 49.9963 75.0744 50.0627 75.1095C50.59 75.3791 51.0666 75.758 51.4533 76.2033C51.8361 76.6448 52.1408 77.1682 52.3361 77.7267C52.7814 79.0197 52.6525 80.4962 51.5939 81.7501L51.5933 81.7534ZM48.6871 84.355C49.3629 83.7652 50.0973 83.7496 50.6715 84.0425C50.9098 84.1636 51.1324 84.3433 51.316 84.5543C51.5035 84.7691 51.648 85.0113 51.734 85.2691C51.9449 85.8785 51.8238 86.6011 51.148 87.1871L45.5152 92.0777C42.4722 94.6168 39.8824 96.5816 37.5699 97.8121C35.4137 98.9605 33.523 99.4488 31.7379 99.148C31.3395 99.0816 30.9567 99.2144 30.6832 99.4722L25.1324 104.289L14.5234 92.0656L19.0039 88.175C19.043 88.1477 19.0782 88.1125 19.1133 88.0813L22.5508 85.0969C22.7578 84.9172 22.8907 84.6828 22.9493 84.4367V84.4289C23.1719 83.468 23.4844 82.4914 23.8789 81.4992C24.2774 80.507 24.7657 79.4797 25.3281 78.4289C26.9297 75.4484 26.9687 72.0109 27.0078 68.1479C27.0196 67.1284 27.0313 66.0737 27.0743 64.9487V64.937C27.1094 64.0503 27.6055 63.3784 28.2345 63.0425C28.4962 62.9019 28.7735 62.8198 29.0509 62.8081C29.3048 62.7964 29.5509 62.8394 29.7735 62.9526C30.297 63.2144 30.7227 63.8745 30.8282 65.0464L30.8321 65.0738H30.8282L31.6407 72.1519C31.7188 72.8316 32.3321 73.316 33.0079 73.2417C33.3009 73.2104 33.5587 73.0737 33.7501 72.8784L47.9841 60.2534C48.6443 59.6675 49.3669 59.6479 49.9411 59.937C50.1872 60.0581 50.4099 60.2378 50.5974 60.4526C50.7888 60.6675 50.9333 60.9136 51.0231 61.1753C51.2341 61.7847 51.113 62.5073 50.4333 63.0972L38.1133 73.7922C37.5977 74.2375 37.543 75.0188 37.9883 75.5344C38.4336 76.05 39.2149 76.1047 39.7305 75.6594L45.1953 70.9172C45.8711 70.3312 46.6055 70.3117 47.1758 70.6086C47.4141 70.7297 47.6367 70.9094 47.8203 71.1203C48.0078 71.3351 48.1524 71.5773 48.2383 71.8351C48.4492 72.4445 48.3281 73.1671 47.6524 73.7531L41.0313 79.5031C40.5156 79.9485 40.461 80.7297 40.9063 81.2453C41.3516 81.7609 42.1329 81.8156 42.6485 81.3703L46.9493 77.6359C47.625 77.0461 48.3595 77.0305 48.9337 77.3234C49.1719 77.4445 49.3946 77.6242 49.5782 77.8352C49.7657 78.05 49.9102 78.2922 49.9962 78.55C50.2071 79.1594 50.086 79.882 49.4102 80.468L43.1055 85.9407C42.5899 86.386 42.5352 87.1673 42.9805 87.6829C43.4258 88.1985 44.2071 88.2532 44.7227 87.8079L48.6797 84.3704L48.6871 84.355Z" fill="white"/>
</svg>
