<svg width="110" height="136" viewBox="0 0 110 136" fill="none" xmlns="http://www.w3.org/2000/svg">
<path d="M74.1994 68.1721C82.8049 68.1721 89.8084 61.1682 89.8084 52.5631C89.8084 43.958 82.8045 36.9541 74.1994 36.9541C65.59 36.9541 58.5904 43.9541 58.5904 52.5631C58.5904 61.1686 65.5904 68.1721 74.1994 68.1721ZM71.7619 44.9261H73.7072V41.8558C73.7072 41.0628 74.9103 41.0628 74.9103 41.8558V44.9261H79.5392C80.3322 44.9261 80.3322 46.1292 79.5392 46.1292H71.7619C70.2189 46.1292 68.9689 47.3792 68.9689 48.9222C68.9689 50.4613 70.2228 51.7152 71.7619 51.7152H76.8557C79.0588 51.7152 80.8479 53.5082 80.8479 55.7074C80.8479 57.9105 79.0588 59.7035 76.8557 59.7035H74.9104V62.7777C74.9104 63.5667 73.7073 63.5706 73.7073 62.7777V59.7035H69.0784C68.2854 59.7035 68.2854 58.5004 69.0784 58.5004H76.8557C78.3948 58.5004 79.6487 57.2465 79.6487 55.7074C79.6487 54.1683 78.3987 52.9183 76.8557 52.9183H71.7619C69.5588 52.9183 67.7658 51.1253 67.7658 48.9222C67.7658 46.7191 69.5588 44.9261 71.7619 44.9261ZM36.9499 26.4381C36.9499 20.7545 41.571 16.1331 47.2549 16.1331C52.9388 16.1331 57.5639 20.7581 57.5639 26.4381C57.5639 32.1217 52.9389 36.7431 47.2549 36.7431C41.5709 36.7431 36.9499 32.1181 36.9499 26.4381ZM96.5199 82.4301L70.7389 97.3171C69.4694 98.0514 67.7819 98.3014 66.3873 97.8756C66.3795 97.8756 66.3756 97.8717 66.3756 97.8717L40.8486 92.5475C40.7041 92.5163 40.5517 92.5397 40.4228 92.6139L36.0947 95.1139L24.2117 74.528L31.3797 70.3873C33.6844 69.0553 36.1883 68.7271 38.7586 69.4147L65.5746 76.5983C70.4262 77.8991 71.3793 84.4967 66.9496 87.0513C65.6332 87.8091 64.0863 88.02 62.6215 87.6294L48.6255 83.8794C47.8599 83.6763 47.5513 84.8364 48.313 85.0396L62.309 88.7896C65.8285 89.7349 69.5082 87.7584 70.6567 84.2896L70.7036 84.1451L90.8086 72.5361C93.5313 70.9619 97.0352 71.9033 98.6094 74.6259C100.184 77.3525 99.2425 80.8598 96.5199 82.4301ZM58.6919 59.0751H25.5239L25.5434 58.6571C26.0786 47.0871 35.6684 37.9461 47.2504 37.9461C51.977 37.9461 56.5981 39.4969 60.3674 42.3484L60.676 42.5828L60.4534 42.8992C57.2268 47.4734 56.5003 53.3172 58.4807 58.5362L58.6919 59.0751ZM21.8599 72.8601L36.5979 98.3871L25.3709 104.871L10.6289 79.3405L21.8599 72.8601Z" fill="white"/>
</svg>
