<svg width="32" height="40" viewBox="0 0 32 40" fill="none" xmlns="http://www.w3.org/2000/svg">
<g clip-path="url(#clip0_91_75)">
<path d="M17 10H18V11.5503C18 11.8846 18.1671 12.1968 18.4453 12.3823L23.5 15V8.79999L18 6.08545V8H16C15.4478 8 15 8.44727 15 9V12H17V10Z" fill="white"/>
<path d="M21.456 23.9079L20.4512 22.2333C20.5587 22.0197 20.6478 21.7987 20.7242 21.569L22.6213 21.0947C22.8439 21.0391 23 20.8391 23 20.6096V19.3904C23 19.1609 22.8439 18.9609 22.6213 18.9053L20.7242 18.431C20.6478 18.2013 20.5587 17.9803 20.4512 17.7667L21.456 16.0921C21.574 15.8954 21.543 15.6436 21.3808 15.4813L20.5187 14.6192C20.3564 14.457 20.1046 14.426 19.9079 14.544L18.2333 15.5488C18.0197 15.4413 17.7987 15.3522 17.569 15.2758L17.0947 13.3787C17.0391 13.1561 16.8391 13 16.6096 13H15.3904C15.1609 13 14.961 13.1561 14.9053 13.3787L14.431 15.2758C14.2013 15.3522 13.9803 15.4413 13.7667 15.5488L12.0921 14.544C11.8954 14.426 11.6436 14.457 11.4813 14.6192L10.6192 15.4813C10.457 15.6436 10.426 15.8954 10.544 16.0921L11.5488 17.7667C11.4413 17.9803 11.3522 18.2013 11.2758 18.431L9.37872 18.9053C9.15619 18.9609 9 19.1609 9 19.3904V20.6096C9 20.8391 9.15619 21.0391 9.37872 21.0947L11.2758 21.569C11.3522 21.7987 11.4413 22.0197 11.5488 22.2333L10.544 23.9079C10.426 24.1046 10.457 24.3564 10.6192 24.5187L11.4813 25.3808C11.6436 25.543 11.8954 25.574 12.0921 25.456L13.7667 24.4512C13.9803 24.5587 14.2013 24.6478 14.431 24.7242L14.9053 26.6213C14.961 26.8439 15.1609 27 15.3904 27H16.6096C16.8391 27 17.0391 26.8439 17.0947 26.6213L17.569 24.7242C17.7987 24.6478 18.0197 24.5587 18.2333 24.4512L19.9079 25.456C20.1046 25.574 20.3564 25.543 20.5187 25.3808L21.3808 24.5187C21.543 24.3564 21.574 24.1046 21.456 23.9079ZM16 23C14.3431 23 13 21.6569 13 20C13 18.3431 14.3431 17 16 17C17.6569 17 19 18.3431 19 20C19 21.6569 17.6569 23 16 23Z" fill="white"/>
<path d="M16 22C17.1046 22 18 21.1046 18 20C18 18.8954 17.1046 18 16 18C14.8954 18 14 18.8954 14 20C14 21.1046 14.8954 22 16 22Z" fill="white"/>
<path d="M30 5.00003L24.5145 2.14658C24.1978 1.95114 23.8022 1.95114 23.4855 2.14658L18 5.00003L24 8.00003L30 5.00003Z" fill="white"/>
<path d="M24.5 15L29.5547 12.3823C29.8329 12.1968 30 11.8846 30 11.5503V6.08545L24.5 8.79999V15Z" fill="white"/>
<path d="M3 16H7C7.55225 16 8 15.5527 8 15V14H8.58594L9.63647 15.0505L11.0498 13.6357L9.70703 12.293C9.51953 12.1055 9.26514 12 9 12H8V11C8 10.4473 7.55225 10 7 10H3C2.44775 10 2 10.4473 2 11V15C2 15.5527 2.44775 16 3 16ZM5 12C5.55231 12 6 12.4477 6 13C6 13.5522 5.55231 14 5 14C4.44775 14 4 13.5522 4 13C4 12.4477 4.44775 12 5 12Z" fill="white"/>
<path d="M8.58594 26H8V25C8 24.4473 7.55225 24 7 24H3C2.44775 24 2 24.4473 2 25V29C2 29.5527 2.44775 30 3 30H7C7.55225 30 8 29.5527 8 29V28H9C9.26514 28 9.51953 27.8945 9.70703 27.707L11.0498 26.3643L9.63647 24.9495L8.58594 26ZM5 28C4.44775 28 4 27.5522 4 27C4 26.4477 4.44775 26 5 26C5.55231 26 6 26.4477 6 27C6 27.5522 5.55231 28 5 28Z" fill="white"/>
<path d="M29 24H25C24.4478 24 24 24.4473 24 25V26H23.4141L22.3635 24.9495L20.9502 26.3643L22.293 27.707C22.4805 27.8945 22.7349 28 23 28H24V29C24 29.5527 24.4478 30 25 30H29C29.5522 30 30 29.5527 30 29V25C30 24.4473 29.5522 24 29 24ZM27 28C26.4477 28 26 27.5522 26 27C26 26.4477 26.4477 26 27 26C27.5523 26 28 26.4477 28 27C28 27.5522 27.5523 28 27 28Z" fill="white"/>
</g>
<defs>
<clipPath id="clip0_91_75">
<rect width="32" height="40" fill="white"/>
</clipPath>
</defs>
</svg>
