<svg width="452" height="468" viewBox="0 0 452 468" fill="none" xmlns="http://www.w3.org/2000/svg">
<path d="M52.8614 285.202C53.2364 299.055 64.6078 310.272 78.5361 310.272H212.635C226.639 310.272 238.008 299.055 238.385 285.202C238.461 284.974 238.461 284.673 238.461 284.449C238.536 283.919 238.536 283.393 238.536 282.868V189.202C238.536 175.724 227.694 164.879 214.216 164.879H155.637C155.185 164.654 154.81 164.43 154.358 164.279L138.02 145.228C136.211 143.121 133.501 141.842 130.714 141.842H88.2493C82.9791 141.842 78.6868 146.21 78.6868 151.478V163.151C78.6868 164.129 77.9331 164.879 76.9552 164.879C63.5526 164.879 52.7107 175.724 52.7107 189.202V282.868C52.7107 283.393 52.7107 283.919 52.7861 284.449C52.7861 284.673 52.7861 284.974 52.8614 285.202ZM67.8449 228.202H223.402V284.449C223.402 290.397 218.582 295.213 212.635 295.213H78.5361C72.6629 295.213 67.8449 290.397 67.8449 284.449V228.202Z" fill="white"/>
<path d="M433.097 30.7831H371.505C361.115 30.7831 352.681 39.2132 352.681 49.6066V70.4375H342.089C329.486 70.4375 319.233 80.6875 319.233 93.2904V228.908H289.133V71.5919C289.133 70.989 289.058 70.386 288.907 69.8603V37.0331C288.907 16.9265 272.569 0.588226 252.464 0.588226H36.7474C16.6444 0.588226 0.306181 16.9265 0.306181 37.0331V69.8603C0.155446 70.386 0.0800781 70.989 0.0800781 71.5919V378.717C0.0800781 379.32 0.155446 379.919 0.306181 380.449V431.044C0.306181 451.074 16.6444 467.412 36.7474 467.412H252.464C272.494 467.412 288.907 451.074 288.907 430.971V380.449C289.058 379.919 289.133 379.32 289.133 378.717V243.967H319.233V379.585C319.233 392.191 329.486 402.445 342.089 402.445H352.681V418.397C352.681 428.787 361.115 437.221 371.505 437.221H433.097C443.486 437.221 451.92 428.787 451.92 418.397V361.625C451.92 351.232 443.486 342.801 433.097 342.801H371.505C361.115 342.801 352.681 351.232 352.681 361.625V387.386H342.089C337.788 387.386 334.291 383.886 334.291 379.585V243.967H352.681V264.798C352.681 275.187 361.115 283.621 371.505 283.621H433.097C443.486 283.621 451.92 275.187 451.92 264.798V208.099C451.92 197.71 443.486 189.276 433.097 189.276H371.505C361.115 189.276 352.681 197.71 352.681 208.099V228.908H334.291V93.2904C334.291 88.9926 337.788 85.4963 342.089 85.4963H352.681V106.301C352.681 116.691 361.115 125.125 371.505 125.125H433.097C443.486 125.125 451.92 116.691 451.92 106.301V49.6066C451.92 39.2132 443.486 30.7831 433.097 30.7831ZM119.196 32.2132H169.942C174.159 32.2132 177.472 35.5993 177.472 39.7426C177.472 43.8823 174.159 47.2721 169.942 47.2721H119.196C115.053 47.2721 111.666 43.8823 111.666 39.7426C111.666 35.5993 115.053 32.2132 119.196 32.2132ZM144.569 435.562C135.685 435.562 128.457 428.335 128.457 419.449C128.457 410.489 135.685 403.261 144.569 403.261C153.529 403.261 160.757 410.489 160.757 419.449C160.757 428.335 153.529 435.562 144.569 435.562ZM274.075 236.349C274.075 236.379 274.056 236.408 274.056 236.437C274.056 236.471 274.075 236.496 274.075 236.529V371.187H15.1389V79.1213H274.075V236.349ZM390.328 382.482H414.273C418.413 382.482 421.803 385.868 421.803 390.011C421.803 394.151 418.413 397.54 414.273 397.54H390.328C386.189 397.54 382.799 394.151 382.799 390.011C382.799 385.868 386.189 382.482 390.328 382.482ZM390.328 228.879H414.273C418.413 228.879 421.803 232.268 421.803 236.408C421.803 240.625 418.413 243.937 414.273 243.937H390.328C386.189 243.937 382.799 240.625 382.799 236.408C382.799 232.268 386.189 228.879 390.328 228.879ZM414.273 85.5184H390.328C386.189 85.5184 382.799 82.1323 382.799 77.989C382.799 73.7757 386.189 70.4596 390.328 70.4596H414.273C418.413 70.4596 421.803 73.7757 421.803 77.989C421.803 82.1323 418.413 85.5184 414.273 85.5184Z" fill="white"/>
</svg>
