<?xml version="1.0" encoding="UTF-8"?>
<svg id="Layer_1" data-name="Layer 1" xmlns="http://www.w3.org/2000/svg" viewBox="0 0 100 100">
  <defs>
    <style>
      .cls-1 {
        fill: #c9f21d;
        fill-rule: evenodd;
        stroke-width: 0px;
      }
    </style>
  </defs>
  <path class="cls-1" d="M51.91,44.44h16.4c4.65,0,8.45-3.83,8.45-8.48v-19.52c0-4.65-3.8-8.45-8.45-8.45H31.69c-4.65,0-8.45,3.8-8.45,8.45v19.52c0,4.65,3.8,8.48,8.45,8.48h15.86l2.18,5.86,2.18-5.86ZM87,84.06c-.15-1.21-.44-2.25-.92-3.15-.77-2.01-3.71-3.87-8.79-5.59-.65-.32-.97-1.02-.99-2.13,2.01-1.96,2.86-4.87,2.42-10.05-.24-3.22-2.81-4.82-5.38-4.82s-5.16,1.6-5.4,4.82c-.44,5.18.41,8.09,2.42,10.05,0,1.11-.34,1.82-.97,2.13-2.42.82-4.36,1.67-5.81,2.57,2.62,1.45,4.94,3.34,5.91,5.69.46.9.8,1.82,1.04,2.79h14.17c1.26,0,2.3-1.04,2.3-2.3h0ZM68.5,88.91c-.17-1.65-.58-3.08-1.23-4.29-1.07-2.71-5.04-5.23-11.92-7.58-.87-.41-1.31-1.36-1.33-2.88,2.74-2.66,3.87-6.58,3.27-13.63-.31-4.33-3.8-6.51-7.29-6.51s-6.98,2.18-7.29,6.51c-.61,7.05.53,10.97,3.27,13.63-.02,1.53-.46,2.47-1.33,2.88-6.88,2.35-10.85,4.87-11.91,7.58-.66,1.21-1.07,2.64-1.24,4.29,0,1.69,1.4,3.1,3.1,3.1h30.81c1.7,0,3.1-1.41,3.1-3.1h0ZM36.41,77.89c-1.45-.89-3.39-1.74-5.81-2.57-.63-.32-.97-1.02-.97-2.13,2.01-1.96,2.86-4.87,2.42-10.05-.24-3.22-2.81-4.82-5.4-4.82s-5.16,1.6-5.38,4.82c-.44,5.18.39,8.09,2.42,10.05-.02,1.11-.34,1.82-.99,2.13-5.09,1.72-8.02,3.58-8.79,5.59-.48.9-.77,1.94-.92,3.15,0,1.26,1.04,2.3,2.3,2.3h14.14c.27-.97.61-1.89,1.07-2.79.97-2.35,3.29-4.24,5.91-5.69h0ZM95.21,32.31h-15.98v3.66c0,3.95-2.11,7.41-5.26,9.32v9.13l3.92-4.92h17.32c2.2,0,4-1.79,4-3.99v-9.2c0-2.18-1.79-4-4-4h0ZM81.65,39.67c.68,0,1.24.56,1.24,1.23s-.56,1.23-1.24,1.23h-.41c-.7,0-1.23-.56-1.23-1.23s.53-1.23,1.23-1.23h.41ZM86.81,39.67c.68,0,1.21.56,1.21,1.23s-.53,1.23-1.21,1.23h-.44c-.68,0-1.24-.56-1.24-1.23s.56-1.23,1.24-1.23h.44ZM91.95,39.67c.68,0,1.23.56,1.23,1.23s-.56,1.23-1.23,1.23h-.41c-.68,0-1.23-.56-1.23-1.23s.56-1.23,1.23-1.23h.41ZM4.78,32.31h15.98v3.66c0,3.95,2.11,7.41,5.26,9.32v9.13l-3.92-4.92H4.78c-2.2,0-3.99-1.79-3.99-3.99v-9.2c0-2.18,1.79-4,3.99-4h0ZM13.41,37.32c-1.41-2.4-6.18-1.09-5.26,3.05.44,2.06,2.52,3.97,5.26,5.33,2.74-1.36,4.8-3.27,5.25-5.33.92-4.14-3.85-5.45-5.25-3.05h0ZM51.82,39.84h8.79c1.07,0,2.16-.87,2.52-1.91l3.05-11.94c.46-1.82.36-3.63-2.18-3.63h-5.91l1.57-7.14c.15-1.19-.63-2.3-1.82-2.57-1.19-.27-2.37.41-2.74,1.55l-2.52,4.12-6.27,4.7c-.7.53-1.07,1.28-1.07,2.16v9.25c0,.97.46,1.79,1.31,2.3l5.26,3.12ZM36.66,22.16l5.04.92v14.62c0,.75-.61,1.36-1.33,1.36h-6.76l3.05-16.9Z"/>
</svg>