<svg width="110" height="135" viewBox="0 0 110 135" fill="none" xmlns="http://www.w3.org/2000/svg">
<path d="M93.008 18.5078C93.008 18.1718 92.8673 17.8515 92.6173 17.6328C83.1329 9.22657 73.7114 13.4062 64.5944 17.4453C55.9069 21.2969 47.7034 24.9297 39.4694 17.9765V16.0546C39.4694 14.9608 39.0397 13.9296 38.2663 13.1562C37.4928 12.3828 36.4616 11.9531 35.3679 11.9531C33.1101 11.9531 31.2663 13.7969 31.2663 16.0547V105.703H18.1573C17.5088 105.703 16.9854 106.226 16.9854 106.875C16.9854 107.523 17.5088 108.047 18.1573 108.047H52.5953C53.2437 108.047 53.7672 107.523 53.7672 106.875C53.7672 106.226 53.2437 105.703 52.5953 105.703H39.4862V60.4917C42.8691 62.8979 46.2441 63.8198 49.5953 63.8198C54.9859 63.8198 60.3223 61.4526 65.5563 59.1323C74.3766 55.2182 82.7123 51.5229 91.0723 58.937C91.416 59.2417 91.9082 59.3198 92.33 59.1323C92.7519 58.9448 93.0175 58.523 93.0175 58.062V18.507L93.008 18.5078ZM33.625 105.703V16.0548C33.6172 15.086 34.4062 14.297 35.375 14.297C35.8437 14.297 36.289 14.4767 36.6172 14.8126C36.9531 15.1485 37.1328 15.586 37.1328 16.0548V105.703L33.625 105.703ZM64.602 56.9918C55.9223 60.8434 47.711 64.484 39.485 57.5308V20.9528C48.3053 27.234 57.063 23.3512 65.547 19.5856C74.2267 15.734 82.438 12.0934 90.664 19.0466V55.6246C81.8437 49.3434 73.086 53.2262 64.602 56.9918Z" fill="white"/>
</svg>
