<svg width="110" height="136" viewBox="0 0 110 136" fill="none" xmlns="http://www.w3.org/2000/svg">
<path fill-rule="evenodd" clip-rule="evenodd" d="M24.8281 61.6721C24.2656 65.2112 21.1953 67.9221 17.5 67.9221C13.4062 67.9221 10.0781 64.5979 10.0781 60.5002C10.0781 56.4064 13.4023 53.0783 17.5 53.0783C21.1992 53.0783 24.2656 55.7892 24.8281 59.3283H31.9804C32.2539 53.8517 34.4452 48.8753 37.8984 45.0553L32.8359 39.9928C29.9375 42.0983 25.8515 41.8444 23.2343 39.2311C20.3359 36.3327 20.3359 31.6295 23.2343 28.7351C26.1327 25.8367 30.8359 25.8367 33.7303 28.7351C36.3436 31.3484 36.5975 35.4382 34.492 38.3367L39.5545 43.3992C43.3709 39.9461 48.3475 37.7586 53.8275 37.4812V30.3289C50.2884 29.7664 47.5775 26.6961 47.5775 23.0008C47.5775 18.9031 50.9056 15.5789 54.9994 15.5789C59.0971 15.5789 62.4213 18.9031 62.4213 23.0008C62.4213 26.7 59.7104 29.7664 56.1713 30.3289V37.4812C61.6479 37.7546 66.6243 39.946 70.4443 43.3992L75.5068 38.3367C73.4013 35.4383 73.6552 31.3484 76.2725 28.7351C79.1709 25.8367 83.8741 25.8367 86.7685 28.7351C89.663 31.6296 89.663 36.3328 86.7685 39.2311C84.1513 41.8444 80.0654 42.0983 77.1669 39.9928L72.1044 45.0553C75.5536 48.8717 77.745 53.8483 78.0224 59.3283H85.1747C85.7372 55.7892 88.8075 53.0783 92.5067 53.0783C96.6005 53.0783 99.9286 56.4064 99.9286 60.5002C99.9286 64.5979 96.6044 67.9221 92.5067 67.9221C88.8075 67.9221 85.7411 65.2112 85.1747 61.6721H78.0224C77.7919 66.2424 76.2255 70.469 73.7099 73.9611C72.7216 71.2658 71.1591 68.7931 69.0927 66.7267C66.6513 64.2853 63.6396 62.5431 60.37 61.629C63.0223 59.8829 64.7723 56.879 64.7723 53.4728C64.7723 48.0822 60.3973 43.7072 55.0067 43.7072C49.6161 43.7072 45.2411 48.0822 45.2411 53.4728C45.2411 56.879 46.9911 59.883 49.6395 61.629C46.3739 62.543 43.3622 64.2852 40.9207 66.7267C38.8543 68.7931 37.2879 71.2658 36.2996 73.9611C33.784 70.4689 32.2176 66.2463 31.9871 61.6721H24.8281ZM34.4922 82.6641C36.5977 85.5664 36.3438 89.6524 33.7305 92.2657C30.8321 95.1641 26.1289 95.1641 23.2345 92.2657C20.3361 89.3712 20.3361 84.668 23.2345 81.7697C25.8517 79.1564 29.9376 78.8986 32.8361 81.0041L38.1994 75.6447C39.0353 72.9299 40.5236 70.4299 42.5705 68.383C45.8674 65.0861 50.3361 63.2346 55.0005 63.2346C59.6649 63.2346 64.1333 65.0862 67.4305 68.383C69.4774 70.4299 70.9657 72.9299 71.8016 75.6447L77.161 81.0041C80.0633 78.8986 84.1493 79.1525 86.7626 81.7697C89.6571 84.6681 89.6571 89.3713 86.7626 92.2657C83.8642 95.1641 79.161 95.1641 76.2666 92.2657C73.6533 89.6524 73.3994 85.5665 75.501 82.6641L70.4385 77.6016C66.6221 81.0508 61.6455 83.2422 56.1655 83.5196V90.6719C59.7046 91.2344 62.4155 94.3047 62.4155 98C62.4155 102.098 59.0874 105.422 54.9936 105.422C50.8998 105.422 47.5717 102.098 47.5717 98C47.5717 94.3047 50.2826 91.2344 53.8217 90.6719V83.5196C48.3412 83.2422 43.3647 81.0508 39.5487 77.6016L34.4862 82.6641H34.4922ZM54.9962 60.8911C50.9024 60.8911 47.5743 57.5669 47.5743 53.4692C47.5743 49.3715 50.9024 46.0473 54.9962 46.0473C59.0939 46.0473 62.4181 49.3715 62.4181 53.4692C62.4181 57.5669 59.09 60.8911 54.9962 60.8911Z" fill="white"/>
</svg>
