<?xml version="1.0" encoding="UTF-8"?>
<svg id="Layer_1" data-name="Layer 1" xmlns="http://www.w3.org/2000/svg" viewBox="0 0 100 100">
  <defs>
    <style>
      .cls-1 {
        fill: #c9f21d;
        fill-rule: evenodd;
        stroke-width: 0px;
      }
    </style>
  </defs>
  <path class="cls-1" d="M74.42,28.94c.18-.5.48-.98,1-1.45,1.23-1.12,1.93-2.71,1.83-4.36-.18-3.05-2.49-5.35-5.57-5.35s-5.39,2.3-5.57,5.35c-.1,1.66.6,3.25,1.83,4.36.51.47.82.95,1,1.45h1.44v-2.94c0-.72.58-1.3,1.3-1.3s1.3.58,1.3,1.3v2.94h1.44ZM6.39,3.62h87.58c1.8,0,3.27,1.81,3.27,4.02v71.15c0,2.21-1.47,4.02-3.27,4.02H6.39c-1.8,0-3.27-1.81-3.27-4.02V7.64c0-2.21,1.47-4.02,3.27-4.02h0ZM61.61,91.86l11.52,1.98c1.6.28,2.59,1.2,2.36,2.18-.23.99-1.62,1.71-3.28,1.71H28.14c-1.66,0-3.05-.72-3.28-1.71s.77-1.91,2.36-2.18l11.52-1.98c.79-.14,1.58-.26,2.36-.37l.55-5.75h16.95l.44,5.72c.85.12,1.7.25,2.56.4h0ZM9,10.21h82.35v66.02H9V10.21h0ZM50.45,27.8c-3.03,0-5.48,2.45-5.48,5.48s2.45,5.48,5.48,5.48,5.48-2.45,5.48-5.48-2.45-5.48-5.48-5.48h0ZM55.54,40.77c-1.14,1.71-3,2.82-5.1,2.82s-3.95-1.11-5.1-2.82c-4.56,1.71-7.98,5.63-8.81,10.41h27.82c-.83-4.77-4.25-8.7-8.81-10.41h0ZM32.49,60.1l-.13.34,1.53.59c.04.82.55,1.58,1.36,1.89l1.98.77-.06.15c-.15.4.04.84.44,1,.4.15.84-.04,1-.44l.26-.66,1.96.76c.33.13.7-.04.83-.36.13-.33-.04-.7-.36-.83l-1.96-.76.86-2.21,1.96.76c.33.13.7-.04.83-.36.13-.33-.04-.7-.36-.83l-1.96-.76.29-.75c.15-.4-.04-.84-.44-1-.4-.15-.84.04-1,.44l-.06.15-1.99-.77c-.81-.31-1.7-.09-2.28.49l-1.53-.59-.07.19c-2.63-2.97-4.43-6.59-5.23-10.47-.84-4.09-.55-8.46,1.07-12.65,2.25-5.81,6.64-10.16,11.92-12.49s11.45-2.65,17.26-.4c2.05.79,3.92,1.86,5.59,3.13-.2-.66-.28-1.35-.24-2.06.03-.44.09-.87.19-1.28-1.41-.91-2.94-1.69-4.56-2.32-6.5-2.52-13.41-2.16-19.33.45-5.91,2.61-10.83,7.48-13.35,13.98-1.81,4.68-2.14,9.58-1.2,14.17.96,4.7,3.25,9.07,6.62,12.54.02.02.04.05.06.07l.09.09h.01ZM74.56,34.84c-.54.37-1.42.53-2.3.5-.12,0-.25,0-.37,0,1.56,4.77,1.54,10.09-.41,15.14-1.64,4.22-4.4,7.67-7.81,10.13-3.18,2.29-6.92,3.74-10.83,4.16l.07-.19-1.53-.59c-.04-.82-.55-1.58-1.36-1.89l-1.99-.77.06-.15c.15-.4-.04-.84-.44-1-.4-.15-.84.04-1,.44l-2.32,5.99c-.15.4.04.84.44,1,.4.15.84-.04,1-.44l.06-.15,1.99.77c.81.31,1.7.09,2.28-.49l1.53.59.13-.34c4.88-.26,9.57-1.93,13.49-4.76,3.83-2.76,6.92-6.62,8.75-11.34,2.14-5.53,2.2-11.36.56-16.62h0ZM71.67,32.71c1.26.05,2.52-.47,2.52-1.73,0-.19,0-.38,0-.57h-5.02c0,.19,0,.38,0,.57,0,1.26,1.26,1.78,2.52,1.73Z"/>
</svg>