<?xml version="1.0" encoding="UTF-8"?>
<svg id="Layer_1" data-name="Layer 1" xmlns="http://www.w3.org/2000/svg" viewBox="0 0 100 100">
  <defs>
    <style>
      .cls-1 {
        fill: #c9f21d;
        fill-rule: evenodd;
        stroke-width: 0px;
      }
    </style>
  </defs>
  <path class="cls-1" d="M17.93,51.25c-.6,3.76-3.86,6.64-7.79,6.64-4.35,0-7.89-3.53-7.89-7.89s3.53-7.89,7.89-7.89c3.93,0,7.19,2.88,7.79,6.64h7.6c.29-5.82,2.62-11.11,6.29-15.17l-5.38-5.38c-3.08,2.24-7.42,1.97-10.2-.81-3.08-3.08-3.08-8.08,0-11.15,3.08-3.08,8.08-3.08,11.15,0,2.78,2.78,3.05,7.12.81,10.2l5.38,5.38c4.06-3.67,9.34-5.99,15.17-6.29v-7.6c-3.76-.6-6.64-3.86-6.64-7.79,0-4.35,3.54-7.89,7.89-7.89s7.89,3.53,7.89,7.89c0,3.93-2.88,7.19-6.64,7.79v7.6c5.82.29,11.11,2.62,15.17,6.29l5.38-5.38c-2.24-3.08-1.97-7.43.81-10.2,3.08-3.08,8.08-3.08,11.15,0,3.08,3.08,3.08,8.07,0,11.15-2.78,2.78-7.12,3.05-10.2.81l-5.38,5.38c3.67,4.06,5.99,9.34,6.29,15.17h7.6c.6-3.76,3.86-6.64,7.79-6.64,4.35,0,7.89,3.54,7.89,7.89s-3.53,7.89-7.89,7.89c-3.93,0-7.19-2.88-7.79-6.64h-7.6c-.24,4.86-1.91,9.35-4.58,13.06-1.05-2.86-2.71-5.49-4.91-7.69-2.59-2.59-5.79-4.45-9.27-5.42,2.82-1.86,4.68-5.05,4.68-8.67,0-5.73-4.65-10.38-10.38-10.38s-10.38,4.65-10.38,10.38c0,3.62,1.86,6.81,4.67,8.67-3.47.97-6.67,2.82-9.26,5.42-2.2,2.2-3.86,4.82-4.91,7.69-2.67-3.71-4.34-8.2-4.58-13.06h-7.61ZM28.2,73.55c2.24,3.08,1.97,7.43-.81,10.2-3.08,3.08-8.08,3.08-11.15,0-3.08-3.08-3.08-8.07,0-11.15,2.78-2.78,7.12-3.05,10.2-.81l5.7-5.7c.89-2.88,2.47-5.54,4.64-7.72,3.5-3.5,8.25-5.47,13.21-5.47s9.7,1.97,13.21,5.47c2.18,2.18,3.76,4.83,4.64,7.72l5.7,5.7c3.08-2.24,7.43-1.97,10.2.81,3.08,3.08,3.08,8.08,0,11.15-3.08,3.08-8.08,3.08-11.15,0-2.78-2.78-3.05-7.12-.81-10.2l-5.38-5.38c-4.06,3.67-9.34,5.99-15.17,6.29v7.6c3.76.6,6.64,3.86,6.64,7.79,0,4.35-3.54,7.89-7.89,7.89s-7.89-3.53-7.89-7.89c0-3.93,2.88-7.19,6.64-7.79v-7.6c-5.82-.29-11.11-2.62-15.17-6.29l-5.38,5.38h0ZM49.99,50.42c-4.35,0-7.89-3.53-7.89-7.89s3.54-7.89,7.89-7.89,7.89,3.53,7.89,7.89-3.54,7.89-7.89,7.89Z"/>
</svg>