<svg width="100" height="125" viewBox="0 0 100 125" fill="none" xmlns="http://www.w3.org/2000/svg">
<path d="M51.1 56.9C51.3 58.6 50 60.1 48.2 60.1H39.8L35.4 54C34.1 52.3 32.1 51.2 29.9 51.2C27.8 51.2 25.8 52.2 24.5 54L20.1 60.1H12.1C10.4 60.1 8.99999 58.6 9.19999 56.9L10.2 47.2C10.9 41.5 14.8 36.9 19.9 35.1L20 35C22.8 37.1 26.3 38.4 30.1 38.4C33.9 38.4 37.4 37.2 40.2 35.1H40.4C45.5 37 49.4 41.6 50.1 47.3L51.1 56.9Z" fill="white"/>
<path d="M17.7 21.3C17.7 28.2 23.3 33.8 30.2 33.8C37.1 33.8 42.7 28.2 42.7 21.3C42.7 14.4 37.1 8.79999 30.2 8.79999C23.3 8.79999 17.7 14.4 17.7 21.3Z" fill="white"/>
<path d="M80.0999 72.5H79.9999C77.1999 74.6 73.6999 75.8 69.8999 75.8C66.0999 75.8 62.5999 74.6 59.7999 72.5L59.5999 72.6C54.4999 74.5 50.5999 79.1 49.8999 84.8L48.8999 94.5C48.6999 96.2 50.0999 97.7 51.7999 97.7H87.8999C89.5999 97.7 90.8999 96.2 90.7999 94.5L89.7999 84.9C89.0999 79 85.2999 74.4 80.0999 72.5Z" fill="white"/>
<path d="M57.2999 58.7C57.2999 65.6 62.8999 71.2 69.7999 71.2C76.6999 71.2 82.2999 65.6 82.2999 58.7C82.2999 51.8 76.6999 46.2 69.7999 46.2C62.8999 46.2 57.2999 51.8 57.2999 58.7Z" fill="white"/>
<path d="M39.9 73.7H35.8C36.1 80.1 38.4 86 42.2 90.7C42.7 91.3 42.2 92.2 41.4 92.1C32 90.9 24.7 83.2 24.2 73.7H20C18.3 73.7 17.3 71.8 18.3 70.4L28.2 56.7C29 55.6 30.7 55.6 31.5 56.7L41.4 70.4C42.5 71.8 41.5 73.7 39.9 73.7Z" fill="white"/>
<path d="M69.8 2.5C59.4 2.5 51 10.9 51 21.3C51 31.7 59.4 40.1 69.8 40.1C80.2 40.1 88.6 31.7 88.6 21.3C88.6 10.9 80.2 2.5 69.8 2.5ZM78.7 18.6L68.8 28.5C68.3 29 67.7 29.2 67.1 29.2C66.5 29.2 66 29 65.6 28.5L60.7 23.6C59.8 22.7 59.8 21.2 60.7 20.3C61.6 19.4 63.1 19.4 64 20.3L67.3 23.6L75.5 15.4C76.4 14.5 77.9 14.5 78.8 15.4C79.7 16.2 79.7 17.7 78.7 18.6Z" fill="white"/>
</svg>
