<svg width="512" height="641" viewBox="0 0 512 641" fill="none" xmlns="http://www.w3.org/2000/svg">
<path fill-rule="evenodd" clip-rule="evenodd" d="M472.445 36.0959H39.5553C29.4462 36.0959 21.1562 44.3849 21.1562 54.4949V349.914C21.1562 360.024 29.4453 368.313 39.5553 368.313H472.445C482.554 368.313 490.844 360.023 490.844 349.914V54.4949C490.844 44.3859 482.555 36.0959 472.445 36.0959ZM433.668 78.6729C440.575 78.6729 446.245 84.3419 446.245 91.2499V313.159C446.245 320.067 440.575 325.736 433.668 325.736H78.3323C71.4253 325.736 65.7552 320.067 65.7552 313.159V91.2499C65.7552 84.3419 71.4253 78.6729 78.3323 78.6729H433.668ZM78.3323 68.6729H433.667C446.093 68.6729 456.244 78.8219 456.244 91.2499V313.159C456.244 325.587 446.094 335.736 433.667 335.736H78.3323C65.9053 335.736 55.7552 325.587 55.7552 313.159V91.2499C55.7562 78.8229 65.9053 68.6729 78.3323 68.6729ZM354.461 439.514H157.539C154.126 439.514 151.315 442.325 151.315 445.738V470.681C151.315 474.094 154.126 476.905 157.539 476.905H354.461C357.874 476.905 360.685 474.095 360.685 470.681V445.738C360.685 442.324 357.874 439.514 354.461 439.514ZM286.724 429.514L276.185 378.313H235.813L225.275 429.514H286.724ZM318.734 139.47C353.38 174.116 353.38 230.293 318.734 264.939C284.088 299.585 227.911 299.585 193.265 264.939C158.619 230.293 158.619 174.116 193.265 139.47C227.912 104.824 284.088 104.824 318.734 139.47ZM256 103.486C310.52 103.486 354.719 147.685 354.719 202.205C354.719 256.725 310.52 300.924 256 300.924C201.48 300.924 157.281 256.725 157.281 202.205C157.281 147.685 201.48 103.486 256 103.486ZM396.062 252.468L389.969 263.021C388.405 265.727 389.681 269.171 392.609 270.219L392.606 270.228L421.271 280.454L410.416 299.255L387.985 278.614C385.957 276.748 382.801 276.879 380.934 278.907L373.456 291.622L365.182 260.742L396.062 252.468ZM357.778 252.387L405.118 239.702C409.352 238.569 413.083 243.15 410.615 247.214L401.602 262.825L430.257 273.047C433.192 274.094 434.625 277.565 432.663 280.634L415.929 309.618C414.327 312.399 410.581 312.95 408.241 310.801L408.234 310.809L385.81 290.175L376.067 307.05C373.843 310.897 368.071 310.098 366.932 305.838L366.927 305.839L354.243 258.5C353.531 255.836 355.114 253.099 357.778 252.387ZM260.474 232.217V239.524C260.474 246.107 250.474 246.107 250.474 239.524V232.226H242.751C236.168 232.226 236.168 222.226 242.751 222.226H259.919C266.484 222.226 270.003 214.198 265.22 209.415C263.857 208.052 261.979 207.205 259.919 207.205C252.113 207.205 245.766 208.12 239.712 202.065C229.142 191.495 235.902 173.597 250.475 172.258V164.887C250.475 158.304 260.475 158.304 260.475 164.887V172.185H269.251C275.834 172.185 275.834 182.185 269.251 182.185H252.083C245.518 182.185 241.999 190.212 246.783 194.996C248.147 196.359 250.023 197.206 252.083 197.206C259.888 197.206 266.236 196.292 272.291 202.346C283.189 213.244 275.62 231.74 260.474 232.217ZM301.852 156.353C327.174 181.675 327.174 222.734 301.852 248.057C276.529 273.379 235.471 273.379 210.148 248.057C184.826 222.735 184.826 181.675 210.148 156.353C235.471 131.03 276.529 131.031 301.852 156.353ZM256 127.361C297.334 127.361 330.844 160.871 330.844 202.205C330.844 243.539 297.334 277.049 256 277.049C214.666 277.049 181.156 243.539 181.156 202.205C181.156 160.871 214.667 127.361 256 127.361Z" fill="white"/>
</svg>
