<svg width="110" height="135" viewBox="0 0 110 135" fill="none" xmlns="http://www.w3.org/2000/svg">
<path fill-rule="evenodd" clip-rule="evenodd" d="M20.3361 10H89.6641C94.086 10 96.9961 13.2148 98.875 17.2148L105 30.2618H5L11.125 17.2148C13.0039 13.2148 15.9143 10 20.3361 10ZM99.1911 52.484V98.57C99.1911 99.0075 98.8356 99.363 98.3981 99.363H90.4958C90.0583 99.363 89.7029 99.0075 89.7029 98.57V66.535C89.7029 63.0428 86.8435 60.1873 83.3552 60.1873H70.3632C66.871 60.1873 64.0155 63.0467 64.0155 66.535V98.57C64.0155 99.0075 63.66 99.363 63.2225 99.363H11.6015C11.164 99.363 10.8085 99.0075 10.8085 98.57V52.484C10.8085 52.3668 10.8515 52.2692 10.9413 52.191C11.0273 52.1129 11.1327 52.0777 11.246 52.0895C11.5468 52.1207 11.8554 52.1363 12.164 52.1363C14.7695 52.1363 17.1015 50.9879 18.7109 49.1793C18.8671 49.0036 19.0664 48.9137 19.3007 48.9137C19.5351 48.9137 19.7382 49.0036 19.8906 49.1793C21.5 50.9879 23.832 52.1363 26.4375 52.1363C29.043 52.1363 31.375 50.9879 32.9844 49.1793C33.1406 49.0036 33.3398 48.9137 33.5742 48.9137C33.8086 48.9137 34.0078 49.0036 34.164 49.1793C35.7734 50.9879 38.1093 52.1363 40.7109 52.1363C43.3164 52.1363 45.6485 50.9879 47.2579 49.1793C47.4141 49.0036 47.6133 48.9137 47.8477 48.9137C48.0821 48.9137 48.2852 49.0036 48.4375 49.1793C50.0469 50.9879 52.3789 52.1363 54.9844 52.1363C57.5899 52.1363 59.9219 50.9879 61.5313 49.1793C61.6876 49.0036 61.8868 48.9137 62.1212 48.9137C62.3555 48.9137 62.5587 49.0036 62.711 49.1793C64.3204 50.9879 66.6524 52.1363 69.2579 52.1363C71.8634 52.1363 74.1954 50.9879 75.8048 49.1793C75.9611 49.0036 76.1603 48.9137 76.3946 48.9137C76.629 48.9137 76.8321 49.0036 76.9845 49.1793C78.5939 50.9879 80.9259 52.1363 83.5314 52.1363C86.1369 52.1363 88.4689 50.9879 90.0783 49.1793C90.2345 49.0036 90.4338 48.9137 90.6681 48.9137C90.9025 48.9137 91.1056 49.0036 91.258 49.1793C92.8674 50.9879 95.2033 52.1363 97.8049 52.1363C98.1135 52.1363 98.4221 52.1207 98.7228 52.0895C98.84 52.0778 98.9416 52.1129 99.0314 52.1871C99.1174 52.2653 99.1603 52.3668 99.1603 52.4801L99.1911 52.484ZM23.2851 89.129H49.6051C50.0504 89.129 50.4098 88.7657 50.4098 88.3243V65.1953C50.4098 64.75 50.0465 64.3906 49.6051 64.3906H23.2851C22.8437 64.3906 22.4804 64.7539 22.4804 65.1953V88.3243C22.4804 88.7657 22.8437 89.129 23.2851 89.129ZM6.4141 102.93H103.59C103.809 102.93 103.985 103.11 103.985 103.325V109.602C103.985 109.821 103.805 109.996 103.59 109.996H6.4141C6.19535 109.996 6.01957 109.817 6.01957 109.602V103.325C6.01957 103.106 6.19926 102.93 6.4141 102.93ZM85.2111 76.114C86.3556 76.114 87.2892 77.0437 87.2892 78.1882C87.2892 79.3366 86.3595 80.2663 85.2111 80.2663C84.0666 80.2663 83.1369 79.3366 83.1369 78.1882C83.1369 77.0437 84.0666 76.114 85.2111 76.114ZM5.0311 33.774H104.976V41.2935C104.976 45.2701 101.765 48.5201 97.8355 48.5201C95.4293 48.5201 93.2886 47.2974 91.9957 45.4381C91.691 45.0006 91.2301 44.7584 90.6988 44.7584C90.1636 44.7584 89.7066 45.0006 89.4019 45.4381C88.1089 47.2975 85.9683 48.5201 83.5621 48.5201C81.1559 48.5201 79.0152 47.2974 77.7223 45.4381C77.4176 45.0006 76.9567 44.7584 76.4254 44.7584C75.8902 44.7584 75.4332 45.0006 75.1285 45.4381C73.8355 47.2975 71.6949 48.5201 69.2887 48.5201C66.8825 48.5201 64.7418 47.2974 63.4489 45.4381C63.1442 45.0006 62.6833 44.7584 62.152 44.7584C61.6168 44.7584 61.1598 45.0006 60.8551 45.4381C59.5621 47.2975 57.4215 48.5201 55.0153 48.5201C52.6091 48.5201 50.4684 47.2974 49.1755 45.4381C48.8708 45.0006 48.4099 44.7584 47.8786 44.7584C47.3434 44.7584 46.8864 45.0006 46.5817 45.4381C45.2887 47.2975 43.1481 48.5201 40.7419 48.5201C38.3357 48.5201 36.1989 47.2974 34.9021 45.4381C34.5974 45.0006 34.1365 44.7584 33.6052 44.7584C33.07 44.7584 32.613 45.0006 32.3083 45.4381C31.0153 47.2975 28.8747 48.5201 26.4685 48.5201C24.0623 48.5201 21.9216 47.2974 20.6287 45.4381C20.324 45.0006 19.8631 44.7584 19.3318 44.7584C18.7966 44.7584 18.3396 45.0006 18.0349 45.4381C16.738 47.2975 14.6013 48.5201 12.1951 48.5201C8.2693 48.5201 5.0545 45.2662 5.0545 41.2935V33.774H5.0311Z" fill="white"/>
</svg>
