<svg width="95" height="119" viewBox="0 0 95 119" fill="none" xmlns="http://www.w3.org/2000/svg">
<g clip-path="url(#clip0_90_13)">
<path fill-rule="evenodd" clip-rule="evenodd" d="M73.874 30.258L74.791 30.541L77.63 31.42L77.672 34.392L77.713 37.363L74.901 38.321L73.992 38.631C73.5671 40.5876 72.8239 42.4612 71.792 44.177L72.238 45.024L73.624 47.654L71.552 49.783L69.481 51.914L66.809 50.6L65.95 50.176C64.2642 51.2582 62.4118 52.0555 60.467 52.536L60.184 53.455L59.305 56.3L56.333 56.342L53.362 56.385L52.4 53.566L52.09 52.656C50.1333 52.2316 48.2596 51.4884 46.544 50.456L45.7 50.9L43.07 52.287L40.94 50.214L38.811 48.142L40.122 45.474L40.544 44.615C39.4629 42.9296 38.6663 41.0779 38.186 39.134L37.267 38.849L34.43 37.97L34.387 35L34.345 32.028L37.159 31.07L38.069 30.762C38.4931 28.8042 39.2363 26.9295 40.269 25.213L39.824 24.367L38.44 21.738L40.511 19.607L42.583 17.476L45.249 18.787L46.108 19.21C47.7946 18.1289 49.6472 17.332 51.592 16.851L51.876 15.934L52.755 13.093L55.726 13.052L58.696 13.01L59.654 15.824L59.964 16.733C61.9224 17.1583 63.7972 17.9036 65.513 18.939L66.359 18.492L68.987 17.105L71.118 19.176L73.249 21.248L71.936 23.916L71.515 24.773C72.5961 26.46 73.393 28.3129 73.874 30.258ZM29.93 76.461H35.069L35.36 76.493C36.974 76.904 39.128 77.461 41.099 77.971C51.039 80.539 55.614 81.723 59.422 80.871C62.661 80.143 65.655 77.871 71.203 73.671C73.93 71.6 77.25 69.078 81.4 66.129C82.1967 65.5691 82.7424 64.7194 82.92 63.762C83.1008 62.7263 82.9061 61.66 82.371 60.755C82.333 60.692 82.294 60.627 82.252 60.565C81.9997 60.2059 81.6779 59.9011 81.3056 59.6685C80.9334 59.436 80.5184 59.2804 80.085 59.211C79.1505 59.0469 78.1879 59.2157 77.365 59.688C77.286 59.733 77.206 59.788 77.127 59.836L64.111 68.658C64.0933 69.1054 64.0262 69.5494 63.911 69.982C63.7005 70.7664 63.3372 71.5015 62.842 72.1452C62.3467 72.7889 61.7293 73.3285 61.025 73.733C60.3236 74.1411 59.5484 74.4066 58.744 74.514C57.9396 74.6214 57.122 74.5687 56.338 74.359L37.317 69.265C37.0188 69.1765 36.767 68.9751 36.615 68.7037C36.4631 68.4323 36.4231 68.1123 36.5035 67.8118C36.5839 67.5113 36.7783 67.2541 37.0455 67.0948C37.3127 66.9355 37.6315 66.8868 37.934 66.959L56.947 72.054C57.4293 72.1833 57.9323 72.2163 58.4274 72.1512C58.9224 72.0861 59.3998 71.9241 59.8322 71.6745C60.2647 71.4249 60.6437 71.0926 60.9477 70.6965C61.2517 70.3004 61.4747 69.8483 61.604 69.366C61.7333 68.8837 61.7663 68.3807 61.7012 67.8857C61.6361 67.3906 61.4741 66.9132 61.2245 66.4808C60.9749 66.0484 60.6426 65.6693 60.2465 65.3653C59.8504 65.0613 59.3983 64.8383 58.916 64.709L39.9 59.615L33.6 57.925C31.8477 57.4603 29.9839 57.6844 28.3917 58.5513C26.7994 59.4182 25.5997 60.862 25.039 62.586L25.072 62.672L29.772 75.872C29.8412 76.0638 29.8954 76.2608 29.934 76.461H29.93ZM20.53 62.382C20.7525 62.303 20.9884 62.2686 21.2242 62.281C21.46 62.2933 21.691 62.3521 21.904 62.454C22.1159 62.5536 22.3058 62.6942 22.4629 62.8678C22.62 63.0413 22.741 63.2443 22.819 63.465L27.519 76.665C27.6773 77.1127 27.6523 77.6047 27.4494 78.034C27.2466 78.4633 26.8823 78.795 26.436 78.957L17.915 81.99L12.015 65.412L20.532 62.382H20.53ZM63.53 26.982C62.0035 25.4978 60.0711 24.4997 57.9773 24.1138C55.8834 23.7279 53.7222 23.9717 51.7669 24.8142C49.8116 25.6568 48.1501 27.0602 46.9925 28.8472C45.8349 30.6341 45.2332 32.7241 45.2636 34.853C45.2939 36.9819 45.9549 39.054 47.163 40.8072C48.3711 42.5603 50.0719 43.9159 52.0505 44.7023C54.029 45.4888 56.1963 45.6708 58.2783 45.2254C60.3603 44.78 62.2634 43.7271 63.747 42.2C64.7325 41.1865 65.5088 39.9888 66.0314 38.6753C66.554 37.3618 66.8127 35.9582 66.7929 34.5447C66.773 33.1312 66.4749 31.7354 65.9156 30.4371C65.3562 29.1388 64.5466 27.9634 63.533 26.978L63.53 26.982Z" fill="white"/>
</g>
<defs>
<clipPath id="clip0_90_13">
<rect width="95" height="118.75" fill="white"/>
</clipPath>
</defs>
</svg>
