<svg width="36" height="44" viewBox="0 0 36 44" fill="none" xmlns="http://www.w3.org/2000/svg">
<path fill-rule="evenodd" clip-rule="evenodd" d="M28.7034 5.40209C23.6654 8.12109 9.67544 15.6701 4.65644 18.3781C3.98044 18.7431 3.57344 19.4611 3.60744 20.2281C3.64244 20.9941 4.11244 21.6741 4.81744 21.9761L11.5954 24.8851L11.5624 29.1361C11.5554 29.9631 12.0594 30.7101 12.8304 31.0121C13.6004 31.3151 14.4784 31.1121 15.0374 30.5021L17.9004 27.3741L25.1974 29.7891C25.7454 29.9711 26.3464 29.9061 26.8434 29.6111C27.3414 29.3171 27.6874 28.8221 27.7924 28.2531L31.6194 7.52608C31.7594 6.76908 31.4524 5.99909 30.8304 5.54509C30.2074 5.09209 29.3804 5.03709 28.7034 5.40209ZM29.3434 8.84108L25.8254 27.8901L17.9144 25.2721C17.5404 25.1481 17.1284 25.2561 16.8624 25.5461L13.5624 29.1511L13.5974 24.6441L29.3434 8.84108ZM5.60545 20.1381L12.3714 23.0411L26.4934 8.86709L5.60545 20.1381Z" fill="white"/>
</svg>
