<svg width="100" height="125" viewBox="0 0 100 125" fill="none" xmlns="http://www.w3.org/2000/svg">
<path d="M77.8492 43.341C77.6268 42.9132 77.2911 42.5549 76.8788 42.305C76.4665 42.0552 75.9935 41.9236 75.5114 41.9245H53.3155L59.615 7.5079C59.7024 7.03123 59.6241 6.539 59.3929 6.11306C59.1618 5.68711 58.7918 5.35312 58.3445 5.16661C57.8972 4.9801 57.3996 4.95232 56.9343 5.08789C56.469 5.22345 56.0642 5.5142 55.7871 5.91177L22.325 53.9304C22.0494 54.3259 21.8876 54.7893 21.8569 55.2703C21.8262 55.7513 21.928 56.2315 22.1511 56.6588C22.3742 57.086 22.7102 57.444 23.1224 57.6937C23.5347 57.9434 24.0075 58.0754 24.4895 58.0753H46.6848L40.3853 92.4919C40.2951 92.9689 40.3723 93.4625 40.604 93.8892C40.8357 94.3158 41.2076 94.6494 41.6568 94.8336C41.9176 94.9429 42.1976 94.9993 42.4804 94.9996C42.8215 94.9994 43.1574 94.9163 43.4593 94.7575C43.7611 94.5987 44.0199 94.369 44.2133 94.088L77.6753 46.0694C77.9515 45.6742 78.1139 45.2107 78.1445 44.7295C78.1752 44.2484 78.073 43.768 77.8492 43.341ZM45.1517 86.4448L51.0031 54.4758H26.3326L54.8486 13.555L48.9973 45.524H73.6677L45.1517 86.4448Z" fill="white"/>
</svg>
