<svg width="512" height="640" viewBox="0 0 512 640" fill="none" xmlns="http://www.w3.org/2000/svg">
<path fill-rule="evenodd" clip-rule="evenodd" d="M239.7 31H272.2C285 31 295.3 41.4 295.3 54.1V66.7C295.3 72 298.6 76.3 303.8 77.7C319.4 81.9 334.3 88 348.2 96.1C352.8 98.8 358.2 98.1 362 94.3L370.9 85.4C379.9 76.4 394.6 76.4 403.6 85.4L426.6 108.4C435.7 117.5 435.5 132.5 426.6 141.1L417.4 150.3C413.9 153.8 413.3 159.4 415.8 163.8C423.8 177.7 430.1 192.7 434.2 208.2C435.6 213.3 440 216.7 445.2 216.7H457.8C470.5 216.7 480.9 227 480.9 239.8V272.3C480.9 285 470.5 295.4 457.8 295.4H445.2C439.9 295.4 435.6 298.7 434.2 303.8C430.1 319.4 423.8 334.4 415.8 348.2C412.9 353.2 414 358.1 417.9 362.3L426.5 370.9C431 375.4 433.2 381.3 433.2 387.2C433.2 393 430.9 399.2 426.5 403.5L403.5 426.5C399 431 393.1 433.2 387.1 433.2C381.1 433.2 374.8 430.8 370.5 426.1L361.9 417.5C358.2 413.8 352.7 413 348.1 415.7C334.2 423.8 319.3 430 303.7 434.1C298.6 435.5 295.2 439.8 295.2 445.1V457.7C295.2 470.4 284.8 480.8 272.1 480.8H239.6C226.9 480.8 216.5 470.5 216.5 457.7V445.1C216.5 439.8 213.2 435.4 208.1 434.1C192.5 429.9 177.6 423.7 163.7 415.7C159.1 413.1 153.7 413.8 149.9 417.5L140.6 426.8C131.7 435.5 116.8 435.2 108.3 426.4L85.3 403.4C76.3 394.4 76.3 379.8 85.3 370.7L94.3 361.8C98 358 98.8 352.6 96.1 348C88 334.1 81.8 319.2 77.7 303.6C76.3 298.5 72 295.2 66.7 295.2H54.1C41.3 295.4 31 285 31 272.3V239.8C31 227.1 41.4 216.7 54.1 216.7H66.7C72 216.7 76.4 213.4 77.7 208.2C81.9 192.7 88.1 177.6 96.1 163.8C98.7 159.2 98 153.8 94.3 150L85 140.7C76.3 131.8 76.6 116.9 85.3 108.4L108.3 85.4C112.8 80.9 118.7 78.7 124.6 78.7C130.7 78.7 136.3 80.9 140.9 85.4L149.8 94.3C153.6 98.1 159 98.8 163.6 96.1C177.5 88 192.4 81.9 208 77.7C213.1 76.3 216.4 71.9 216.4 66.7V54.1C216.6 41.4 227 31 239.7 31ZM272.2 42.7H239.7C233.4 42.7 228.3 47.8 228.3 54.1V66.7C228.3 77.2 221.3 86.3 211.2 89C196.6 92.9 182.6 98.7 169.6 106.2C160.5 111.5 149.2 110 141.7 102.6L132.7 93.7C130.5 91.5 127.5 90.4 124.6 90.4C121.8 90.4 119 91.4 116.8 93.5C109.4 101.4 101.2 109.1 93.6 116.7C89.2 121.1 89.3 128.5 93.4 132.6C96.5 135.5 99.6 138.8 102.6 141.8C110.1 149.3 111.5 160.6 106.3 169.7C98.7 182.7 93 196.5 89 211.2C86.3 221.4 77.2 228.3 66.7 228.3H54.1C47.8 228.3 42.7 233.5 42.7 239.7V272.2C42.7 278.5 47.8 283.6 54.1 283.6H66.7C77.2 283.6 86.3 290.6 89 300.7C92.9 315.3 98.7 329.3 106.2 342.3C111.5 351.4 110 362.7 102.5 370.2L93.6 379.1C89.1 383.6 89.2 391 93.6 395.3L116.6 418.3C121.1 422.7 128.4 422.6 132.5 418.5C135.4 415.4 138.7 412.3 141.7 409.3C149.2 401.8 160.5 400.4 169.6 405.6C182.6 413.1 196.6 418.9 211.2 422.8C221.4 425.5 228.3 434.6 228.3 445.1V457.7C228.3 464 233.4 469.1 239.7 469.1H272.2C278.5 469.1 283.6 464 283.6 457.7V445.1C283.6 434.6 290.5 425.5 300.7 422.8C315.3 418.9 329.3 413.1 342.3 405.6C351.4 400.3 362.7 401.8 370.1 409.3L379.1 418.2C381.3 420.4 384.3 421.5 387.2 421.5C390.1 421.5 393.1 420.4 395.3 418.2L418.3 395.2C420.5 393 421.6 390 421.6 387.1C421.6 384.3 420.5 381.1 418.3 379C411.4 371.5 404.2 367.4 402.8 356.7C402.1 351.8 403.1 346.7 405.7 342.1C413.2 329 419 315.1 422.9 300.5C425.6 290.3 434.7 283.4 445.2 283.4H457.8C464.1 283.4 469.2 278.3 469.2 272V239.5C469.2 233.2 464.1 228.1 457.8 228.1H445.2C434.7 228.1 425.6 221.2 422.9 211C419 196.3 413.2 182.5 405.7 169.4C400.4 160.3 401.9 149 409.3 141.5L418.3 132.6C422.7 128.1 422.7 120.9 418.3 116.4L395.3 93.4C390.8 89 383.6 89 379.2 93.4L370.2 102.4C362.8 109.8 351.5 111.3 342.3 106C329.3 98.5 315.3 92.7 300.7 88.8C290.5 86.1 283.6 77 283.6 66.5V54.1C283.7 47.8 278.5 42.7 272.2 42.7ZM256 112.1C335.5 112.1 399.9 176.5 399.9 256C399.9 335.5 335.5 399.9 256 399.9C176.5 399.9 112.1 335.5 112.1 256C112.1 176.5 176.5 112.1 256 112.1ZM349.5 162.5C346.1 159.1 342.6 155.9 338.8 152.9L312 198.1L323.3 223.2C324.1 225 323.9 226.9 323 228.5L279 303.8C278.4 304.8 277.6 305.6 276.6 306.1L265.2 312.1L248.8 350.5L269.2 362.3L294.2 328.9L293.7 316C293.7 314.9 294 313.8 294.5 312.9L338.4 237.6C339.3 236.1 340.7 235.1 342.3 234.8L373.1 227.3L380.9 213.4C374.5 193.9 363.6 176.6 349.5 162.5ZM141.3 321.9C148.7 334.7 158.1 346.1 169.2 355.8L190.1 319.6L213.7 278.8C214.7 276.9 216.7 275.6 219 275.7C256.7 276.6 281.4 236.6 263.8 203.3L241.1 242.7C234.4 254.4 219.2 251.9 208.9 246C198.5 240 189 228.1 195.7 216.5L218.4 177.1C180.8 178.5 158.5 219.9 178.1 252.1C179.1 253.9 179.3 256.1 178.2 258L141.3 321.9Z" fill="white"/>
</svg>
