<?xml version="1.0" encoding="UTF-8"?>
<svg id="Layer_1" data-name="Layer 1" xmlns="http://www.w3.org/2000/svg" viewBox="0 0 100 100">
  <defs>
    <style>
      .cls-1 {
        fill: #c9f21d;
        stroke-width: 0px;
      }
    </style>
  </defs>
  <path class="cls-1" d="M61.98,52.26c0,.97-.79,1.76-1.76,1.76s-1.76-.79-1.76-1.76.79-1.76,1.76-1.76,1.76.79,1.76,1.76ZM63.93,55.78c-.76-.21-1.57.18-1.88.91-.34.79-.87,1.11-1.83,1.11s-1.49-.32-1.83-1.11c-.32-.73-1.12-1.12-1.88-.91-1.06.3-1.97.9-2.7,1.79-.38-.86-.6-1.82-.6-2.82,0-3.87,3.14-7.01,7.01-7.01s7.01,3.14,7.01,7.01c0,1-.21,1.96-.6,2.82-.73-.89-1.64-1.5-2.7-1.79h0ZM63.84,52.26c0-2-1.62-3.62-3.62-3.62s-3.62,1.62-3.62,3.62,1.62,3.62,3.62,3.62,3.62-1.62,3.62-3.62ZM60.22,59.79c-1.61,0-2.81-.68-3.5-1.98-.7.28-1.28.8-1.75,1.57,1.29,1.46,3.16,2.38,5.25,2.38s3.97-.92,5.25-2.38c-.48-.77-1.05-1.29-1.75-1.57-.69,1.3-1.89,1.98-3.5,1.98ZM67.26,42.21c-1.34-.55-2.54-1.34-3.54-2.32l-2.12,5.95c2.28.35,4.28,1.56,5.66,3.29v-6.93h0ZM80.43,32.02c0,1.43-.34,2.79-.94,4.01-.93-1.25-2.1-2.09-3.5-2.48-.83-.23-1.71.2-2.05.99-.47,1.08-1.22,1.54-2.52,1.54s-2.05-.46-2.52-1.54c-.34-.8-1.23-1.22-2.06-.99-1.4.39-2.57,1.22-3.5,2.48-.6-1.22-.94-2.58-.94-4.01,0-3.89,2.48-7.33,6.17-8.55.91-.3,1.87-.46,2.84-.46s1.93.15,2.84.46c3.69,1.23,6.17,4.66,6.17,8.55h0ZM75.04,29.16c0-2-1.62-3.62-3.62-3.62s-3.62,1.62-3.62,3.62,1.62,3.62,3.62,3.62,3.62-1.62,3.62-3.62ZM57.8,7.74c.06,0,.12,0,.18.02.01,0,.02,0,.03,0,.05.01.09.02.14.04.02,0,.04.02.05.02.04.02.07.04.11.06.02.01.03.02.05.03.04.03.09.07.13.11l10.5,10.5s.07.08.1.12c.01.02.02.03.03.05.02.04.04.07.05.11,0,.02.02.04.02.05.02.05.03.09.04.14,0,.01,0,.02,0,.03.01.06.02.12.02.18,0,0,0,.02,0,.02v2.01c.71-.14,1.43-.21,2.16-.21s1.45.07,2.16.21v-5.35h0V3.98c0-.3-.25-.55-.56-.55h-33.9c-.3,0-.55.25-.55.55v3.77h19.21s.01,0,.02,0h0ZM71.41,27.01c-1.18,0-2.14.96-2.14,2.14s.96,2.14,2.14,2.14,2.14-.96,2.14-2.14-.96-2.14-2.14-2.14ZM82.61,50.49c-.97,0-1.76.79-1.76,1.76s.79,1.76,1.76,1.76,1.76-.79,1.76-1.76-.79-1.76-1.76-1.76ZM69.25,42.82v12.69h3.77c.3,0,.55-.25.55-.55v-12.14c-.71.14-1.43.21-2.16.21s-1.45-.07-2.16-.21h0ZM86.32,55.78c-.76-.21-1.57.18-1.88.91-.34.79-.87,1.11-1.83,1.11s-1.49-.32-1.83-1.11c-.32-.73-1.12-1.12-1.88-.91-1.06.3-1.97.9-2.7,1.79-.38-.86-.6-1.82-.6-2.82,0-3.86,3.14-7.01,7.01-7.01,3.86,0,7.01,3.14,7.01,7.01,0,1-.21,1.96-.6,2.82-.73-.89-1.64-1.5-2.7-1.79h0ZM86.23,52.26c0-2-1.62-3.62-3.62-3.62s-3.62,1.62-3.62,3.62,1.62,3.62,3.62,3.62,3.62-1.62,3.62-3.62ZM78.3,37.85c-.69-1.18-1.55-1.95-2.63-2.3-.81,1.68-2.24,2.54-4.25,2.54s-3.45-.85-4.25-2.54c-1.07.36-1.94,1.12-2.63,2.3,1.04,1.23,2.43,2.2,4.04,2.73.91.3,1.87.46,2.84.46s1.93-.15,2.84-.46c1.61-.54,3-1.5,4.04-2.73h0ZM82.61,59.79c-1.61,0-2.81-.68-3.5-1.98-.7.28-1.28.8-1.75,1.57,1.29,1.46,3.16,2.38,5.25,2.38s3.97-.92,5.25-2.38c-.48-.77-1.05-1.29-1.75-1.57-.69,1.3-1.89,1.98-3.5,1.98ZM75.57,42.21v6.93c1.38-1.73,3.38-2.94,5.66-3.29l-2.12-5.95c-1,.98-2.2,1.77-3.54,2.32h0ZM13.53,65.43v-11.03h-3.39v11.03h3.39ZM73.8,90.81H25.44c-.86,0-1.66.33-2.26.93s-.93,1.4-.93,2.26c0,1.75,1.43,3.18,3.18,3.18h48.35c.86,0,1.66-.33,2.26-.93s.93-1.4.93-2.26c0-1.75-1.43-3.18-3.18-3.18ZM49.62,70.89c.05,0,.09-.04.09-.09s-.04-.09-.09-.09-.09.04-.09.09.04.09.09.09ZM58.81,18.23h7.03l-7.07-7.07v7.04s.02.04.04.04h0ZM91.54,16.87h-15.98v4.96c4.12,1.68,6.85,5.68,6.85,10.19,0,2.22-.66,4.32-1.83,6.08l2.73,7.67c4.63.37,8.29,4.25,8.29,8.98,0,1.95-.63,3.76-1.69,5.24-.04.06-.07.11-.12.16-1.64,2.19-4.26,3.6-7.2,3.6s-5.55-1.42-7.2-3.6c-.05-.05-.09-.11-.12-.16-.58-.8-1.02-1.71-1.31-2.68-.3.12-.62.19-.96.19h-4.23c-.29.9-.71,1.73-1.26,2.49-.04.06-.07.11-.12.16-1.64,2.19-4.26,3.6-7.2,3.6h-11.47v1.73h43.98V18.05c0-.65-.53-1.18-1.18-1.18h0ZM6.51,67.48h86.22v5.04c0,.65-.53,1.18-1.18,1.18h-32.43s-.04,0-.06,0h-18.82s-.04,0-.06,0H7.7c-.65,0-1.18-.54-1.18-1.19v-5.04h0ZM47.53,70.8c0,1.15.94,2.09,2.09,2.09s2.09-.94,2.09-2.09-.94-2.09-2.09-2.09-2.09.94-2.09,2.09ZM41.02,75.69l-3.06,13.12h23.36l-3.06-13.12h-17.24,0ZM35.68,65.43v-22.97h-3.39v22.97h3.39ZM46.75,65.43v-28.93h-3.39v28.93h3.39ZM8.14,53.4c0-.55.45-1,1-1h5.39c.55,0,1,.45,1,1v12.08h3.69v-18.04c0-.55.45-1,1-1h5.39c.55,0,1,.45,1,1v18.04h3.69v-24.01c0-.55.45-1,1-1h5.39c.55,0,1,.45,1,1v24.01h3.69v-29.98c0-.55.45-1,1-1h5.39c.55,0,1,.45,1,1v26.26h5.83c-.58-.47-1.11-1.01-1.55-1.61-.05-.05-.09-.11-.12-.16-1.06-1.48-1.69-3.29-1.69-5.24,0-4.73,3.66-8.61,8.29-8.98l2.73-7.67c-1.16-1.76-1.82-3.86-1.82-6.08,0-4.51,2.72-8.51,6.85-10.19v-1.61h-8.45c-1.12,0-2.04-.91-2.04-2.03v-8.45h-23.97c-.3,0-.55.25-.55.55v23.97c3.34-1.79,6.67-3.73,9.97-5.83l-.85-.06c-.55-.04-.96-.52-.93-1.06.04-.55.51-.96,1.06-.93l3.85.26s.09,0,.12.02c0,0,.02,0,.02,0,.05.01.1.03.15.05,0,0,.02,0,.03.01.05.02.1.05.14.08.01,0,.02.02.03.02.05.03.09.07.13.11,0,0,.01.02.02.02.04.04.08.09.11.14h0s0,0,0,0c.03.05.06.1.08.16,0,.01,0,.02.01.03.02.05.04.11.05.16,0,.01,0,.03,0,.04,0,.05.02.11.02.16v.02c0,.05,0,.11-.02.16,0,0,0,.02,0,.03,0,.04-.02.09-.04.13l-1.32,3.63c-.15.41-.53.66-.94.66-.11,0-.23-.02-.34-.06-.52-.19-.79-.76-.6-1.28l.3-.84c-3.84,2.44-7.71,4.67-11.59,6.7-.04.02-.08.05-.12.07-5.89,3.07-11.82,5.65-17.73,7.72-.11.04-.22.05-.33.05-.41,0-.8-.26-.94-.67-.18-.52.09-1.09.61-1.27,5.67-1.99,11.36-4.46,17.02-7.38v-18.45H7.69c-.65,0-1.18.53-1.18,1.18v47.43h1.63v-12.08h0ZM24.61,65.43v-17h-3.39v17h3.39Z"/>
</svg>