<svg id="Layer_1" data-name="Layer 1" xmlns="http://www.w3.org/2000/svg" viewBox="0 0 100 100" height="100px" width="100px" transform="rotate(0) scale(1, 1)">
  <defs>
    <style>.cls-1 { fill: #ffffff; stroke-width: 0px; }</style>
  </defs>
  <path class="cls-1" d="M75.43,99.12H24.57c-2.65,0-4.62-2.75-4.62-5.2V4.92c0-2.42,1.86-4.05,4.62-4.05h50.86c2.77,0,4.62,1.63,4.62,4.05v89c0,2.45-1.98,5.2-4.62,5.2ZM24.57,3.19c-.7,0-2.31.17-2.31,1.73v89c0,1.3,1.07,2.89,2.31,2.89h50.86c1.24,0,2.31-1.59,2.31-2.89V4.92c0-1.56-1.62-1.73-2.31-1.73H24.57Z"/>
  <path class="cls-1" d="M74.27,87.56H25.73V12.44h48.54v75.13ZM28.04,85.25h43.92V14.75H28.04v70.5Z"/>
  <path class="cls-1" d="M53.47,8.97h-6.93c-.64,0-1.16-.52-1.16-1.16s.52-1.16,1.16-1.16h6.93c.64,0,1.16.52,1.16,1.16s-.52,1.16-1.16,1.16Z"/>
  <path class="cls-1" d="M66.18,67.92h-1.16v-21.96c0-.64-.52-1.16-1.16-1.16h-5.78c-.64,0-1.16.52-1.16,1.16v21.96h-2.31V30.93c0-.64-.52-1.16-1.16-1.16h-5.78c-.64,0-1.16.52-1.16,1.16v36.99h-2.31v-30.05c0-.64-.52-1.16-1.16-1.16h-5.78c-.64,0-1.16.52-1.16,1.16v30.05h-1.16c-.64,0-1.16.52-1.16,1.16s.52,1.16,1.16,1.16h31.21c.64,0,1.16-.52,1.16-1.16s-.52-1.16-1.16-1.16ZM38.44,67.92v-28.9h3.47v28.9h-3.47ZM48.84,67.92v-35.83h3.47v35.83h-3.47ZM59.25,67.92v-20.8h3.47v20.8h-3.47Z"/>
</svg>