<svg id="Layer_1" data-name="Layer 1" xmlns="http://www.w3.org/2000/svg" viewBox="0 0 100 100" height="100px" width="100px" transform="rotate(0) scale(1, 1)">
  <defs>
    <style>.cls-1 { fill: #ffffff; fill-rule: evenodd; stroke-width: 0px; }</style>
  </defs>
  <path class="cls-1" d="M55.42,28.43c-2.14-.58-3.36-1.87-3.36-3.54,0-1.54,1.03-2.86,2.45-3.35v-.95c0-.68.55-1.24,1.24-1.24s1.24.56,1.24,1.24v.94c1.42.49,2.45,1.81,2.45,3.35,0,.68-.56,1.24-1.24,1.24s-1.24-.56-1.24-1.24c0-.58-.55-1.07-1.2-1.07s-1.2.49-1.2,1.07c0,.63.95.98,1.53,1.15,2.14.58,3.36,1.87,3.36,3.54,0,1.54-1.03,2.86-2.45,3.35v.94c0,.68-.55,1.24-1.24,1.24s-1.24-.56-1.24-1.24v-.94c-1.42-.49-2.45-1.81-2.45-3.35,0-.68.56-1.24,1.24-1.24s1.24.56,1.24,1.24c0,.58.55,1.07,1.2,1.07s1.2-.49,1.2-1.07c0-.63-.96-.98-1.53-1.13h0ZM44.1,91.07l-23.22-23.22h-.01c-.16-.16-.35-.18-.46-.18-.1,0-.29.02-.45.18l-5.49,5.5c-.26.25-.26.66,0,.92l23.22,23.22c.25.25.66.25.92,0l5.5-5.5c.16-.16.18-.35.18-.46,0-.1-.03-.29-.19-.46h0ZM77.32,59.19s.05-.05.07-.07c.9-.92,2.11-1.42,3.41-1.42,1.33-.01,2.57.5,3.49,1.43.92.92,1.42,2.15,1.42,3.46s-.49,2.52-1.39,3.42l-13.39,11.55c-1.47,1.26-2.95,1.94-4.86,2.18l-16.41,2.13c-2.66.34-4.64,1.24-6.23,2.83l-1.11,1.1-16.18-16.18,8.5-8.5c1.47-1.47,3.19-2.18,5.25-2.18h20.67c2.7,0,4.89,2.19,4.89,4.89,0,1.34-.54,2.55-1.4,3.42h-.02c-.04.05-.1.1-.14.14-.88.82-2.04,1.33-3.34,1.33h-14.66c-.7,0-1.24.56-1.24,1.24s.55,1.24,1.24,1.24h14.67c2.01,0,3.84-.8,5.17-2.11l11.58-9.9h0ZM67.6,12.74l5.61-.29c.68-.03,1.21-.62,1.18-1.31l-.3-5.61c-.03-.68-.62-1.21-1.31-1.18s-1.21.62-1.18,1.31l.13,2.48c-7.93-6.68-19.26-7.77-28.43-2.48-4.92,2.85-8.77,7.33-10.79,12.64-2.01,5.23-2.18,11.03-.52,16.34.17.54.66.88,1.2.88.12,0,.25-.02.36-.05.66-.2,1.03-.9.82-1.56-3.11-9.91,1.17-20.88,10.18-26.08,8.27-4.77,18.5-3.77,25.66,2.29l-2.74.14c-.68.03-1.21.62-1.18,1.31.03.66.59,1.18,1.24,1.18.01.01.04,0,.05,0h0ZM77.13,20.54c3.1,9.91-1.18,20.88-10.19,26.08-3.5,2.02-7.36,3.01-11.21,3.01-5.15,0-10.24-1.78-14.34-5.19l2.59-.04c.68-.01,1.24-.58,1.22-1.26-.01-.68-.57-1.22-1.24-1.22h-.02l-5.62.07c-.32,0-.64.14-.88.37-.22.24-.35.56-.34.89l.1,5.61c.01.68.57,1.22,1.24,1.22h.02c.68-.01,1.24-.58,1.23-1.26l-.04-2.62c4.58,3.89,10.31,5.91,16.1,5.91,4.26,0,8.56-1.09,12.45-3.34,4.93-2.85,8.77-7.33,10.8-12.64,2-5.22,2.18-11.03.51-16.34-.2-.65-.91-1.02-1.56-.81-.66.21-1.03.91-.81,1.57h0ZM68.52,28.45v-2.46h-1.2c-.59,0-1.1-.42-1.22-1-.27-1.26-.75-2.45-1.44-3.54-.31-.49-.25-1.15.17-1.55l.83-.83-1.74-1.74-.81.82c-.42.42-1.08.48-1.56.16-1.08-.72-2.29-1.21-3.56-1.49-.58-.12-.98-.63-.98-1.22v-1.15h-2.46v1.15c0,.59-.42,1.09-1,1.22-1.27.27-2.46.77-3.56,1.49-.49.32-1.15.26-1.56-.16l-.82-.82-1.73,1.74.83.83c.42.42.48,1.06.17,1.55-.71,1.09-1.19,2.28-1.44,3.54-.12.58-.63,1-1.22,1h-1.2v2.46h1.24c.59,0,1.09.41,1.22.97.27,1.24.76,2.42,1.47,3.49.32.49.27,1.15-.16,1.56l-.89.9,1.73,1.73.9-.9c.41-.42,1.06-.48,1.55-.17,1.07.68,2.24,1.17,3.48,1.43.58.12,1,.63,1,1.22v1.31h2.46v-1.3c0-.59.41-1.09.98-1.22,1.24-.27,2.41-.75,3.48-1.43.49-.32,1.13-.25,1.55.17l.91.91,1.74-1.73-.9-.9c-.42-.42-.48-1.07-.16-1.56.71-1.07,1.2-2.25,1.48-3.49.12-.57.63-.97,1.21-.97h1.23v-.02Z"/>
</svg>