<svg id="Layer_1" data-name="Layer 1" xmlns="http://www.w3.org/2000/svg" viewBox="0 0 100 100" height="100px" width="100px" transform="rotate(0) scale(1, 1)">
  <defs>
    <style>.cls-1 { fill: #ffffff; fill-rule: evenodd; stroke-width: 0px; }</style>
  </defs>
  <path class="cls-1" d="M76.21,64.43c2.11-3.81,3.4-8.13,3.66-12.72h18.02c-.88,25.09-21.09,45.3-46.18,46.18v-18.02c5.18-.29,10-1.9,14.15-4.5,1.24.89,2.77,1.41,4.41,1.41,4.2,0,7.6-3.41,7.6-7.6,0-1.79-.62-3.44-1.66-4.74h0ZM13.82,51.71c.21.49.45.99.74,1.49,1.53,2.69,4.07,5.69,4.07,5.69.65.76,1.6,1.2,2.61,1.2.2,0,.39-.02.58-.05,3.95,11.06,14.23,19.13,26.47,19.82v18.02c-25.09-.88-45.3-21.09-46.18-46.18h11.71ZM28.65,51.71h9.05c.76,5.48,5.1,9.83,10.59,10.59v14.14c-11.14-.71-20.41-8.32-23.6-18.59.88-1.11,2.25-2.94,3.22-4.65.29-.5.53-1.01.74-1.49h0ZM63.56,72.76c-3.51,2.1-7.54,3.4-11.85,3.68v-14.14c5.48-.76,9.83-5.1,10.59-10.59h14.14c-.24,3.8-1.29,7.38-2.96,10.57-.97-.46-2.06-.71-3.21-.71-4.2,0-7.6,3.41-7.6,7.6,0,1.3.32,2.52.9,3.58h0ZM70.27,65c2.31,0,4.18,1.87,4.18,4.18s-1.87,4.18-4.18,4.18-4.18-1.87-4.18-4.18,1.87-4.18,4.18-4.18ZM48.29,58.83c-3.59-.69-6.42-3.53-7.12-7.12h7.12v7.12ZM58.83,51.71c-.69,3.59-3.53,6.42-7.12,7.12v-7.12h7.12ZM21.24,56.68s4.72-5.54,4.72-7.92c0-2.6-2.12-4.72-4.72-4.72s-4.72,2.12-4.72,4.72c0,2.38,4.72,7.92,4.72,7.92ZM13.11,48.29H2.11C2.99,23.2,23.2,2.99,48.29,2.11v18.02c-12.49.71-22.94,9.09-26.7,20.49-.12,0-.23,0-.35,0-4.34,0-7.89,3.4-8.13,7.68ZM51.71,41.17c3.59.69,6.42,3.53,7.12,7.12h-7.12v-7.12ZM57.55,21.05c-1.88-.49-3.83-.8-5.84-.91V2.11c25.09.88,45.3,21.09,46.18,46.18h-18.02c-.44-7.78-3.86-14.77-9.13-19.84.4-.93.63-1.95.63-3.03,0-4.2-3.41-7.6-7.6-7.6-2.57,0-4.84,1.28-6.22,3.23h0ZM68.68,31.22c4.45,4.42,7.34,10.42,7.76,17.07h-14.14c-.76-5.48-5.1-9.83-10.59-10.59v-14.14c1.55.1,3.07.33,4.54.69-.06.38-.09.77-.09,1.17,0,4.2,3.41,7.6,7.6,7.6,1.87,0,3.59-.68,4.91-1.8h0ZM48.29,48.29h-7.12c.69-3.59,3.53-6.42,7.12-7.12v7.12ZM24.91,41.49c3.37-9.94,12.49-17.23,23.38-17.92v14.14c-5.48.76-9.83,5.1-10.59,10.59h-8.34c-.17-2.98-1.94-5.53-4.46-6.8ZM63.77,21.24c-2.31,0-4.18,1.87-4.18,4.18s1.87,4.18,4.18,4.18,4.18-1.87,4.18-4.18-1.87-4.18-4.18-4.18Z"/>
</svg>