<svg width="254" height="54" viewBox="0 0 254 54" fill="none" xmlns="http://www.w3.org/2000/svg">
<g id="digirocket logo 1" clip-path="url(#clip0_1_106)">
<g id="digirocket">
<g id="Group">
<path id="Vector" d="M0 19.0022C1.28683 17.9229 2.58703 16.8546 3.85781 15.7563C4.68983 15.0386 5.48708 14.2747 6.26292 13.5625C8.17309 15.5606 10.0057 17.4798 11.8517 19.4099C11.2791 19.4453 10.5408 19.4942 9.71408 19.5459V35.4273C13.6334 35.536 17.5661 35.8595 21.234 34.03C24.4925 32.4043 26.3679 29.6097 27.1036 26.0757C27.7939 22.7673 27.7778 19.4154 26.8308 16.1505C25.3914 11.1811 20.9531 7.90804 15.7121 7.87541C11.635 7.85095 7.55777 7.88085 3.48059 7.86726C1.85667 7.86182 0.770491 7.1523 0.329064 5.89364C-0.17122 4.461 0.181922 2.47922 1.26275 1.66639C1.84329 1.23143 2.64589 0.886187 3.35485 0.872595C7.52299 0.799195 11.6965 0.682301 15.8593 0.867158C26.7478 1.34833 34.327 8.38377 34.9396 19.902C35.2286 25.3145 34.3644 30.4524 31.0685 34.9053C27.8099 39.3065 23.3555 41.7885 18.0343 42.1311C12.9004 42.4627 7.73167 42.2017 2.42651 42.2017V19.5622H0V19.0022Z" fill="white"/>
<path id="Vector_2" d="M87.1645 0V7.45952H80.2889V0H87.1645Z" fill="white"/>
<path id="Vector_3" d="M45.3707 0V7.46768H38.3801C38.5112 4.94493 38.6423 2.47382 38.7707 0H45.3707Z" fill="white"/>
<path id="Vector_4" d="M125.732 42.4738C122.853 42.4738 119.969 42.5418 117.093 42.4439C115.633 42.395 114.825 41.188 114.442 39.9538C113.829 37.9774 113.447 35.925 113.021 33.8915C112.617 31.9533 112.446 29.9497 111.884 28.0631C111.146 25.5784 109.709 24.6351 107.197 24.597C105.089 24.5644 102.984 24.5889 100.876 24.5889C100.694 24.5889 100.512 24.6188 100.161 24.6487V42.3787H92.9994V0.927172C93.3793 0.899987 93.7699 0.851055 94.1632 0.848336C99.7064 0.842899 105.252 0.766782 110.793 0.875521C113.872 0.935328 116.861 1.52796 119.325 3.68915C121.599 5.68452 122.602 8.2698 122.917 11.2302C123.442 16.1752 121.128 19.4672 117.075 21.778C116.807 21.9302 116.545 22.0987 116.09 22.376C119.675 24.5046 119.924 28.1175 120.429 31.5781C121.042 35.77 122.35 39.5705 125.732 42.4738ZM100.153 17.6024C103.88 17.6024 107.449 17.6894 111.012 17.567C112.933 17.5018 114.528 16.6237 115.194 14.5767C116.336 11.0563 114.217 7.92727 110.547 7.843C107.344 7.76688 104.142 7.81582 100.937 7.82125C100.68 7.82125 100.423 7.90009 100.153 7.9463V17.6024Z" fill="white"/>
<path id="Vector_5" d="M48.6667 43.6128C50.8444 43.6128 52.8509 43.5775 54.8547 43.6482C55.1864 43.659 55.6225 44.0614 55.8044 44.3958C57.9233 48.275 62.589 49.7593 66.5512 47.7449C67.9878 47.0137 68.9242 45.7659 69.1863 44.2055C69.4726 42.4955 69.4592 40.7367 69.601 38.6543C66.923 40.4322 64.3521 41.2342 61.4814 41.1852C54.8466 41.071 49.8625 36.9444 48.7068 30.3276C47.7972 25.1135 48.672 20.2366 51.9493 16.012C54.7557 12.391 58.4851 10.7708 63.0304 11.3797C66.2061 11.8038 66.5619 11.9832 69.4673 13.7856C69.5208 13.7231 69.6385 13.6415 69.6278 13.5872C69.3255 12.0267 70.0665 11.6842 71.4416 11.8174C72.6215 11.9316 73.8227 11.8772 75.0132 11.8283C75.8211 11.793 76.1529 12.0295 76.1502 12.9211C76.1261 22.7457 76.2545 32.5731 76.094 42.3949C75.979 49.4195 71.6182 53.6169 64.6223 53.9458C60.7056 54.1306 56.8558 53.9648 53.3404 51.8906C50.2986 50.0964 48.656 47.4758 48.664 43.6128H48.6667ZM69.7241 26.8751C69.5743 25.7306 69.5261 24.559 69.2532 23.4444C68.4185 20.0653 65.9947 18.1189 62.68 18.0455C59.2154 17.9694 56.5508 19.8696 55.5449 23.1589C54.8948 25.2848 54.8199 27.4514 55.2881 29.6208C55.9141 32.5241 57.5541 34.6146 60.414 35.3921C63.2686 36.1696 65.8797 35.5688 67.854 33.1657C69.3415 31.3579 69.6117 29.1478 69.7268 26.8724L69.7241 26.8751Z" fill="white"/>
<path id="Vector_6" d="M237.611 28.7781H216.101C216.208 32.4046 218.29 35.21 221.372 36.0229C225.002 36.9798 227.972 35.8271 229.909 32.7444C230.109 32.4236 230.463 31.9859 230.76 31.975C232.761 31.9071 234.764 31.9397 236.982 31.9397C236.319 35.8842 234.575 38.861 231.396 40.8944C222.533 46.5679 210.911 40.908 209.488 30.3276C208.747 24.8173 209.86 19.8696 213.498 15.713C219.828 8.47644 232.327 9.82209 235.859 20.5085C236.715 23.0937 237.009 25.872 237.608 28.7781H237.611ZM216.612 22.5283H230.061C229.689 18.9997 227.327 16.8684 223.793 16.776C220.125 16.6808 217.22 18.9725 216.612 22.5283Z" fill="white"/>
<path id="Vector_7" d="M201.251 21.9653C204.715 28.7479 208.153 35.4707 211.73 42.4681C209.151 42.4681 206.759 42.517 204.375 42.4137C204.03 42.3974 203.621 41.7015 203.399 41.2421C201.291 36.887 199.217 32.513 197.131 28.1471C196.917 27.7013 196.679 27.2663 196.374 26.671C195.221 27.7393 194.116 28.6962 193.104 29.7456C192.84 30.0201 192.773 30.5802 192.767 31.0097C192.741 34.3154 192.754 37.6183 192.754 40.924V42.3838H185.921V0.954102H192.698V22.3078C194.463 20.5979 195.967 19.1598 197.452 17.7027C199.164 16.0199 200.82 14.2774 202.586 12.6572C203.07 12.2141 203.843 11.9069 204.499 11.8797C206.767 11.7873 209.041 11.8444 211.757 11.8444C208.07 15.3974 204.678 18.6678 201.253 21.968L201.251 21.9653Z" fill="white"/>
<path id="Vector_8" d="M153.467 27.4187C153.325 33.47 151.254 38.5427 145.754 41.4461C138.287 45.3879 127.701 42.4981 125.157 31.8253C123.819 26.2225 124.691 20.9269 128.372 16.3843C134.764 8.49802 146.706 9.80833 151.444 18.8663C152.838 21.5277 153.531 24.374 153.47 27.4187H153.467ZM146.872 26.7526C146.803 26.209 146.736 25.1895 146.532 24.1973C145.84 20.81 143.081 18.3226 139.799 18.0589C136.101 17.7599 133.287 19.5487 131.968 23.0392C131.214 25.0346 131.2 27.0734 131.409 29.183C131.989 35.0332 138.26 38.2709 143.151 35.1473C146.011 33.3205 146.805 30.4471 146.872 26.7554V26.7526Z" fill="white"/>
<path id="Vector_9" d="M183.008 24.635H176.204C175.843 23.6346 175.568 22.6124 175.118 21.6718C173.189 17.6349 167.833 16.7351 164.578 19.8042C163.122 21.1771 162.29 22.8517 162.089 24.7736C161.731 28.188 161.651 31.6052 164.436 34.234C167.74 37.3521 173.698 37.2759 175.728 32.1761C176.397 30.4933 177.32 29.9714 178.987 30.1589C180.201 30.2949 181.445 30.1861 182.807 30.1861C183.016 33.0596 181.959 35.4219 180.386 37.5396C175.479 44.132 165.886 45.0236 159.949 39.3828C157.301 36.8654 155.816 33.5706 155.428 29.936C154.92 25.1678 155.546 20.5545 158.555 16.61C161.621 12.5894 165.728 10.8957 170.685 11.3198C177.459 11.8989 180.801 16.2974 182.561 22.4276C182.663 22.781 182.764 23.1344 182.839 23.4932C182.906 23.8086 182.938 24.1321 183.01 24.635H183.008Z" fill="white"/>
<path id="Vector_10" d="M251.814 11.866V18.48H247.785C247.756 19.1515 247.713 19.6435 247.713 20.1356C247.708 24.6021 247.71 29.0685 247.71 33.535C247.71 36.2236 248.783 37.0935 251.384 36.5145C251.598 36.4655 251.809 36.3949 252.119 36.3051V42.3103C249.613 43.2019 247.028 43.4086 244.447 42.5577C242.218 41.8237 240.92 39.532 240.912 36.5389C240.896 31.0938 240.907 25.6514 240.91 20.2063V18.5752H237.311C237.311 16.4656 237.285 14.4866 237.349 12.5075C237.357 12.2764 237.847 11.9013 238.138 11.8714C238.992 11.7844 239.861 11.8415 240.91 11.8415V4.53964C240.91 2.07669 242.122 0.845215 244.546 0.845215C246.657 0.845215 247.713 1.91086 247.713 4.04215C247.713 6.58938 247.713 9.13388 247.713 11.8632H251.817L251.814 11.866Z" fill="white"/>
<path id="Vector_11" d="M38.4978 42.4C38.4978 41.8509 38.4978 41.3996 38.4978 40.9456C38.4978 31.7408 38.5246 22.5361 38.4657 13.3313C38.4577 12.0454 38.8616 11.7518 40.0281 11.8171C41.751 11.9122 43.4819 11.8415 45.2931 11.8415V42.4H38.4978Z" fill="white"/>
<path id="Vector_12" d="M80.3799 11.9233H87.087V42.3568H80.3799V11.9233Z" fill="white"/>
<path id="Vector_13" d="M201.978 45.7604H202.781V44.2163H203.707V45.7604H204.691V46.5624H203.707V50.2894C203.707 50.6809 203.787 50.9228 204.22 50.9228C204.357 50.9228 204.504 50.9174 204.614 50.8929V51.6106C204.408 51.6949 204.103 51.7112 203.905 51.7112C203.177 51.7112 202.781 51.4176 202.781 50.4688V46.5624H201.978V45.7604Z" fill="white"/>
<path id="Vector_14" d="M206.074 48.8919C206.074 49.963 206.248 50.9335 207.131 50.9335C208.014 50.9335 208.102 50.118 208.129 49.9358H209.036C209.02 50.0935 208.865 51.7382 207.12 51.7382C205.376 51.7382 205.143 50.1506 205.143 48.6853C205.143 46.8259 205.783 45.6597 207.161 45.6597C208.71 45.6597 209.079 46.9319 209.079 48.4108C209.079 48.5413 209.073 48.7533 209.063 48.8892H206.074V48.8919ZM208.153 48.1661C208.153 47.2418 207.971 46.4643 207.155 46.4643C206.155 46.4643 206.104 47.7583 206.09 48.1661H208.153Z" fill="white"/>
<path id="Vector_15" d="M213.742 49.8026C213.72 50.1452 213.597 51.7382 211.866 51.7382C210.328 51.7382 209.919 50.3844 209.919 48.6717C209.919 46.9591 210.443 45.6597 211.939 45.6597C213.659 45.6597 213.734 47.2527 213.739 47.5436H212.792C212.781 47.3071 212.715 46.4643 211.936 46.4643C211.157 46.4643 210.869 47.3397 210.869 48.669C210.869 50.0908 211.157 50.9308 211.901 50.9308C212.696 50.9308 212.787 50.118 212.827 49.8026H213.745H213.742Z" fill="white"/>
<path id="Vector_16" d="M215.636 43.4253V46.4482C215.839 45.9888 216.273 45.6599 217.003 45.6599C217.873 45.6599 218.456 46.2145 218.456 47.465V51.6351H217.519V47.658C217.519 46.9648 217.335 46.4945 216.653 46.4945C215.898 46.4945 215.636 47.117 215.636 48.0956V51.6351H214.7V43.428H215.636V43.4253Z" fill="white"/>
<path id="Vector_17" d="M219.777 47.5787C219.777 46.3771 219.772 46.04 219.767 45.76H220.666C220.682 45.9041 220.698 46.1379 220.698 46.4995C220.888 46.0672 221.275 45.6567 222.049 45.6567C222.905 45.6567 223.533 46.1651 223.533 47.4455V51.6293H222.597V47.6412C222.597 46.9507 222.388 46.4913 221.754 46.4913C221.027 46.4913 220.714 46.967 220.714 48.1115V51.632H219.777V47.5787Z" fill="white"/>
<path id="Vector_18" d="M228.63 48.6312C228.63 50.7081 227.929 51.7411 226.602 51.7411C225.275 51.7411 224.582 50.7489 224.582 48.6529C224.582 46.557 225.38 45.6626 226.645 45.6626C227.91 45.6626 228.63 46.663 228.63 48.6312ZM225.532 48.6556C225.532 50.1862 225.888 50.931 226.618 50.931C227.349 50.931 227.683 50.1807 227.683 48.6529C227.683 47.1251 227.346 46.4809 226.613 46.4809C225.88 46.4809 225.532 47.1306 225.532 48.6556Z" fill="white"/>
<path id="Vector_19" d="M229.676 51.6324V43.4253H230.607V51.6324H229.676Z" fill="white"/>
<path id="Vector_20" d="M235.712 48.6312C235.712 50.7081 235.011 51.7411 233.684 51.7411C232.357 51.7411 231.664 50.7489 231.664 48.6529C231.664 46.557 232.461 45.6626 233.726 45.6626C234.992 45.6626 235.712 46.663 235.712 48.6312ZM232.614 48.6556C232.614 50.1862 232.969 50.931 233.7 50.931C234.43 50.931 234.765 50.1807 234.765 48.6529C234.765 47.1251 234.427 46.4809 233.694 46.4809C232.961 46.4809 232.614 47.1306 232.614 48.6556Z" fill="white"/>
<path id="Vector_21" d="M240.482 51.2382C240.482 52.8041 240.094 53.8751 238.419 53.8751C236.897 53.8751 236.57 52.8911 236.538 52.2413H237.477C237.499 52.5349 237.664 53.0786 238.454 53.0786C239.377 53.0786 239.564 52.3908 239.564 51.2382V50.7543C239.355 51.3279 238.876 51.6106 238.24 51.6106C237.063 51.6106 236.495 50.5885 236.495 48.7644C236.495 46.6712 237.252 45.6626 238.363 45.6626C239.141 45.6626 239.46 46.0432 239.561 46.402C239.561 46.1601 239.588 45.8855 239.607 45.7605H240.5C240.49 46.0785 240.484 46.6712 240.484 47.4704V51.2382H240.482ZM237.45 48.7454C237.45 50.1291 237.817 50.7897 238.499 50.7897C239.353 50.7897 239.575 49.9388 239.575 48.5931C239.575 47.2475 239.417 46.4917 238.563 46.4917C237.836 46.4917 237.45 47.2583 237.45 48.7454Z" fill="white"/>
<path id="Vector_22" d="M241.83 45.7605H242.761V51.6324H241.83V45.7605ZM241.835 43.4253H242.766V44.6622H241.835V43.4253Z" fill="white"/>
<path id="Vector_23" d="M244.751 48.8919C244.751 49.963 244.925 50.9335 245.808 50.9335C246.691 50.9335 246.779 50.118 246.806 49.9358H247.713C247.697 50.0935 247.542 51.7382 245.797 51.7382C244.053 51.7382 243.82 50.1506 243.82 48.6853C243.82 46.8259 244.46 45.6597 245.838 45.6597C247.387 45.6597 247.756 46.9319 247.756 48.4108C247.756 48.5413 247.75 48.7533 247.74 48.8892H244.751V48.8919ZM246.83 48.1661C246.83 47.2418 246.648 46.4643 245.832 46.4643C244.832 46.4643 244.781 47.7583 244.767 48.1661H246.83Z" fill="white"/>
<path id="Vector_24" d="M249.364 49.9248C249.396 50.5092 249.695 50.9768 250.335 50.9768C250.929 50.9768 251.215 50.618 251.215 50.1096C251.215 49.5415 250.931 49.2696 250.19 48.9787C248.965 48.5057 248.617 48.0599 248.617 47.2335C248.617 46.407 249.096 45.6567 250.313 45.6567C251.648 45.6567 252.015 46.581 252.023 47.3585H251.116C251.103 47.0921 251.049 46.4152 250.287 46.4152C249.776 46.4152 249.54 46.736 249.54 47.1737C249.54 47.6113 249.744 47.8424 250.525 48.1469C251.659 48.5873 252.149 49.0141 252.149 50.009C252.149 51.0964 251.48 51.7326 250.292 51.7326C249.104 51.7326 248.47 50.9823 248.446 49.922H249.366L249.364 49.9248Z" fill="white"/>
<path id="Vector_25" d="M253.053 51.6376V50.0146H254V51.6376H253.053Z" fill="white"/>
</g>
</g>
</g>
<defs>
<clipPath id="clip0_1_106">
<rect width="254" height="54" fill="white"/>
</clipPath>
</defs>
</svg>
