<svg width="512" height="512" viewBox="0 0 512 512" fill="none" xmlns="http://www.w3.org/2000/svg">
<g clip-path="url(#clip0_15_22)">
<path fill-rule="evenodd" clip-rule="evenodd" d="M481.552 286.109C484.049 286.113 486.443 287.107 488.208 288.874C489.973 290.641 490.965 293.036 490.967 295.533V459.628C490.966 462.126 489.974 464.521 488.209 466.287C486.443 468.054 484.049 469.049 481.552 469.053H364.73C363.212 469.055 361.721 469.459 360.41 470.225L288.022 512V477.714C288.024 476.578 287.802 475.452 287.369 474.402C286.935 473.352 286.299 472.397 285.497 471.593C284.695 470.788 283.742 470.15 282.692 469.714C281.643 469.279 280.518 469.054 279.382 469.053H246.318C243.82 469.049 241.426 468.055 239.66 466.288C237.894 464.521 236.901 462.126 236.899 459.628V346.886H265.682C272.761 346.879 279.548 344.064 284.554 339.058C289.56 334.052 292.375 327.265 292.382 320.186V286.109H481.552ZM213.759 9.425C213.761 6.92669 214.753 4.53108 216.519 2.76404C218.286 0.996996 220.681 0.00291344 223.179 0L458.408 0C460.906 0.00317946 463.3 0.997507 465.065 2.76464C466.831 4.53176 467.822 6.92723 467.823 9.425V173.57C467.824 176.069 466.833 178.465 465.067 180.234C463.302 182.002 460.907 182.997 458.408 183H341.591C340.072 183 338.581 183.405 337.271 184.172L264.882 225.947V191.656C264.884 190.521 264.661 189.396 264.228 188.346C263.795 187.297 263.159 186.343 262.358 185.539C261.556 184.735 260.603 184.097 259.555 183.662C258.506 183.226 257.382 183.001 256.247 183H223.179C220.681 182.997 218.286 182.003 216.519 180.236C214.753 178.469 213.761 176.073 213.759 173.575V9.425ZM21.033 156.045V320.191C21.0359 322.69 22.0298 325.085 23.7967 326.852C25.5636 328.619 27.9592 329.613 30.458 329.616H63.521C65.8075 329.615 68.001 330.521 69.6207 332.135C71.2404 333.749 72.1543 335.939 72.162 338.226V372.563L144.55 330.737C145.873 330.01 147.356 329.625 148.865 329.616H265.682C268.181 329.613 270.576 328.619 272.343 326.852C274.11 325.085 275.104 322.69 275.107 320.191V240L260.562 248.406C259.248 249.165 257.758 249.564 256.241 249.564C254.724 249.564 253.234 249.164 251.92 248.405C250.607 247.646 249.517 246.554 248.76 245.239C248.002 243.925 247.605 242.434 247.607 240.917V200.266H223.179C216.1 200.259 209.313 197.444 204.307 192.438C199.301 187.432 196.486 180.645 196.479 173.566V146.62H30.458C27.9592 146.623 25.5636 147.617 23.7967 149.384C22.0298 151.151 21.0359 153.546 21.033 156.045ZM80.858 223.7L120.651 224.923L115.297 249.423L86.482 248.506C84.2032 248.453 81.9958 249.303 80.3407 250.87C78.6856 252.438 77.7169 254.595 77.6457 256.874C77.5745 259.152 78.4065 261.366 79.9604 263.034C81.5143 264.701 83.6643 265.687 85.942 265.777L111.542 266.591L104.71 297.872C104.225 300.112 104.647 302.452 105.884 304.381C107.121 306.31 109.072 307.67 111.31 308.163C111.921 308.264 112.539 308.316 113.159 308.316C115.126 308.315 117.034 307.643 118.567 306.411C120.1 305.179 121.167 303.461 121.591 301.54L129.11 267.152L154.175 267.916L147.043 300.572C146.557 302.812 146.979 305.152 148.217 307.081C149.454 309.01 151.405 310.37 153.643 310.863C154.253 310.98 154.872 311.047 155.493 311.063C157.465 311.051 159.374 310.369 160.906 309.128C162.438 307.887 163.503 306.162 163.924 304.236L171.744 268.473L214.744 269.797H215.019C217.287 269.798 219.464 268.906 221.081 267.315C222.697 265.723 223.622 263.56 223.657 261.293C223.692 259.025 222.833 256.834 221.267 255.194C219.7 253.554 217.551 252.596 215.284 252.527L175.491 251.304L180.845 226.804L209.66 227.67C209.746 227.711 209.84 227.728 209.935 227.72C212.203 227.721 214.38 226.829 215.997 225.238C217.613 223.646 218.538 221.483 218.573 219.216C218.608 216.948 217.749 214.757 216.183 213.117C214.616 211.477 212.467 210.519 210.2 210.45L184.6 209.635L191.432 178.354C191.675 177.245 191.697 176.099 191.497 174.981C191.296 173.864 190.877 172.797 190.264 171.841C189.651 170.886 188.855 170.061 187.923 169.413C186.991 168.765 185.94 168.308 184.83 168.067C183.721 167.825 182.575 167.805 181.457 168.008C180.34 168.21 179.274 168.631 178.319 169.245C177.365 169.86 176.541 170.657 175.895 171.591C175.249 172.524 174.793 173.576 174.554 174.686L167.034 209.075L141.969 208.31L149.101 175.654C149.344 174.545 149.366 173.399 149.166 172.281C148.965 171.164 148.546 170.097 147.933 169.141C147.32 168.186 146.524 167.361 145.592 166.713C144.66 166.065 143.609 165.608 142.499 165.367C141.39 165.125 140.244 165.105 139.126 165.308C138.009 165.51 136.943 165.931 135.988 166.545C135.034 167.16 134.21 167.957 133.564 168.891C132.918 169.824 132.462 170.876 132.223 171.986L124.403 207.75L81.403 206.425C79.1242 206.372 76.9168 207.222 75.2617 208.789C73.6066 210.357 72.6379 212.514 72.5667 214.793C72.4955 217.071 73.3274 219.285 74.8814 220.953C76.4353 222.62 78.5853 223.606 80.863 223.696L80.858 223.7ZM163.277 226.247L157.928 250.747L132.858 249.983L138.217 225.483L163.277 226.247ZM282.02 153.647H308.32C310.31 153.64 312.265 153.127 314.001 152.155C315.737 151.184 317.197 149.786 318.244 148.094C319.089 148.349 319.93 148.603 320.791 148.858C322.291 149.266 324.347 149.877 325.004 150.132C326.207 150.737 327.535 151.051 328.881 151.049H384.192C387.762 151.063 391.231 149.866 394.034 147.655C396.836 145.444 398.807 142.348 399.624 138.873L410.84 91.905C411.392 89.5735 411.41 87.1474 410.892 84.8081C410.375 82.4687 409.336 80.2765 407.852 78.3953C406.368 76.5141 404.478 74.9925 402.324 73.9443C400.169 72.8961 397.806 72.3484 395.41 72.342H379.774C379.754 60.574 377.991 41.011 367.323 32.961C362.009 28.988 355.27 28.326 348.372 31.077C347.114 31.5976 345.887 32.193 344.7 32.86C343.312 33.6345 342.163 34.7761 341.381 36.1599C340.598 37.5436 340.211 39.1161 340.263 40.705L340.727 55.785C335.53 65.6859 329.528 75.1427 322.782 84.06L320.856 84.11C320.535 84.162 320.209 84.162 319.898 84.21C319.467 81.4464 318.064 78.9272 315.942 77.1059C313.819 75.2846 311.116 74.2807 308.319 74.275H282.019C278.911 74.2771 275.93 75.5133 273.733 77.7119C271.535 79.9105 270.3 82.8915 270.3 86V141.887C270.3 145 271.534 147.986 273.731 150.191C275.928 152.397 278.909 153.642 282.022 153.655L282.02 153.647ZM321.386 101.377C320.939 101.411 320.489 101.394 320.046 101.326V130.569C321.839 131.18 324.096 131.842 325.579 132.25C327.499 132.81 329.16 133.269 330.587 133.778H383.081L393.616 89.66H370.8C369.59 89.66 368.394 89.4062 367.289 88.9148C366.183 88.4235 365.193 87.7057 364.383 86.8078C363.572 85.9098 362.959 84.8518 362.583 83.702C362.207 82.5522 362.077 81.3364 362.2 80.133C363.357 68.874 361.492 52.368 357.753 47.633L358.053 57.465C358.096 58.9119 357.781 60.3469 357.136 61.643C350.579 74.5572 342.737 86.778 333.73 98.12C332.937 99.0524 331.96 99.81 330.859 100.345C329.759 100.88 328.559 101.181 327.336 101.228L321.386 101.381V101.377ZM287.578 91.545V136.325H302.77V91.549L287.578 91.545ZM359.549 447.045C360.873 447.844 362.391 448.267 363.938 448.267C365.485 448.267 367.003 447.844 368.327 447.045C387.778 435.582 437.556 397.22 434.372 358.094C432.935 340.467 422.247 326.152 406.459 320.701C392.271 315.81 376.601 319.07 363.93 329.101C351.276 319.065 335.6 315.801 321.411 320.701C305.633 326.152 294.93 340.467 293.493 358.094C290.309 397.22 340.093 435.582 359.549 447.045ZM310.718 359.47C308.782 383.21 339.884 413.931 363.93 429.47C387.982 413.932 419.078 383.211 417.148 359.47C416.261 348.618 410.163 340.263 400.82 337.003C390.585 333.488 379.168 337.103 370.283 346.733C369.477 347.615 368.496 348.32 367.403 348.802C366.31 349.284 365.128 349.533 363.933 349.533C362.738 349.533 361.556 349.284 360.463 348.802C359.37 348.32 358.389 347.615 357.583 346.733C350.93 339.55 342.865 335.678 334.928 335.678C332.246 335.687 329.584 336.133 327.046 337C317.7 340.263 311.6 348.618 310.718 359.47Z" fill="white"/>
</g>
<defs>
<clipPath id="clip0_15_22">
<rect width="512" height="512" fill="white"/>
</clipPath>
</defs>
</svg>
