<svg width="64" height="64" viewBox="0 0 64 64" fill="none" xmlns="http://www.w3.org/2000/svg">
<path d="M57.3076 38.5107L60.0557 35.7622L53.8813 29.5874L51.1328 32.3359C50.5078 32.02 49.8574 31.7515 49.188 31.5322V27.6436H40.4556V31.5322C39.7861 31.7515 39.1357 32.02 38.5107 32.3359L35.7622 29.5874L29.5879 35.7622L32.3359 38.5107C32.02 39.1357 31.7515 39.7861 31.5322 40.4556H27.6436V49.188H31.5322C31.7515 49.8574 32.02 50.5078 32.3359 51.1328L29.5879 53.8808L35.7622 60.0556L38.5107 57.3076C39.1357 57.6235 39.7861 57.8921 40.4556 58.1113V62H49.188V58.1113C49.8574 57.8921 50.5078 57.6235 51.1328 57.3076L53.8813 60.0556L60.0557 53.8808L57.3076 51.1328C57.6235 50.5078 57.8921 49.8574 58.1113 49.188H62V40.4556H58.1113C57.8921 39.7861 57.6235 39.1357 57.3076 38.5107ZM44.8218 53.8218C39.8594 53.8218 35.8218 49.7842 35.8218 44.8218C35.8218 39.8594 39.8594 35.8218 44.8218 35.8218C49.7842 35.8218 53.8218 39.8594 53.8218 44.8218C53.8218 49.7842 49.7842 53.8218 44.8218 53.8218Z" fill="white"/>
<path d="M44.822 51.822C48.688 51.822 51.822 48.688 51.822 44.822C51.822 40.956 48.688 37.822 44.822 37.822C40.956 37.822 37.822 40.956 37.822 44.822C37.822 48.688 40.956 51.822 44.822 51.822Z" fill="white"/>
<path d="M36.7771 8.01001H55.1431V10.01H36.7771V8.01001Z" fill="white"/>
<path d="M8.85596 8.01001H10.856V10.01H8.85596V8.01001Z" fill="white"/>
<path d="M59 2H5C3.3457 2 2 3.3457 2 5V14.02H62V5C62 3.3457 60.6543 2 59 2ZM12.8565 12.0098H6.85645V6.00977H12.8565V12.0098ZM21.8862 12.0098H15.8862V6.00977H21.8862V12.0098ZM57.1436 12.0098H34.7774V6.00977H57.1436V12.0098Z" fill="white"/>
<path d="M2 43.9702C2 45.6245 3.3457 46.9702 5 46.9702H25.6436V38.4556H29.4526L26.7598 35.7622L35.7622 26.7583L38.4556 29.4521V25.6436H51.188V29.4521L53.8813 26.7583L62 34.8783V16.02H2V43.9702ZM21.1655 26.8731L22.5796 25.459L27.6157 30.4951L22.5796 35.5312L21.1655 34.1172L24.7876 30.4951L21.1655 26.8731ZM17.959 24.0098L19.9346 24.3223L17.9346 36.9805L15.959 36.668L17.959 24.0098ZM13.314 25.459L14.728 26.8731L11.106 30.4951L14.728 34.1172L13.314 35.5312L8.27784 30.4951L13.314 25.459Z" fill="white"/>
<path d="M17.886 8.01001H19.886V10.01H17.886V8.01001Z" fill="white"/>
</svg>
