<svg width="90" height="113" viewBox="0 0 90 113" fill="none" xmlns="http://www.w3.org/2000/svg">
<path fill-rule="evenodd" clip-rule="evenodd" d="M9.95096 54.406C9.70672 54.1457 9.41161 53.9383 9.08391 53.7967C8.75621 53.6551 8.40293 53.5824 8.04596 53.583H4.53096C3.66298 53.5825 2.83068 53.2375 2.21683 52.6238C1.60298 52.0102 1.25775 51.178 1.25696 50.31V12.951C1.25722 12.0825 1.60215 11.2496 2.216 10.6352C2.82985 10.0208 3.66245 9.67507 4.53096 9.67401H56.115C56.9831 9.67586 57.8152 10.0218 58.4287 10.6361C59.0422 11.2504 59.3872 12.0828 59.388 12.951V50.31C59.3861 51.1777 59.0405 52.0092 58.4269 52.6227C57.8133 53.2361 56.9816 53.5814 56.114 53.583H30.114C29.5772 53.5846 29.0538 53.7503 28.614 54.058L9.98996 67.128L10.657 56.359C10.6779 56.0026 10.6262 55.6457 10.5048 55.3099C10.3834 54.9742 10.195 54.6666 9.95096 54.406ZM88.743 63.506V26.15C88.7422 25.2821 88.3971 24.45 87.7835 23.8362C87.1699 23.2224 86.3379 22.8771 85.47 22.876H64.615V50.31C64.6128 52.5637 63.7166 54.7245 62.123 56.3181C60.5294 57.9117 58.3686 58.8079 56.115 58.81H30.938L30.612 59.042V63.509C30.6128 64.3772 30.9579 65.2096 31.5717 65.8236C32.1855 66.4375 33.0178 66.7829 33.886 66.784H37.4C37.7567 66.7843 38.1095 66.8576 38.4369 66.9992C38.7643 67.1409 39.0592 67.3479 39.3037 67.6077C39.5481 67.8675 39.7368 68.1745 39.8583 68.5099C39.9797 68.8453 40.0314 69.202 40.01 69.558L39.344 80.325L57.967 67.259C58.4068 66.9513 58.9302 66.7856 59.467 66.784H85.467C86.3355 66.7824 87.1679 66.4364 87.7817 65.8219C88.3954 65.2074 88.7404 64.3745 88.741 63.506H88.743ZM15.257 24.127C15.2567 24.4703 15.3241 24.8102 15.4553 25.1274C15.5865 25.4446 15.779 25.7328 16.0216 25.9756C16.2643 26.2184 16.5525 26.4109 16.8696 26.5423C17.1868 26.6736 17.5267 26.7411 17.87 26.741H44.817C45.5102 26.741 46.1751 26.4656 46.6653 25.9754C47.1556 25.4852 47.431 24.8203 47.431 24.127C47.431 23.4337 47.1556 22.7689 46.6653 22.2786C46.1751 21.7884 45.5102 21.513 44.817 21.513H17.87C17.1769 21.513 16.5123 21.7883 16.0223 22.2783C15.5323 22.7684 15.257 23.433 15.257 24.126V24.127ZM15.257 38.551C15.2566 38.8943 15.3239 39.2343 15.455 39.5516C15.5862 39.8688 15.7786 40.1571 16.0213 40.3999C16.2641 40.6427 16.5523 40.8353 16.8695 40.9665C17.1867 41.0978 17.5267 41.1653 17.87 41.165H44.817C45.5102 41.165 46.1751 40.8896 46.6653 40.3994C47.1556 39.9092 47.431 39.2443 47.431 38.551C47.431 37.8577 47.1556 37.1929 46.6653 36.7026C46.1751 36.2124 45.5102 35.937 44.817 35.937H17.87C17.1769 35.9373 16.5122 36.2128 16.0222 36.703C15.5322 37.1932 15.257 37.8579 15.257 38.551Z" fill="white"/>
</svg>
