<svg width="110" height="135" viewBox="0 0 110 135" fill="none" xmlns="http://www.w3.org/2000/svg">
<path d="M67.984 37.219H78.125V47.907H67.984C65.0465 47.907 62.6402 45.5164 62.6402 42.5632C62.6402 39.61 65.0464 37.219 67.984 37.219ZM37.25 64.125H70.875C74.8125 64.125 78.0156 60.9219 78.0156 56.9844V52.5938H67.9846C62.4534 52.5938 57.9536 48.0938 57.9536 42.5628C57.9536 37.0318 62.4536 32.5318 67.9846 32.5318H78.0156V28.1412C78.0156 24.2037 74.8125 21.0006 70.875 21.0006H37.25C33.3125 21.0006 30.1094 24.2037 30.1094 28.1412V56.9532C30.1094 60.922 33.3125 64.125 37.25 64.125ZM27.3906 75.734C27.2344 75.1246 26.8437 74.6246 26.2968 74.3121C25.7499 73.9996 25.1249 73.9215 24.5156 74.0777L21.5 74.8902C20.8906 75.0465 20.3906 75.4371 20.0781 75.984C19.7656 76.5309 19.6875 77.1559 19.8437 77.7652L25.0625 97.2652C25.3907 98.5152 26.6875 99.2652 27.9375 98.9214L30.9531 98.1089C32.2031 97.7808 32.9375 96.4839 32.6093 95.2339L27.3906 75.734ZM89.7816 64.281C89.4379 63.9529 88.9691 63.7966 88.5472 63.8279C88.0941 63.8591 87.6722 64.0623 87.3753 64.4216L73.7503 78.0306C72.4222 79.4368 67.4378 80.2337 65.5159 80.2337H65.1097C65.1097 80.3119 65.1253 80.39 65.1253 80.4837C65.1253 84.6556 62.0628 84.9212 61.6409 84.9212H51.5629C51.1254 84.9212 50.7816 84.5775 50.7816 84.14C50.7816 83.7025 51.1254 83.3587 51.5629 83.3587H61.6409C62.5471 83.3587 63.5628 82.1712 63.5628 80.4837C63.5628 78.7962 62.5472 77.6087 61.6409 77.6087H48.5629C48.1879 77.6087 47.8285 77.515 47.4848 77.3431C43.2192 75.14 40.4848 75.6556 39.3754 75.5619C37.8598 75.4369 35.5316 75.5307 32.5473 76.8588C33.9848 82.2338 35.4379 87.6248 36.8754 92.9998C43.5316 93.9529 50.1874 94.9217 56.8444 95.8748C57.4694 95.8592 58.0788 95.7342 58.6725 95.5154L73.7505 89.0935C74.8443 88.6717 75.7193 87.9841 76.3443 87.0935L89.8443 66.6405C90.3912 65.8437 90.3597 64.8279 89.7816 64.281Z" fill="white"/>
</svg>
