<?xml version="1.0" encoding="UTF-8"?>
<svg id="Layer_2" data-name="Layer 2" xmlns="http://www.w3.org/2000/svg" viewBox="0 0 520.03 148.59">
  <defs>
    <style>
      .cls-1 {
        fill: #c9f21d;
      }

      .cls-1, .cls-2 {
        stroke-width: 0px;
      }

      .cls-2 {
        fill: #fff;
      }
    </style>
  </defs>
  <g id="ELEMENTS">
    <path class="cls-1" d="M52.69,148.59v-65.01h21.68l4.12-26.89h-25.8v-17.45c0-7.36,3.6-14.53,15.16-14.53h11.73V1.82s-10.65-1.82-20.83-1.82C37.51,0,23.62,12.88,23.62,36.2v20.5H0v26.89h23.62v65.01h29.07Z"/>
    <g>
      <path class="cls-2" d="M187.95,47.77h-33.29c-.24,0-.36.12-.36.36v22.41c0,.24.12.36.36.36h23.31c.6,0,.91.3.91.91v3.81c0,.6-.3.91-.91.91h-23.31c-.24,0-.36.12-.36.36v27.85c0,.61-.3.91-.91.91h-4.63c-.6,0-.9-.3-.9-.91v-61.68c0-.6.3-.91.9-.91h39.19c.6,0,.91.3.91.91v3.81c0,.6-.3.91-.91.91Z"/>
      <path class="cls-2" d="M223.69,63.19c2.96,2.78,4.45,6.47,4.45,11.07v30.48c0,.61-.3.91-.91.91h-4.63c-.61,0-.91-.3-.91-.91v-3.72c0-.12-.05-.21-.14-.27-.09-.06-.2-.03-.32.09-1.51,1.81-3.48,3.19-5.9,4.13s-5.11,1.41-8.07,1.41c-4.29,0-7.89-1.09-10.79-3.27-2.9-2.18-4.36-5.5-4.36-9.98s1.65-8.12,4.95-10.75c3.29-2.63,7.87-3.95,13.74-3.95h10.52c.24,0,.36-.12.36-.36v-3.45c0-3.08-.86-5.52-2.59-7.3-1.72-1.78-4.4-2.67-8.03-2.67-2.9,0-5.26.56-7.08,1.68s-2.93,2.67-3.36,4.67c-.18.61-.54.88-1.09.82l-4.9-.64c-.67-.12-.94-.36-.82-.72.48-3.39,2.3-6.14,5.44-8.25,3.14-2.12,7.08-3.18,11.79-3.18,5.44,0,9.64,1.39,12.61,4.17ZM217.79,98.16c2.6-1.78,3.9-4.19,3.9-7.21v-7.08c0-.24-.12-.36-.36-.36h-9.53c-3.99,0-7.2.82-9.62,2.45-2.42,1.63-3.63,3.9-3.63,6.8,0,2.66.92,4.67,2.77,6.03,1.84,1.36,4.25,2.04,7.21,2.04,3.57,0,6.65-.89,9.25-2.67Z"/>
      <path class="cls-2" d="M247.68,102.96c-3.12-2.27-5.25-5.34-6.4-9.21-.79-2.66-1.18-6.41-1.18-11.25,0-4.35.39-8.04,1.18-11.07,1.09-3.75,3.21-6.76,6.35-9.02,3.14-2.27,6.89-3.4,11.25-3.4s8.24,1.12,11.47,3.36c3.23,2.24,5.34,5.02,6.3,8.35.3,1.09.48,2,.54,2.72v.18c0,.42-.27.7-.82.82l-4.54.63h-.18c-.42,0-.7-.27-.82-.82l-.27-1.36c-.54-2.3-1.88-4.25-3.99-5.85-2.12-1.6-4.69-2.4-7.71-2.4s-5.55.8-7.57,2.4c-2.03,1.6-3.34,3.74-3.95,6.4-.54,2.3-.82,5.35-.82,9.16s.27,7.08.82,9.25c.6,2.72,1.92,4.88,3.95,6.48,2.02,1.6,4.55,2.4,7.57,2.4s5.52-.77,7.67-2.31c2.14-1.54,3.49-3.52,4.04-5.94v-.36l.09-.36c.06-.6.42-.85,1.09-.72l4.45.72c.6.12.88.45.82,1l-.36,1.81c-.91,3.51-2.99,6.35-6.26,8.53-3.26,2.18-7.11,3.27-11.52,3.27s-8.09-1.13-11.2-3.4Z"/>
      <path class="cls-2" d="M324.01,81.33v2.9c0,.61-.3.91-.91.91h-29.3c-.24,0-.36.12-.36.36.12,3.33.3,5.47.54,6.44.66,2.72,2.09,4.87,4.26,6.44s4.96,2.36,8.35,2.36c2.54,0,4.78-.57,6.71-1.72,1.93-1.15,3.45-2.78,4.53-4.9.36-.54.79-.67,1.27-.36l3.54,2.09c.48.3.6.72.36,1.27-1.51,2.9-3.78,5.18-6.8,6.85-3.03,1.66-6.5,2.49-10.43,2.49-4.29-.06-7.89-1.09-10.8-3.08-2.9-1.99-4.99-4.78-6.26-8.34-1.09-2.9-1.63-7.08-1.63-12.52,0-2.54.04-4.61.14-6.21.09-1.6.32-3.04.68-4.31,1.03-3.93,3.1-7.08,6.21-9.43,3.11-2.36,6.88-3.54,11.29-3.54,5.5,0,9.73,1.39,12.7,4.17,2.96,2.78,4.81,6.71,5.53,11.79.24,1.69.36,3.81.36,6.35ZM298.02,66.95c-1.96,1.54-3.25,3.61-3.86,6.22-.36,1.27-.6,3.33-.72,6.17,0,.24.12.36.36.36h23.49c.24,0,.36-.12.36-.36-.12-2.72-.3-4.65-.54-5.8-.67-2.72-2.01-4.88-4.04-6.49-2.03-1.6-4.58-2.4-7.67-2.4s-5.43.77-7.39,2.31Z"/>
      <path class="cls-2" d="M373.17,82.69c0,4.96-.42,8.8-1.27,11.52-1.15,3.75-3.15,6.71-5.99,8.89-2.84,2.18-6.38,3.27-10.61,3.27-2.42,0-4.63-.49-6.62-1.45-1.99-.97-3.66-2.36-4.99-4.17-.06-.12-.15-.17-.27-.14-.12.03-.18.11-.18.23v3.9c0,.61-.3.91-.91.91h-4.63c-.6,0-.91-.3-.91-.91v-61.68c0-.6.3-.91.91-.91h4.63c.6,0,.91.3.91.91v21.41c0,.12.04.2.14.23.09.03.19-.01.32-.14,1.33-1.75,2.99-3.11,4.99-4.08,2-.97,4.2-1.45,6.62-1.45,4.29,0,7.89,1.1,10.79,3.31,2.9,2.21,4.9,5.25,5.99,9.11.72,2.72,1.09,6.47,1.09,11.25ZM366.37,89.36c.24-1.6.36-3.82.36-6.67s-.17-5.28-.5-6.94c-.33-1.66-.86-3.16-1.59-4.49-.79-2-2.06-3.6-3.81-4.81-1.75-1.21-3.84-1.81-6.26-1.81s-4.28.62-5.94,1.86c-1.66,1.24-2.86,2.89-3.58,4.94-.61,1.27-1.05,2.72-1.32,4.35-.27,1.63-.41,3.93-.41,6.9s.14,5.16.41,6.76.68,3.04,1.23,4.31c.78,2.12,1.99,3.81,3.63,5.08,1.63,1.27,3.66,1.9,6.08,1.9,2.54,0,4.73-.63,6.58-1.9s3.13-2.99,3.86-5.17c.6-1.27,1.03-2.71,1.27-4.31Z"/>
      <path class="cls-2" d="M391.95,103.01c-3.15-2.24-5.32-5.32-6.53-9.25-.85-2.78-1.27-6.5-1.27-11.16s.42-8.35,1.27-11.07c1.15-3.87,3.3-6.92,6.44-9.16,3.14-2.24,6.95-3.36,11.43-3.36s8,1.12,11.11,3.36c3.11,2.24,5.25,5.26,6.4,9.07.85,2.6,1.27,6.32,1.27,11.16s-.42,8.62-1.27,11.16c-1.15,3.93-3.28,7.02-6.4,9.25-3.11,2.24-6.85,3.36-11.2,3.36s-8.1-1.12-11.25-3.36ZM410.64,98.34c2.06-1.6,3.45-3.76,4.17-6.48.54-2.18.82-5.23.82-9.16s-.24-7.04-.72-9.16c-.73-2.72-2.13-4.88-4.22-6.49s-4.61-2.4-7.57-2.4-5.48.8-7.53,2.4c-2.06,1.6-3.45,3.76-4.17,6.49-.48,2.12-.72,5.17-.72,9.16s.24,7.04.72,9.16c.67,2.72,2.04,4.88,4.13,6.48,2.09,1.6,4.64,2.4,7.67,2.4s5.38-.8,7.44-2.4Z"/>
      <path class="cls-2" d="M441.39,103.01c-3.15-2.24-5.32-5.32-6.53-9.25-.85-2.78-1.27-6.5-1.27-11.16s.42-8.35,1.27-11.07c1.15-3.87,3.3-6.92,6.44-9.16,3.14-2.24,6.95-3.36,11.43-3.36s8,1.12,11.11,3.36c3.11,2.24,5.25,5.26,6.4,9.07.85,2.6,1.27,6.32,1.27,11.16s-.42,8.62-1.27,11.16c-1.15,3.93-3.28,7.02-6.4,9.25-3.11,2.24-6.85,3.36-11.2,3.36s-8.1-1.12-11.25-3.36ZM460.07,98.34c2.06-1.6,3.45-3.76,4.17-6.48.54-2.18.82-5.23.82-9.16s-.24-7.04-.72-9.16c-.73-2.72-2.13-4.88-4.22-6.49s-4.61-2.4-7.57-2.4-5.48.8-7.53,2.4c-2.06,1.6-3.45,3.76-4.17,6.49-.48,2.12-.72,5.17-.72,9.16s.24,7.04.72,9.16c.67,2.72,2.04,4.88,4.13,6.48,2.09,1.6,4.64,2.4,7.67,2.4s5.38-.8,7.44-2.4Z"/>
      <path class="cls-2" d="M484.56,104.73v-61.68c0-.6.3-.91.91-.91h4.63c.6,0,.91.3.91.91v37.1c0,.12.04.21.14.27.09.06.19.03.32-.09l19.23-20.14c.3-.3.66-.45,1.09-.45h5.44c.36,0,.6.12.72.36.12.24.06.49-.18.73l-11.61,12.88c-.12.12-.15.27-.09.45l13.88,30.39.09.36c0,.49-.27.72-.82.72h-4.9c-.48,0-.82-.24-1-.72l-11.7-26.49c-.12-.24-.27-.27-.45-.09l-9.98,10.52c-.12.12-.18.27-.18.45v15.42c0,.61-.3.91-.91.91h-4.63c-.6,0-.91-.3-.91-.91Z"/>
    </g>
  </g>
</svg>