<?xml version="1.0" encoding="UTF-8"?>
<svg id="Layer_2" data-name="Layer 2" xmlns="http://www.w3.org/2000/svg" viewBox="0 0 582.35 131.2">
  <defs>
    <style>
      .cls-1 {
        fill: #c9f21d;
      }

      .cls-1, .cls-2 {
        stroke-width: 0px;
      }

      .cls-2 {
        fill: #fff;
      }
    </style>
  </defs>
  <g id="ELEMENTS">
    <g>
      <path class="cls-1" d="M100.33,23.43c-4.25,0-7.69,3.44-7.69,7.69s3.44,7.69,7.69,7.69,7.69-3.44,7.69-7.69-3.44-7.69-7.69-7.69Z"/>
      <path class="cls-1" d="M66.14,33.29c-17.82,0-32.31,14.49-32.31,32.31s14.5,32.31,32.31,32.31,32.31-14.49,32.31-32.31-14.49-32.31-32.31-32.31ZM66.14,86.3c-11.41,0-20.7-9.28-20.7-20.7s9.28-20.7,20.7-20.7,20.7,9.28,20.7,20.7-9.28,20.7-20.7,20.7Z"/>
      <path class="cls-1" d="M91.79,131.2h-52.38C17.68,131.2,0,113.52,0,91.79v-52.38C0,17.68,17.68,0,39.41,0h52.38c21.73,0,39.41,17.68,39.41,39.41v52.38c0,21.73-17.68,39.41-39.41,39.41ZM39.41,12.34c-14.92,0-27.07,12.14-27.07,27.06v52.38c0,14.92,12.14,27.07,27.07,27.07h52.38c14.92,0,27.07-12.14,27.07-27.07v-52.38c0-14.92-12.14-27.06-27.07-27.06h-52.38Z"/>
    </g>
    <g>
      <path class="cls-2" d="M199.47,87.42V25.73c0-.6.3-.91.9-.91h4.63c.6,0,.91.3.91.91v61.68c0,.61-.3.91-.91.91h-4.63c-.6,0-.9-.3-.9-.91Z"/>
      <path class="cls-2" d="M252.31,46.05c2.87,2.84,4.31,6.65,4.31,11.43v29.93c0,.61-.3.91-.91.91h-4.63c-.6,0-.91-.3-.91-.91v-28.66c0-3.32-1.01-6.05-3.04-8.16-2.03-2.12-4.64-3.18-7.85-3.18s-6.02,1.03-8.07,3.08c-2.06,2.06-3.08,4.75-3.08,8.07v28.85c0,.61-.3.91-.91.91h-4.63c-.6,0-.91-.3-.91-.91v-44.08c0-.6.3-.91.91-.91h4.63c.6,0,.91.3.91.91v3.9c0,.12.04.21.14.27s.17.03.23-.09c2.66-3.75,6.74-5.62,12.25-5.62,4.84,0,8.69,1.42,11.57,4.26Z"/>
      <path class="cls-2" d="M276.62,87.14c-2.63-1.09-4.66-2.54-6.08-4.35-1.42-1.81-2.13-3.84-2.13-6.08v-1.09c0-.6.3-.91.91-.91h4.35c.6,0,.91.3.91.91v.73c0,2,1.04,3.73,3.13,5.22,2.09,1.48,4.7,2.22,7.84,2.22s5.68-.71,7.62-2.13c1.93-1.42,2.9-3.22,2.9-5.4,0-1.51-.5-2.75-1.5-3.72-1-.97-2.18-1.72-3.54-2.27-1.36-.54-3.46-1.24-6.3-2.09-3.39-.97-6.17-1.93-8.35-2.9-2.18-.97-4.01-2.31-5.49-4.04s-2.22-3.92-2.22-6.58c0-3.87,1.51-6.95,4.53-9.25,3.03-2.3,7.01-3.45,11.97-3.45,3.33,0,6.27.54,8.84,1.63,2.57,1.09,4.55,2.58,5.94,4.49s2.09,4.04,2.09,6.4v.27c0,.61-.3.91-.9.91h-4.27c-.6,0-.91-.3-.91-.91v-.27c0-2.05-.98-3.78-2.95-5.17-1.97-1.39-4.61-2.09-7.94-2.09-3.08,0-5.56.62-7.44,1.86-1.87,1.24-2.81,2.95-2.81,5.13,0,2.06.91,3.63,2.72,4.72,1.81,1.09,4.63,2.18,8.44,3.27,3.51,1.03,6.35,2,8.53,2.9s4.05,2.22,5.62,3.95c1.57,1.72,2.36,3.98,2.36,6.76,0,3.93-1.54,7.08-4.63,9.43s-7.17,3.54-12.25,3.54c-3.39,0-6.4-.54-9.03-1.63Z"/>
      <path class="cls-2" d="M333.81,47.78h-10.25c-.24,0-.36.12-.36.36v26.76c0,2.9.65,4.94,1.95,6.12,1.3,1.18,3.34,1.77,6.12,1.77h2.27c.6,0,.91.3.91.91v3.72c0,.61-.3.91-.91.91-.72.06-1.84.09-3.36.09-4.35,0-7.65-.82-9.89-2.45-2.24-1.63-3.36-4.66-3.36-9.07v-28.75c0-.24-.12-.36-.36-.36h-5.53c-.6,0-.9-.3-.9-.91v-3.54c0-.6.3-.91.9-.91h5.53c.24,0,.36-.12.36-.36v-10.52c0-.6.3-.91.91-.91h4.45c.6,0,.91.3.91.91v10.52c0,.24.12.36.36.36h10.25c.6,0,.91.3.91.91v3.54c0,.61-.3.91-.91.91Z"/>
      <path class="cls-2" d="M375.62,45.87c2.96,2.78,4.45,6.47,4.45,11.07v30.48c0,.61-.3.91-.91.91h-4.63c-.61,0-.91-.3-.91-.91v-3.72c0-.12-.05-.21-.14-.27-.09-.06-.2-.03-.32.09-1.51,1.81-3.48,3.19-5.9,4.13s-5.11,1.41-8.07,1.41c-4.29,0-7.89-1.09-10.79-3.27-2.9-2.18-4.36-5.5-4.36-9.98s1.65-8.12,4.95-10.75c3.29-2.63,7.87-3.95,13.74-3.95h10.52c.24,0,.36-.12.36-.36v-3.45c0-3.08-.86-5.52-2.59-7.3-1.72-1.78-4.4-2.67-8.03-2.67-2.9,0-5.26.56-7.08,1.68-1.81,1.12-2.93,2.68-3.36,4.67-.18.61-.54.88-1.09.82l-4.9-.63c-.67-.12-.94-.36-.82-.73.48-3.39,2.3-6.14,5.44-8.25,3.14-2.12,7.08-3.18,11.79-3.18,5.44,0,9.64,1.39,12.61,4.17ZM369.73,80.84c2.6-1.78,3.9-4.19,3.9-7.21v-7.07c0-.24-.12-.36-.36-.36h-9.53c-3.99,0-7.2.82-9.62,2.45s-3.63,3.9-3.63,6.8c0,2.66.92,4.67,2.77,6.03,1.84,1.36,4.25,2.04,7.21,2.04,3.57,0,6.65-.89,9.25-2.68Z"/>
      <path class="cls-2" d="M422.7,42.42h4.63c.6,0,.91.3.91.91v43.45c0,6.77-1.95,11.73-5.85,14.88-3.9,3.14-9.27,4.72-16.1,4.72-1.39,0-2.45-.03-3.18-.09-.6-.06-.91-.39-.91-1l.18-4.17c0-.3.09-.53.27-.68.18-.15.39-.2.64-.14l2.45.09c5.63,0,9.71-1.1,12.25-3.31,2.54-2.21,3.81-5.7,3.81-10.48v-3.36c0-.12-.05-.19-.14-.23-.09-.03-.2.02-.32.14-2.78,3.63-6.75,5.44-11.88,5.44-3.93,0-7.42-1.06-10.48-3.18-3.05-2.12-5.09-5.11-6.12-8.98-.72-2.48-1.09-6.17-1.09-11.07,0-2.66.08-4.9.23-6.71.15-1.81.47-3.45.95-4.9,1.09-3.63,3.05-6.55,5.89-8.75,2.84-2.21,6.26-3.31,10.25-3.31,5.38,0,9.46,1.78,12.25,5.35.12.12.23.15.32.09.09-.06.14-.15.14-.27v-3.54c0-.6.3-.91.91-.91ZM421.7,71.09c.06-1.33.09-3.27.09-5.81,0-3.08-.03-5.15-.09-6.21-.06-1.06-.21-2.04-.45-2.95-.49-2.54-1.68-4.64-3.58-6.3-1.91-1.66-4.31-2.49-7.21-2.49s-5.25.82-7.21,2.45c-1.97,1.63-3.34,3.75-4.13,6.35-.61,1.94-.91,4.96-.91,9.07,0,4.41.3,7.47.91,9.16.6,2.54,1.92,4.64,3.94,6.3,2.03,1.66,4.49,2.5,7.39,2.5s5.4-.82,7.3-2.45c1.91-1.63,3.1-3.72,3.58-6.26.18-.91.3-2.03.36-3.36Z"/>
      <path class="cls-2" d="M465.69,43.15c.48.24.67.63.54,1.18l-1,4.45c-.18.61-.57.79-1.18.54-1.03-.42-2.21-.63-3.54-.63l-1.18.09c-3.15.12-5.75,1.29-7.8,3.49-2.06,2.21-3.08,5-3.08,8.39v26.76c0,.61-.3.91-.91.91h-4.63c-.6,0-.91-.3-.91-.91v-44.08c0-.6.3-.91.91-.91h4.63c.6,0,.91.3.91.91v5.53c0,.18.04.29.14.32.09.03.17-.01.23-.14,1.27-2.24,2.89-3.98,4.85-5.22,1.96-1.24,4.25-1.86,6.85-1.86,2,0,3.72.39,5.17,1.18Z"/>
      <path class="cls-2" d="M503.34,45.87c2.96,2.78,4.45,6.47,4.45,11.07v30.48c0,.61-.3.91-.91.91h-4.63c-.61,0-.91-.3-.91-.91v-3.72c0-.12-.05-.21-.14-.27-.09-.06-.2-.03-.32.09-1.51,1.81-3.48,3.19-5.9,4.13s-5.11,1.41-8.07,1.41c-4.29,0-7.89-1.09-10.79-3.27-2.9-2.18-4.36-5.5-4.36-9.98s1.65-8.12,4.95-10.75c3.29-2.63,7.87-3.95,13.74-3.95h10.52c.24,0,.36-.12.36-.36v-3.45c0-3.08-.86-5.52-2.59-7.3-1.72-1.78-4.4-2.67-8.03-2.67-2.9,0-5.26.56-7.08,1.68-1.81,1.12-2.93,2.68-3.36,4.67-.18.61-.54.88-1.09.82l-4.9-.63c-.67-.12-.94-.36-.82-.73.48-3.39,2.3-6.14,5.44-8.25,3.14-2.12,7.08-3.18,11.79-3.18,5.44,0,9.64,1.39,12.61,4.17ZM497.44,80.84c2.6-1.78,3.9-4.19,3.9-7.21v-7.07c0-.24-.12-.36-.36-.36h-9.53c-3.99,0-7.2.82-9.62,2.45s-3.63,3.9-3.63,6.8c0,2.66.92,4.67,2.77,6.03,1.84,1.36,4.25,2.04,7.21,2.04,3.57,0,6.65-.89,9.25-2.68Z"/>
      <path class="cls-2" d="M578.4,45.87c2.63,2.72,3.95,6.44,3.95,11.16v30.39c0,.61-.3.91-.91.91h-4.54c-.6,0-.91-.3-.91-.91v-29.12c0-3.32-.95-5.97-2.86-7.94-1.9-1.96-4.4-2.95-7.48-2.95s-5.79.97-7.76,2.9-2.95,4.54-2.95,7.8v29.3c0,.61-.3.91-.91.91h-4.63c-.61,0-.91-.3-.91-.91v-29.12c0-3.32-.94-5.97-2.81-7.94s-4.38-2.95-7.53-2.95-5.76.97-7.67,2.9c-1.91,1.94-2.86,4.54-2.86,7.8v29.3c0,.61-.3.91-.91.91h-4.63c-.6,0-.91-.3-.91-.91v-44.08c0-.6.3-.91.91-.91h4.63c.6,0,.91.3.91.91v3.63c0,.12.04.2.14.23.09.03.19-.01.32-.14,1.33-1.75,3.04-3.07,5.12-3.95,2.09-.88,4.4-1.32,6.94-1.32,3.14,0,5.84.63,8.07,1.9,2.24,1.27,3.93,3.12,5.08,5.53.12.3.27.3.45,0,1.33-2.48,3.21-4.34,5.62-5.58,2.42-1.24,5.17-1.86,8.25-1.86,4.54,0,8.12,1.36,10.75,4.08Z"/>
    </g>
  </g>
</svg>