<?xml version="1.0" encoding="UTF-8"?>
<svg id="Layer_2" data-name="Layer 2" xmlns="http://www.w3.org/2000/svg" viewBox="0 0 419.41 131.24">
  <defs>
    <style>
      .cls-1 {
        fill: #c9f21d;
      }

      .cls-1, .cls-2 {
        stroke-width: 0px;
      }

      .cls-2 {
        fill: #fff;
      }
    </style>
  </defs>
  <g id="ELEMENTS">
    <path class="cls-1" d="M112.31,53.1h-.02c-1.07.1-2.15.16-3.23.16-11.82,0-22.84-5.96-29.31-15.84v53.95c0,22.02-17.85,39.87-39.87,39.87S0,113.39,0,91.37s17.85-39.87,39.87-39.87c.83,0,1.65.07,2.47.13v19.65c-.82-.1-1.62-.25-2.47-.25-11.24,0-20.35,9.11-20.35,20.35s9.11,20.35,20.35,20.35,21.17-8.86,21.17-20.1l.2-91.62h18.8c1.77,16.86,15.36,30.02,32.27,31.26v21.84Z"/>
    <g>
      <path class="cls-2" d="M224.39,34.87v3.9c0,.61-.3.91-.91.91h-17.78c-.24,0-.36.12-.36.36v56.51c0,.61-.3.91-.9.91h-4.63c-.6,0-.91-.3-.91-.91v-56.51c0-.24-.12-.36-.36-.36h-17.05c-.6,0-.91-.3-.91-.91v-3.9c0-.6.3-.91.91-.91h42c.6,0,.91.3.91.91Z"/>
      <path class="cls-2" d="M235,41.76c-.97-.97-1.45-2.18-1.45-3.63s.48-2.74,1.45-3.67c.97-.94,2.18-1.41,3.63-1.41s2.66.47,3.63,1.41c.97.94,1.45,2.16,1.45,3.67s-.49,2.66-1.45,3.63c-.97.97-2.18,1.45-3.63,1.45s-2.66-.48-3.63-1.45ZM235.18,96.46v-44.09c0-.6.3-.91.91-.91h4.63c.6,0,.91.3.91.91v44.09c0,.61-.3.91-.91.91h-4.63c-.6,0-.91-.3-.91-.91Z"/>
      <path class="cls-2" d="M257.4,96.55v-61.68c0-.6.3-.91.91-.91h4.63c.6,0,.91.3.91.91v37.1c0,.12.04.21.14.27.09.06.19.03.32-.09l19.23-20.14c.3-.3.66-.45,1.09-.45h5.44c.36,0,.6.12.72.36.12.24.06.48-.18.73l-11.61,12.88c-.12.12-.15.27-.09.45l13.88,30.39.09.36c0,.49-.27.73-.82.73h-4.9c-.48,0-.82-.24-1-.73l-11.7-26.49c-.12-.24-.27-.27-.45-.09l-9.98,10.52c-.12.12-.18.27-.18.45v15.42c0,.61-.3.91-.91.91h-4.63c-.6,0-.91-.3-.91-.91Z"/>
      <path class="cls-2" d="M322.53,56.91h-10.25c-.24,0-.36.12-.36.36v26.76c0,2.9.65,4.94,1.95,6.12,1.3,1.18,3.34,1.77,6.12,1.77h2.27c.6,0,.91.3.91.91v3.72c0,.61-.3.91-.91.91-.72.06-1.84.09-3.36.09-4.35,0-7.65-.82-9.89-2.45-2.24-1.63-3.36-4.66-3.36-9.07v-28.75c0-.24-.12-.36-.36-.36h-5.53c-.6,0-.9-.3-.9-.91v-3.54c0-.6.3-.91.9-.91h5.53c.24,0,.36-.12.36-.36v-10.52c0-.6.3-.91.91-.91h4.45c.6,0,.91.3.91.91v10.52c0,.24.12.36.36.36h10.25c.6,0,.91.3.91.91v3.54c0,.61-.3.91-.91.91Z"/>
      <path class="cls-2" d="M340.77,94.83c-3.15-2.24-5.32-5.32-6.53-9.25-.85-2.78-1.27-6.5-1.27-11.16s.42-8.34,1.27-11.07c1.15-3.87,3.3-6.92,6.44-9.16,3.14-2.24,6.95-3.36,11.43-3.36s8,1.12,11.11,3.36c3.11,2.24,5.25,5.26,6.4,9.07.85,2.6,1.27,6.32,1.27,11.16s-.42,8.62-1.27,11.16c-1.15,3.93-3.28,7.02-6.4,9.25-3.11,2.24-6.85,3.36-11.2,3.36s-8.1-1.12-11.25-3.36ZM359.45,90.15c2.06-1.6,3.45-3.76,4.17-6.49.54-2.18.82-5.23.82-9.16s-.24-7.04-.72-9.16c-.73-2.72-2.13-4.88-4.22-6.49s-4.61-2.4-7.57-2.4-5.48.8-7.53,2.4c-2.06,1.6-3.45,3.76-4.17,6.49-.48,2.12-.72,5.17-.72,9.16s.24,7.04.72,9.16c.67,2.72,2.04,4.88,4.13,6.49,2.09,1.6,4.64,2.4,7.67,2.4s5.38-.8,7.44-2.4Z"/>
      <path class="cls-2" d="M383.94,96.55v-61.68c0-.6.3-.91.91-.91h4.63c.6,0,.91.3.91.91v37.1c0,.12.04.21.14.27.09.06.19.03.32-.09l19.23-20.14c.3-.3.66-.45,1.09-.45h5.44c.36,0,.6.12.72.36.12.24.06.48-.18.73l-11.61,12.88c-.12.12-.15.27-.09.45l13.88,30.39.09.36c0,.49-.27.73-.82.73h-4.9c-.48,0-.82-.24-1-.73l-11.7-26.49c-.12-.24-.27-.27-.45-.09l-9.98,10.52c-.12.12-.18.27-.18.45v15.42c0,.61-.3.91-.91.91h-4.63c-.6,0-.91-.3-.91-.91Z"/>
    </g>
  </g>
</svg>