<?xml version="1.0" encoding="UTF-8"?>
<svg id="Layer_2" data-name="Layer 2" xmlns="http://www.w3.org/2000/svg" viewBox="0 0 510.13 79.32">
  <defs>
    <style>
      .cls-1 {
        fill: #c9f21d;
      }

      .cls-1, .cls-2 {
        stroke-width: 0px;
      }

      .cls-2 {
        fill: #fff;
      }
    </style>
  </defs>
  <g id="ELEMENTS">
    <path class="cls-1" d="M113.31,24.87c0-13.73-11.13-24.87-24.87-24.87H24.87C11.13,0,0,11.13,0,24.87v29.59c0,13.73,11.13,24.87,24.87,24.87h63.58c13.73,0,24.87-11.13,24.87-24.87v-29.59ZM75.92,41.88l-28.51,14.11c-1.12.61-4.92-.2-4.92-1.48v-28.96c0-1.29,3.83-2.1,4.95-1.46l27.29,14.85c1.14.65,2.35,2.31,1.19,2.93Z"/>
    <g>
      <path class="cls-2" d="M200.73,70v-26.85c0-.24-.03-.39-.09-.45l-18.87-34.11c-.12-.24-.18-.42-.18-.54,0-.36.27-.54.82-.54h4.9c.54,0,.91.21,1.09.63l15.24,27.67c.06.06.15.09.27.09s.21-.03.27-.09l15.33-27.67c.24-.42.6-.63,1.09-.63h4.9c.36,0,.6.11.72.32s.09.47-.09.77l-18.87,34.11c-.06.06-.09.21-.09.45v26.85c0,.61-.3.91-.91.91h-4.63c-.6,0-.9-.3-.9-.91Z"/>
      <path class="cls-2" d="M237.55,68.37c-3.15-2.24-5.32-5.32-6.53-9.25-.85-2.78-1.27-6.5-1.27-11.16s.42-8.34,1.27-11.06c1.15-3.87,3.3-6.93,6.44-9.16s6.95-3.36,11.43-3.36,8,1.12,11.11,3.36,5.25,5.26,6.4,9.07c.85,2.6,1.27,6.32,1.27,11.16s-.42,8.62-1.27,11.16c-1.15,3.93-3.28,7.02-6.4,9.25-3.11,2.24-6.85,3.36-11.2,3.36s-8.1-1.12-11.25-3.36ZM256.24,63.7c2.06-1.6,3.45-3.76,4.17-6.49.54-2.18.82-5.23.82-9.16s-.24-7.04-.72-9.16c-.73-2.72-2.13-4.88-4.22-6.48s-4.61-2.4-7.57-2.4-5.48.8-7.53,2.4c-2.06,1.6-3.45,3.76-4.17,6.48-.48,2.12-.72,5.17-.72,9.16s.24,7.05.72,9.16c.67,2.72,2.04,4.88,4.13,6.49,2.09,1.6,4.64,2.4,7.67,2.4s5.38-.8,7.44-2.4Z"/>
      <path class="cls-2" d="M309.39,25.1h4.63c.6,0,.91.3.91.91v44.08c0,.6-.3.91-.91.91h-4.63c-.61,0-.91-.3-.91-.91v-3.9c0-.12-.06-.21-.18-.27-.12-.06-.21-.03-.27.09-2.54,3.75-6.56,5.62-12.06,5.62-2.9,0-5.58-.59-8.03-1.77-2.45-1.18-4.38-2.89-5.8-5.13-1.42-2.24-2.13-4.93-2.13-8.07v-30.66c0-.6.3-.91.91-.91h4.63c.6,0,.91.3.91.91v28.75c0,3.45.97,6.18,2.9,8.21,1.93,2.03,4.56,3.04,7.89,3.04s6.18-1.03,8.21-3.08c2.03-2.05,3.04-4.78,3.04-8.16v-28.75c0-.6.3-.91.91-.91Z"/>
      <path class="cls-2" d="M369.8,8.41v3.9c0,.6-.3.91-.91.91h-17.78c-.24,0-.36.12-.36.36v56.51c0,.6-.3.91-.9.91h-4.63c-.6,0-.91-.3-.91-.91V13.58c0-.24-.12-.36-.36-.36h-17.05c-.6,0-.91-.3-.91-.91v-3.9c0-.6.3-.91.91-.91h42c.6,0,.91.3.91.91Z"/>
      <path class="cls-2" d="M405.73,25.1h4.63c.6,0,.91.3.91.91v44.08c0,.6-.3.91-.91.91h-4.63c-.61,0-.91-.3-.91-.91v-3.9c0-.12-.06-.21-.18-.27-.12-.06-.21-.03-.27.09-2.54,3.75-6.56,5.62-12.06,5.62-2.9,0-5.58-.59-8.03-1.77-2.45-1.18-4.38-2.89-5.8-5.13-1.42-2.24-2.13-4.93-2.13-8.07v-30.66c0-.6.3-.91.91-.91h4.63c.6,0,.91.3.91.91v28.75c0,3.45.97,6.18,2.9,8.21,1.93,2.03,4.56,3.04,7.89,3.04s6.18-1.03,8.21-3.08c2.03-2.05,3.04-4.78,3.04-8.16v-28.75c0-.6.3-.91.91-.91Z"/>
      <path class="cls-2" d="M462.05,48.05c0,4.96-.42,8.8-1.27,11.52-1.15,3.75-3.15,6.71-5.99,8.89-2.84,2.18-6.38,3.26-10.61,3.26-2.42,0-4.63-.49-6.62-1.45-1.99-.97-3.66-2.36-4.99-4.17-.06-.12-.15-.17-.27-.14s-.18.11-.18.23v3.9c0,.6-.3.91-.91.91h-4.63c-.6,0-.91-.3-.91-.91V8.41c0-.6.3-.91.91-.91h4.63c.6,0,.91.3.91.91v21.41c0,.12.04.2.14.23.09.03.19-.01.32-.14,1.33-1.75,2.99-3.11,4.99-4.08,2-.97,4.2-1.45,6.62-1.45,4.29,0,7.89,1.1,10.79,3.31,2.9,2.21,4.9,5.25,5.99,9.12.72,2.72,1.09,6.47,1.09,11.25ZM455.25,54.72c.24-1.6.36-3.82.36-6.67s-.17-5.27-.5-6.94c-.33-1.66-.86-3.16-1.59-4.49-.79-1.99-2.06-3.6-3.81-4.81-1.75-1.21-3.84-1.81-6.26-1.81s-4.28.62-5.94,1.86c-1.66,1.24-2.86,2.89-3.58,4.94-.61,1.27-1.05,2.72-1.32,4.35s-.41,3.93-.41,6.89.14,5.16.41,6.76c.27,1.6.68,3.04,1.23,4.31.78,2.12,1.99,3.81,3.63,5.08,1.63,1.27,3.66,1.91,6.08,1.91,2.54,0,4.73-.64,6.58-1.91s3.13-2.99,3.86-5.17c.6-1.27,1.03-2.7,1.27-4.31Z"/>
      <path class="cls-2" d="M510.13,46.69v2.9c0,.6-.3.91-.91.91h-29.3c-.24,0-.36.12-.36.36.12,3.33.3,5.47.54,6.44.66,2.72,2.09,4.87,4.26,6.44,2.18,1.57,4.96,2.36,8.35,2.36,2.54,0,4.78-.57,6.71-1.72,1.93-1.15,3.45-2.78,4.53-4.9.36-.54.79-.67,1.27-.36l3.54,2.09c.48.3.6.72.36,1.27-1.51,2.9-3.78,5.19-6.8,6.85-3.03,1.66-6.5,2.5-10.43,2.5-4.29-.06-7.89-1.09-10.8-3.08-2.9-2-4.99-4.78-6.26-8.35-1.09-2.9-1.63-7.08-1.63-12.52,0-2.54.04-4.61.14-6.22.09-1.6.32-3.04.68-4.31,1.03-3.93,3.1-7.08,6.21-9.44,3.11-2.36,6.88-3.54,11.29-3.54,5.5,0,9.73,1.39,12.7,4.17,2.96,2.78,4.81,6.71,5.53,11.79.24,1.69.36,3.81.36,6.35ZM484.14,32.31c-1.96,1.54-3.25,3.61-3.86,6.21-.36,1.27-.6,3.33-.72,6.17,0,.24.12.36.36.36h23.49c.24,0,.36-.12.36-.36-.12-2.72-.3-4.66-.54-5.81-.67-2.72-2.01-4.88-4.04-6.48-2.03-1.6-4.58-2.4-7.67-2.4s-5.43.77-7.39,2.31Z"/>
    </g>
  </g>
</svg>