<?xml version="1.0" encoding="UTF-8"?>
<svg id="Layer_1" data-name="Layer 1" xmlns="http://www.w3.org/2000/svg" viewBox="0 0 100 100">
  <defs>
    <style>
      .cls-1 {
        fill: #fff;
        fill-rule: evenodd;
        stroke-width: 0px;
      }
    </style>
  </defs>
  <path class="cls-1" d="M31.33,17.35c.57-.33,1.3-.13,1.63.44.33.57.13,1.3-.44,1.63-5.45,3.13-9.97,7.65-13.1,13.1-.33.57-1.06.77-1.63.44-.57-.33-.77-1.06-.44-1.63,3.33-5.82,8.16-10.64,13.98-13.98h0ZM50,46.09c4.55,0,8.66,2.74,10.4,6.94,1.74,4.21.78,9.05-2.44,12.26-3.21,3.22-8.05,4.18-12.26,2.44-4.2-1.74-6.95-5.84-6.95-10.4,0-6.21,5.04-11.25,11.25-11.25h0ZM73.13,86.23c0,6.39-10.36,11.57-23.13,11.57s-23.13-5.18-23.13-11.57c0-8.76,8.37-14.74,16.77-16.82h0c3.98,2.1,8.75,2.1,12.73,0,8.4,2.08,16.77,8.07,16.77,16.82h0ZM15.69,36.51c-5.46,0-10.38,3.29-12.46,8.33-2.09,5.04-.94,10.84,2.92,14.7,3.86,3.86,9.66,5.01,14.7,2.92,5.04-2.09,8.33-7.01,8.33-12.46,0-7.45-6.04-13.49-13.49-13.49h0ZM20.28,55.78h-9.18c-.66,0-1.2-.53-1.2-1.2v-9.18c0-.66.54-1.2,1.2-1.2h9.18c.66,0,1.2.53,1.2,1.2v9.18c0,.66-.53,1.2-1.2,1.2h0ZM12.29,53.39v-6.79h6.79v6.79h-6.79ZM84.31,36.51c-5.45,0-10.37,3.29-12.46,8.33-2.09,5.04-.93,10.84,2.93,14.7,3.86,3.86,9.66,5.01,14.7,2.92,5.04-2.09,8.33-7.01,8.33-12.46,0-7.45-6.04-13.49-13.49-13.49h0ZM84.31,43.44c2.65,0,5.04,1.6,6.06,4.05,1.01,2.45.45,5.27-1.42,7.15-1.88,1.87-4.7,2.43-7.14,1.42-2.45-1.01-4.05-3.4-4.05-6.05,0-3.62,2.93-6.56,6.55-6.56ZM84.31,45.83c1.68,0,3.21,1.02,3.85,2.57.65,1.56.29,3.35-.9,4.54-1.19,1.2-2.98,1.55-4.54.9-1.56-.65-2.57-2.16-2.57-3.85,0-1.1.44-2.16,1.22-2.94.78-.78,1.84-1.22,2.94-1.22h0ZM50,2.2c-5.46,0-10.38,3.29-12.46,8.33-2.09,5.04-.93,10.84,2.92,14.7,3.86,3.86,9.66,5.02,14.7,2.93,5.04-2.09,8.33-7.01,8.33-12.46,0-3.58-1.42-7.01-3.95-9.54s-5.96-3.95-9.54-3.95h0ZM51.07,8.36l6.01,10.41c.21.37.21.82,0,1.19-.21.37-.6.59-1.03.59h0s-12.09,0-12.09,0c-.45,0-.86-.25-1.06-.65-.21-.39-.17-.88.09-1.24,2-3.46,4-6.92,5.99-10.38.22-.38.63-.61,1.07-.59.44.02.83.27,1.03.66h0ZM50,11.27l3.98,6.9h-7.97c1.33-2.3,2.66-4.6,3.98-6.9h0ZM82.65,31.33c.33.57.13,1.3-.44,1.63-.57.33-1.3.13-1.63-.44-3.13-5.45-7.65-9.97-13.1-13.1-.27-.16-.47-.41-.56-.72-.08-.31-.04-.63.12-.91.33-.57,1.06-.77,1.63-.44,5.82,3.34,10.65,8.16,13.98,13.98h0ZM17.35,68.67c2.29,3.98,5.28,7.52,8.84,10.43.36-.72.78-1.41,1.24-2.08-3.21-2.68-5.92-5.92-8-9.54-.15-.28-.41-.49-.72-.58-.31-.09-.64-.05-.92.11-.28.16-.48.43-.56.74-.08.31-.03.65.14.92h0ZM72.58,77.02c.46.66.87,1.35,1.23,2.08,3.56-2.91,6.55-6.45,8.84-10.43.33-.57.13-1.3-.44-1.63-.57-.33-1.3-.13-1.63.44-2.08,3.63-4.79,6.86-8,9.54h0Z"/>
</svg>