<?xml version="1.0" encoding="UTF-8"?>
<svg id="Layer_1" data-name="Layer 1" xmlns="http://www.w3.org/2000/svg" viewBox="0 0 100 100">
  <defs>
    <style>
      .cls-1 {
        fill: #fff;
        stroke-width: 0px;
      }
    </style>
  </defs>
  <path class="cls-1" d="M76.56,11.05v11.66l-7.82,7.81h-6.35v3.54h7.08c.47,0,.92-.19,1.25-.52l8.85-8.85c.33-.33.52-.78.52-1.25v-12.39h-3.54Z"/>
  <path class="cls-1" d="M88.95,48.23h-15.2l-3.54-3.54h2.81c.47,0,.92-.19,1.25-.52l11.87-11.87h2.81v-3.54h-3.54c-.47,0-.92.19-1.25.52l-11.87,11.87h-9.89v3.54h2.81l6.56,6.56c.33.33.78.52,1.25.52h15.93v-3.54Z"/>
  <path class="cls-1" d="M88.95,67.7h-4.58l-11.87-11.87c-.33-.33-.78-.52-1.25-.52h-8.85v3.54h8.12l11.87,11.87c.33.33.78.52,1.25.52h5.31v-3.54Z"/>
  <path class="cls-1" d="M76.56,88.95h3.54v-12.39c0-.47-.19-.92-.52-1.25l-8.85-8.85c-.33-.33-.78-.52-1.25-.52h-7.08v3.54h6.35l7.82,7.81v11.66Z"/>
  <path class="cls-1" d="M81.87,96.03c0,1.96-1.59,3.54-3.54,3.54s-3.54-1.59-3.54-3.54,1.59-3.54,3.54-3.54c1.95,0,3.54,1.59,3.54,3.54ZM96.03,65.93c1.96,0,3.54,1.59,3.54,3.54s-1.59,3.54-3.54,3.54-3.54-1.59-3.54-3.54c0-1.95,1.59-3.54,3.54-3.54ZM96.03,46.46c1.96,0,3.54,1.59,3.54,3.54s-1.59,3.54-3.54,3.54-3.54-1.59-3.54-3.54c0-1.95,1.59-3.54,3.54-3.54ZM96.03,26.98c1.96,0,3.54,1.59,3.54,3.54s-1.59,3.54-3.54,3.54-3.54-1.59-3.54-3.54c0-1.95,1.59-3.54,3.54-3.54ZM74.79,3.97c0-1.96,1.59-3.54,3.54-3.54s3.54,1.59,3.54,3.54-1.59,3.54-3.54,3.54c-1.95,0-3.54-1.59-3.54-3.54ZM20.79,69.47c1.47,0,2.66,1.19,2.66,2.66s-1.19,2.66-2.66,2.66h-.89v-5.31h.89ZM16.36,88.95c0,1.96-1.59,3.54-3.54,3.54s-3.54-1.59-3.54-3.54v-24.79h7.08v24.79ZM55.31,26.98c0-.98.79-1.77,1.77-1.77s1.77.79,1.77,1.77v46.03c0,.98-.79,1.77-1.77,1.77s-1.77-.79-1.77-1.77V26.98ZM38.57,39.2c4.81-1.99,9.26-4.73,13.2-8.13v37.85c-8.4-7.24-19.01-11.41-30.1-11.81v-14.23c5.81-.2,11.53-1.45,16.9-3.68ZM7.51,39.38h10.62v21.25H7.51v-21.25ZM.43,44.69c0-.98.79-1.77,1.77-1.77h1.77v14.16h-1.77c-.98,0-1.77-.79-1.77-1.77v-10.62Z"/>
</svg>