<?xml version="1.0" encoding="UTF-8"?>
<svg id="Layer_1" data-name="Layer 1" xmlns="http://www.w3.org/2000/svg" viewBox="0 0 100 100">
  <defs>
    <style>
      .cls-1 {
        fill: #fff;
        fill-rule: evenodd;
        stroke-width: 0px;
      }
    </style>
  </defs>
  <path class="cls-1" d="M55.86,47.44c-2.37-2.38-5.95-3.09-9.05-1.81-3.11,1.29-5.13,4.31-5.13,7.68s2.03,6.39,5.13,7.68c3.1,1.29,6.68.57,9.05-1.8,3.23-3.25,3.23-8.49,0-11.74h0ZM43.53,62.74c-5.82.62-10.24,5.52-10.26,11.37v12.22c3.8,1.9,11.61,2.52,16.71,2.52s12.91-.61,16.75-2.52v-12.22c-.02-5.87-4.46-10.77-10.3-11.37-3.91,2.7-9.09,2.7-13,0h.08ZM61.48,52.9c-.12-3.05-1.45-5.93-3.7-7.99.47-3.68,3.33-6.59,6.99-7.15,3.67-.55,7.26,1.39,8.8,4.76s.66,7.36-2.15,9.77c-2.82,2.41-6.89,2.66-9.98.62h.04ZM69.89,81.43v-7.32c-.04-6.52-4.39-12.22-10.66-13.99.83-1.14,1.45-2.42,1.82-3.78,1.55.74,3.25,1.13,4.97,1.13,2.31,0,4.56-.7,6.46-2.01,5.83.62,10.25,5.52,10.27,11.37v12.17c-3.08,1.52-8.88,2.22-12.91,2.42h.06ZM77.42,45.58c3.09,2.06,7.17,1.81,10-.6,2.82-2.41,3.71-6.4,2.17-9.78s-5.14-5.33-8.81-4.77c-3.67.55-6.53,3.48-7.01,7.16,2.23,2.07,3.55,4.95,3.65,7.99ZM85.92,74.1c4-.21,9.79-.92,12.91-2.42v-12.22c-.03-5.85-4.48-10.73-10.3-11.32-3.38,2.33-7.76,2.66-11.46.87-.37,1.37-.99,2.65-1.83,3.79,6.28,1.77,10.63,7.47,10.67,13.99v7.32ZM42.2,44.91c-2.24,2.07-3.55,4.95-3.66,7.99-3.09,2.04-7.15,1.78-9.97-.63-2.81-2.4-3.69-6.38-2.14-9.75,1.54-3.36,5.12-5.3,8.78-4.75,3.66.55,6.51,3.46,6.99,7.13h0ZM27.46,55.41c3.38,2.33,7.76,2.66,11.46.88.37,1.36.99,2.64,1.82,3.78-6.27,1.77-10.62,7.47-10.66,13.99v7.32c-4-.21-9.8-.9-12.91-2.42v-12.17c.02-5.86,4.44-10.76,10.26-11.37h.03ZM26.16,37.58c-.45-3.49-3.06-6.31-6.49-7.05-3.44-.74-6.97.77-8.81,3.77-1.85,3-1.61,6.83.6,9.57,2.21,2.74,5.9,3.79,9.22,2.63.65-.22,1.27-.53,1.84-.91.11-3.05,1.42-5.92,3.65-7.99h0ZM11.43,48.14c-5.81.61-10.23,5.48-10.27,11.32v12.22c3.09,1.5,8.88,2.22,12.91,2.42v-7.32c.05-6.52,4.4-12.22,10.68-13.99-.84-1.13-1.46-2.42-1.83-3.79-3.71,1.81-8.1,1.47-11.49-.87h0ZM55.37,14.38c-2.16-2.15-5.39-2.79-8.2-1.62s-4.64,3.91-4.64,6.96,1.83,5.79,4.64,6.96,6.05.53,8.2-1.62c1.42-1.41,2.22-3.33,2.22-5.34s-.79-3.92-2.22-5.34ZM39.33,19.93c-.69.55-1.45.99-2.26,1.3-3.28,1.35-7.06.45-9.39-2.22-2.34-2.67-2.72-6.53-.96-9.6,1.77-3.08,5.29-4.69,8.78-4.03,3.48.67,6.16,3.48,6.65,6.99-1.91,2.03-2.95,4.74-2.89,7.53l.08.02ZM57.84,12.4c.53-3.74,3.53-6.65,7.28-7.07,3.76-.42,7.32,1.75,8.68,5.28,1.35,3.53.15,7.52-2.93,9.72-3.08,2.19-7.25,2.03-10.15-.4.06-2.79-.97-5.49-2.88-7.53h0ZM32.18,34.67c-1.12.17-2.21.5-3.23,1-1.18-4.38-4.84-7.65-9.33-8.34.74-.95,1.63-1.77,2.62-2.44,1.55-1.05,3.34-1.69,5.2-1.88,3.71,2.59,8.6,2.74,12.47.39.33.91.78,1.77,1.33,2.56-4.27,1.27-7.65,4.54-9.07,8.76v-.04ZM64.46,34.67c-.67-1.45-1.66-2.73-2.89-3.75-1.58-1.32-3.51-2.13-5.54-2.35-3.64,2.47-8.43,2.47-12.07,0-2.04.21-3.97,1.03-5.54,2.35-1.22,1.01-2.19,2.28-2.85,3.72,4.54.65,8.26,3.93,9.45,8.36,3.15-1.52,6.81-1.52,9.96,0,1.19-4.43,4.91-7.71,9.45-8.36l.04.02ZM58.77,25.94c.54-.79.97-1.65,1.29-2.55,3.85,2.36,8.73,2.22,12.45-.34,1.86.19,3.65.84,5.2,1.88,1,.67,1.88,1.5,2.62,2.44-4.49.69-8.15,3.96-9.33,8.34-1.02-.49-2.11-.83-3.23-1-1.4-4.23-4.78-7.52-9.05-8.8l.04.03Z"/>
</svg>