<?xml version="1.0" encoding="UTF-8"?>
<svg id="Layer_1" data-name="Layer 1" xmlns="http://www.w3.org/2000/svg" viewBox="0 0 100 100">
  <defs>
    <style>
      .cls-1 {
        fill: #c9f21d;
        fill-rule: evenodd;
        stroke-width: 0px;
      }
    </style>
  </defs>
  <path class="cls-1" d="M66.86,8.41v17.32c0,9.97-7.34,18.32-16.89,19.89-9.55-1.57-16.89-9.91-16.89-19.89V8.41l16.89-5.66,16.89,5.66ZM19.88,35.06L2.86,57.88c-.62.85-.48,1.87.36,2.51l11.25,8.39c.74.56,1.84.43,2.43-.36l17.06-22.87c.57-.76.41-1.85-.35-2.43l-11.29-8.43c-.77-.57-1.86-.41-2.43.36h0ZM43.84,87.52l-7.06,7.06c-.96.96-.31,2.66,1.1,2.66h0c.4,0,.8-.14,1.1-.45l7.06-7.06c1.46-1.46-.74-3.67-2.2-2.2h0ZM39.79,81c2.09-2.09,5.06,1.07,3.24,3l-8.66,8.66c-1.02,1.02-2.25.83-3.1-.02-.85-.85-1.04-2.08-.02-3.1l8.54-8.54ZM34.82,75.4c1.02-1.02,2.25-.83,3.1.02.85.85,1.04,2.08.02,3.1l-8.54,8.54c-1.02,1.02-2.25.83-3.1-.02-.85-.85-1.04-2.08-.02-3.1l8.54-8.54ZM24.32,81.56c-1.02,1.01-2.25.82-3.1-.02-.85-.85-1.04-2.08-.02-3.1l8.54-8.54c1.02-1.02,2.25-.83,3.1.02.85.85,1.04,2.08.02,3.1l-8.55,8.55ZM35.52,48.59c3.88,1.12,7.01,2.12,9.11,2.81-2.26,1.66-4.47,3.61-6.62,5.84-4,4.07.47,11.81,8.04,9.24.1-.03.19-.07.28-.12,2.92-1.43,4.68-2.27,5.62-2.71,11.62,10.59,18.03,15.89,18.74,16.47l1.59,1.59c1.02,1.02.83,2.25-.02,3.1-.85.85-2.08,1.04-3.1.02l-9.59-9.59c-.6-.6-1.57-.6-2.17,0-.6.6-.6,1.57,0,2.17l9.03,9.03c2.07,2.07-1.06,5.18-3.12,3.12l-7.43-7.43c-.6-.6-1.57-.6-2.17,0-.6.6-.6,1.57,0,2.17l5.78,5.78c1.02,1.02.83,2.25-.02,3.1-.85.85-2.08,1.04-3.1.02l-3.56-3.56c-.6-.6-1.57-.6-2.17,0-.6.6-.6,1.57,0,2.17l1.61,1.61c.72.72.84,1.56.53,2.3-.55,1.29-2.27,2.2-3.65.82l-2.77-2.77,1.86-1.86c2.71-2.71,1.16-6.58-1.81-7.67,1.14-3.21-1.44-6.68-4.7-6.98.12-2.84-2.23-5.41-5.07-5.61.08-4.28-5.34-7.63-9.06-3.91l-6.27,6.27-2.29-3.34.37-.45,16.15-21.61ZM48.84,52.23c-2.98,1.85-6.04,4.45-8.63,7.13-1.32,1.35-.41,3.39,1.12,4.16.91.46,2.16.58,3.68.07,5.15-2.52,6.59-3.16,6.6-3.16.59-.27,1.25-.13,1.69.29,9.87,9.02,16.12,14.33,18.41,16.25,2.55-2.25,6-5.48,7.98-8.03l-15.14-20.29c-3.79-.25-7.24.02-10.35.8-1.81.75-3.6,1.67-5.35,2.77h0ZM66.05,45.56l17.06,22.87c.59.78,1.69.91,2.43.36l11.25-8.39c.84-.64.98-1.67.36-2.51l-17.03-22.82c-.57-.77-1.66-.92-2.43-.35l-11.29,8.43c-.77.57-.91,1.66-.35,2.43h0ZM40.53,23.17l6.06,8.08c.57.76,1.7.79,2.31.07h0l10.46-12.35c.53-.62.45-1.56-.18-2.09-.62-.53-1.56-.45-2.09.18l-9.26,10.94-4.94-6.59c-.49-.65-1.42-.79-2.07-.3-.65.49-.79,1.42-.3,2.07h0Z"/>
</svg>