<?xml version="1.0" encoding="UTF-8"?>
<svg id="Layer_1" data-name="Layer 1" xmlns="http://www.w3.org/2000/svg" viewBox="0 0 100 100">
  <defs>
    <style>
      .cls-1 {
        fill: #c9f21d;
        stroke-width: 0px;
      }
    </style>
  </defs>
  <path class="cls-1" d="M36.2,67.59c2.03.2,4.44.46,6.85.67.71.06,1.46.06,2.15-.09,4.58-1.01,9.17-2.04,13.9-1.64,1.33.11,2.69.59,3.9,1.18,1.07.53.97,1.42-.18,1.79-1.75.56-3.56.91-5.35,1.33-1.72.4-3.45.75-5.16,1.17-.63.16-1.28.38-1.8.73-.39.27-.8.8-.81,1.22,0,.32.53.81.93.97,2.36.98,4.8,1.12,7.34.71,4.51-.72,8.41-2.92,12.27-5.1,3.84-2.17,7.39-4.84,11.19-7.08,1.22-.72,2.82-.88,4.27-1.03.56-.06,1.41.49,1.72,1.01.19.32-.22,1.29-.63,1.65-3.08,2.66-6.13,5.36-9.37,7.82-4.68,3.55-9.52,6.89-14.29,10.33-3.06,2.21-6.54,2.83-10.19,2.46-3.32-.34-6.61-.95-9.92-1.36-1.33-.17-2.68-.21-4.02-.17-2.8.07-4.84,1.45-6.33,3.79-2.35,3.7-4.19,4.52-8.46,3.62-3.9-.82-7.28-2.64-9.91-5.69-.57-.66-1.05-1.43-1.42-2.22-.72-1.57-.78-3.07.58-4.45,2.19-2.21,4.24-4.56,6.44-6.74,3.08-3.05,6.99-4.18,11.19-4.54,1.57-.13,3.14-.21,5.1-.34Z"/>
  <path class="cls-1" d="M27.01,42.22c-1.33-1.42-2.7-2.66-3.77-4.12-.39-.53-.31-1.7,0-2.37,1.78-3.96,3.7-7.85,5.55-11.77.45-.96,1.3-1.25,2.17-1.24,3.21.06,6.41.22,9.66.62-.92.78-1.89,1.51-2.75,2.36-.95.95-1.89,1.93-2.64,3.03-1.43,2.08-1.4,3.93-.11,5.41,1.32,1.5,3.88,2.05,5.84,1.14.82-.38,1.56-.97,2.31-1.49.38-.26.75-.55,1.06-.88,1.87-1.98,4.08-2.88,6.83-2.35.89.17,1.84.06,2.76.12.36.03.76.11,1.07.3,4.14,2.5,8.28,5.01,12.41,7.54,1.34.82,1.4,2.37.18,3.36-.66.53-1.31.45-2.03.09-4.05-2.04-8.1-4.05-12.16-6.07-.45-.22-.9-.44-1.36-.61-.74-.28-1.42,0-1.56.7-.1.46.2,1.18.57,1.52.48.45,1.2.65,1.82.96,4.34,2.13,8.69,4.26,13.03,6.39,1.39.68,1.77,1.56,1.19,2.74-.62,1.26-1.55,1.5-2.97.79-5.05-2.52-10.1-5.03-15.15-7.55-.17-.09-.35-.15-.52-.24-.76-.39-1.55-.52-1.96.4-.4.9.21,1.39.98,1.78,4.36,2.19,8.7,4.39,13.05,6.6,1.14.58,1.44,1.54.87,2.68-.53,1.06-1.49,1.38-2.61.85-.59-.28-1.15-.61-1.75-.87-1.35-.58-2.37-1.2-2.61-2.99-.31-2.27-2.54-3.67-4.97-3.56-.72.03-1.15-.08-1.58-.75-.86-1.33-2.17-1.98-3.77-2.15-.43-.05-.96-.39-1.21-.76-1.07-1.56-2.51-2.29-4.38-2.32-.45,0-1.01-.25-1.31-.58-2.1-2.34-5.4-2.36-7.46.02-.88,1.01-1.71,2.06-2.72,3.29Z"/>
  <path class="cls-1" d="M99.11,31.5c-.33.27-.63.66-1.02.83-3.86,1.72-7.73,3.4-11.6,5.09-.81.35-1.63.68-2.42,1.07-.99.49-1.59.33-2.06-.77-2.25-5.26-4.56-10.49-6.84-15.73-.83-1.9-1.63-3.81-2.49-5.7-.4-.88-.24-1.39.7-1.79,4.62-1.99,9.21-4.03,13.82-6.04,1.48-.64,1.67-.53,2.32.96,3,6.9,6.01,13.79,9.01,20.69.17.39.32.78.57,1.39ZM88.73,31.94c0-1.37-1.11-2.51-2.45-2.52-1.31,0-2.51,1.18-2.52,2.49,0,1.33,1.15,2.5,2.49,2.51,1.36,0,2.47-1.11,2.48-2.48Z"/>
  <path class="cls-1" d="M.89,31.43c.19-.49.27-.75.38-1,3.11-7.14,6.24-14.28,9.34-21.43.37-.85.88-1.09,1.72-.72,4.82,2.11,9.64,4.21,14.46,6.31.88.38.81.96.49,1.69-2.05,4.68-4.07,9.36-6.11,14.04-1.09,2.5-2.22,4.98-3.27,7.49-.41.99-.97,1.12-1.89.72-4.74-2.09-9.5-4.15-14.23-6.25-.38-.17-.63-.61-.88-.86ZM13.74,29.42c-1.33-.03-2.49,1.1-2.51,2.46-.02,1.38,1.06,2.52,2.42,2.54,1.34.02,2.51-1.11,2.55-2.45.03-1.3-1.15-2.52-2.46-2.55Z"/>
  <path class="cls-1" d="M71.19,39.6c-.26-1.81-1.34-2.91-2.8-3.78-4.39-2.61-8.73-5.29-13.12-7.9-.53-.31-1.21-.46-1.83-.5-1.03-.06-2.07.06-3.11.04-2.66-.06-4.97.78-6.92,2.61-.64.6-1.31,1.19-2.03,1.7-.62.44-1.29,1-1.99,1.07-.7.08-1.58-.23-2.15-.67-.25-.19-.12-1.31.2-1.71,1.04-1.31,2.14-2.64,3.43-3.68,4.73-3.84,10.01-6.53,16.11-7.42,2.21-.32,4.26.19,6.3.96.67.25,1.39.44,2.1.51,2.51.25,4.38,1.6,5.92,3.44,2.47,2.95,3.86,6.37,3.92,10.23.05,3.44-.14,3.79-4.03,5.1Z"/>
  <path class="cls-1" d="M46.01,47.94c-.12.25-.32.84-.67,1.31-.98,1.28-2.01,2.52-3.04,3.76-1.06,1.27-2.35,1.5-3.41.64-1.06-.85-1.13-2.23-.14-3.48,1.05-1.32,2.11-2.64,3.2-3.93.66-.78,1.5-1.2,2.56-.78.96.38,1.46,1.07,1.5,2.47Z"/>
  <path class="cls-1" d="M51.92,50.77c-.1.22-.24.75-.55,1.16-.88,1.16-1.81,2.29-2.75,3.4-.94,1.1-2.25,1.25-3.26.43-.98-.8-1.11-2.19-.25-3.29.95-1.21,1.92-2.4,2.92-3.56.68-.79,1.61-.9,2.53-.52.88.37,1.37,1.08,1.36,2.39Z"/>
  <path class="cls-1" d="M40.98,44.04c-.35.74-.5,1.27-.81,1.68-.98,1.27-2.01,2.51-3.04,3.75-.87,1.05-2.11,1.24-3.03.5-.91-.73-.93-1.96-.04-3.05,1.06-1.31,2.11-2.62,3.21-3.9.57-.66,1.37-1.03,2.15-.57.62.37,1.05,1.05,1.56,1.6Z"/>
  <path class="cls-1" d="M33.57,39.77c.48.34,1.27.6,1.48,1.11.26.61.3,1.59-.03,2.13-.73,1.2-1.7,2.26-2.67,3.3-.72.77-1.66.78-2.5.16-.86-.63-1.12-1.62-.57-2.45.88-1.33,1.98-2.52,3.04-3.73.22-.25.68-.29,1.24-.52Z"/>
</svg>