<?xml version="1.0" encoding="UTF-8"?>
<svg id="Layer_1" data-name="Layer 1" xmlns="http://www.w3.org/2000/svg" viewBox="0 0 100 100">
  <defs>
    <style>
      .cls-1 {
        fill: #fff;
        stroke-width: 0px;
      }
    </style>
  </defs>
  <path class="cls-1" d="M15.2,37.76v-11.07c0-1.74-1.42-3.16-3.16-3.16s-3.16,1.42-3.16,3.16v11.07c0,1.74,1.42,3.16,3.16,3.16s3.16-1.42,3.16-3.16Z"/>
  <path class="cls-1" d="M65.82,53.58V10.87c0-1.74-1.42-3.16-3.16-3.16s-3.16,1.42-3.16,3.16v42.71c0,1.74,1.42,3.16,3.16,3.16s3.16-1.42,3.16-3.16Z"/>
  <path class="cls-1" d="M40.51,44.09v-23.73c0-1.74-1.42-3.16-3.16-3.16s-3.16,1.42-3.16,3.16v23.73c0,1.74,1.42,3.16,3.16,3.16s3.16-1.42,3.16-3.16Z"/>
  <path class="cls-1" d="M91.12,59.9V4.54c0-1.74-1.42-3.16-3.16-3.16s-3.16,1.42-3.16,3.16v55.36c0,1.74,1.42,3.16,3.16,3.16s3.16-1.42,3.16-3.16Z"/>
  <path class="cls-1" d="M8.88,89.96c0,5.23,4.26,9.49,9.49,9.49h63.27c5.23,0,9.49-4.26,9.49-9.49v-6.15c0-1.58-1.08-3.04-2.63-3.29-1.98-.33-3.7,1.2-3.7,3.11v6.33c0,1.74-1.42,3.16-3.16,3.16h-15.82v-15.64c0-1.58-1.08-3.04-2.63-3.29-1.98-.33-3.7,1.2-3.7,3.11v15.82h-18.98v-23.55c0-1.58-1.08-3.04-2.63-3.29-1.98-.33-3.7,1.2-3.7,3.11v23.73h-15.82c-1.74,0-3.16-1.42-3.16-3.16v-28.3c0-1.58-1.08-3.04-2.63-3.29-1.98-.33-3.7,1.2-3.7,3.11v28.47Z"/>
</svg>