<?xml version="1.0" encoding="UTF-8"?>
<svg id="Layer_1" data-name="Layer 1" xmlns="http://www.w3.org/2000/svg" viewBox="0 0 100 100">
  <defs>
    <style>
      .cls-1 {
        fill: #c9f21d;
        stroke-width: 0px;
      }
    </style>
  </defs>
  <path class="cls-1" d="M99.09,88.19v1.78s-.02.03-.03.03h-19.93s-.03-.02-.03-.03v-2.47c0-5.82-1.75-11.38-5.02-16.15,2.11-.87,4.42-1.35,6.84-1.35,5.02,0,9.56,2.04,12.85,5.33,3.29,3.29,5.33,7.84,5.33,12.85Z"/>
  <path class="cls-1" d="M75.45,87.5v2.47s-.02.03-.03.03H24.58s-.03-.02-.03-.03v-2.47c0-5.38,1.71-10.35,4.62-14.44,4.6-6.47,12.22-10.69,20.84-10.69,7.02,0,13.38,2.82,18,7.36,1.04,1.02,1.98,2.13,2.84,3.33,2.91,4.07,4.62,9.05,4.62,14.44Z"/>
  <path class="cls-1" d="M75.45,87.5v2.47s-.02.03-.03.03H24.58s-.03-.02-.03-.03v-2.47c0-5.38,1.71-10.35,4.62-14.44,4.6-6.47,12.22-10.69,20.84-10.69,7.02,0,13.38,2.82,18,7.36,1.04,1.02,1.98,2.13,2.84,3.33,2.91,4.07,4.62,9.05,4.62,14.44Z"/>
  <path class="cls-1" d="M25.93,71.35c-3.27,4.78-5.02,10.35-5.02,16.15v2.47s-.02.03-.03.03H.94s-.03-.02-.03-.03v-1.27c0-10.01,8.19-18.71,18.2-18.7,2.41,0,4.71.47,6.82,1.35Z"/>
  <circle class="cls-1" cx="50" cy="45.28" r="10.91"/>
  <circle class="cls-1" cx="80.91" cy="57.1" r="7.27"/>
  <circle class="cls-1" cx="19.09" cy="57.1" r="7.27"/>
</svg>