<svg width="110" height="135" viewBox="0 0 110 135" fill="none" xmlns="http://www.w3.org/2000/svg">
<path fill-rule="evenodd" clip-rule="evenodd" d="M64.883 15H44.606C44.4498 15 44.3131 15.1055 44.2701 15.2539C44.2271 15.4024 44.2857 15.5625 44.4146 15.6484L46.9654 17.293C48.4381 18.2422 49.7427 19.1055 51.3756 19.1055H57.5084C58.9576 18.9805 60.3482 18.4804 61.5357 17.6445L65.0552 15.6562H65.0591C65.1959 15.5781 65.2662 15.418 65.2232 15.2617C65.1841 15.1094 65.0432 15 64.883 15ZM51.16 98.809C50.6952 98.7699 50.3397 98.3793 50.3397 97.9145C50.3397 97.4457 50.6952 97.059 51.16 97.016H58.8358C59.3007 97.059 59.6561 97.4457 59.6561 97.9145C59.6561 98.3793 59.3007 98.7699 58.8358 98.809H51.16ZM57.5897 42.153V39.8835C57.5897 39.6882 57.4335 39.5319 57.2382 39.5319H52.7616C52.5663 39.5319 52.41 39.6882 52.41 39.8835V42.153C52.4139 43.2975 51.6522 44.3014 50.5506 44.6139C49.4061 44.9459 48.3045 45.403 47.2615 45.9811C46.2654 46.5358 45.0154 46.36 44.2107 45.5475L42.6013 43.942C42.5349 43.8756 42.4451 43.8405 42.3513 43.8405C42.2576 43.8405 42.1677 43.8756 42.1013 43.942L38.9333 47.11C38.8669 47.1764 38.8278 47.2663 38.8278 47.36C38.8278 47.4538 38.8669 47.5436 38.9333 47.61L40.5349 49.2116C41.3474 50.0163 41.5232 51.2624 40.9646 52.2624C40.3904 53.3054 39.9294 54.4069 39.5974 55.5515C39.2888 56.6492 38.2888 57.407 37.1482 57.4109H34.8826C34.6873 57.4109 34.531 57.5672 34.531 57.7625V62.2391C34.531 62.4344 34.6873 62.5906 34.8826 62.5906H37.1482C38.2927 62.5867 39.3005 63.3485 39.613 64.45C39.945 65.5906 40.4021 66.6961 40.9802 67.7352C41.5349 68.7352 41.3591 69.9813 40.5466 70.7899L38.9411 72.3954C38.8747 72.4618 38.8356 72.5517 38.8356 72.6454C38.8356 72.7392 38.8747 72.829 38.9411 72.8954L42.1052 76.0595H42.1091C42.1755 76.1259 42.2654 76.165 42.3591 76.165C42.4529 76.165 42.5427 76.126 42.6091 76.0595L44.2146 74.454C45.0193 73.6455 46.2654 73.4658 47.2654 74.0243C48.3084 74.5986 49.4099 75.0596 50.5545 75.3916C51.6561 75.7001 52.4139 76.708 52.41 77.8525V80.1219C52.4139 80.3173 52.5702 80.4735 52.7616 80.4735H57.2421C57.4335 80.4735 57.5897 80.3173 57.5936 80.1219V77.8486C57.5897 76.7041 58.3476 75.7002 59.4491 75.3877C60.5936 75.0556 61.6952 74.5986 62.7382 74.0205C63.7382 73.4658 64.9843 73.6415 65.789 74.4501L67.3945 76.0556V76.0596C67.4609 76.126 67.5508 76.1611 67.6445 76.1611C67.7383 76.1611 67.8281 76.126 67.8945 76.0596L71.0625 72.8915C71.129 72.8251 71.168 72.7353 71.168 72.6415C71.168 72.5478 71.129 72.458 71.0625 72.3915L69.457 70.7899C68.6445 69.9853 68.4688 68.7391 69.0235 67.7391C69.6016 66.6961 70.0587 65.5946 70.3907 64.45C70.7032 63.3484 71.711 62.5906 72.8555 62.5945H75.125H75.121C75.3164 62.5906 75.4726 62.4344 75.4726 62.2391V57.7625C75.4726 57.5672 75.3164 57.4109 75.121 57.4109H72.8476C71.7031 57.4148 70.6953 56.6531 70.3867 55.5515C70.0547 54.4109 69.5938 53.3054 69.0195 52.2663C68.461 51.2663 68.6367 50.0202 69.4492 49.2116L71.0547 47.6061C71.1211 47.5397 71.1602 47.4499 71.1602 47.3561C71.1602 47.2624 71.1211 47.1725 71.0547 47.1061L67.8906 43.942C67.8242 43.8756 67.7344 43.8405 67.6406 43.8405C67.5469 43.8405 67.457 43.8756 67.3906 43.942L65.7851 45.5475C64.9804 46.36 63.7304 46.5358 62.7304 45.9811C61.6913 45.403 60.5859 44.9459 59.4452 44.6139C58.3436 44.3014 57.5819 43.2975 57.5858 42.153L57.5897 42.153ZM61.4178 53.5791C64.0155 56.1768 64.7928 60.083 63.3866 63.4736C61.9804 66.8681 58.6718 69.0791 54.9999 69.0791C51.328 69.0791 48.0155 66.8682 46.6093 63.4736C45.207 60.083 45.9843 56.1767 48.5781 53.5791C50.2812 51.8799 52.5898 50.9229 55 50.9229C57.4062 50.9229 59.7146 51.8799 61.4178 53.5791ZM54.9998 49.1299C59.3982 49.1299 63.3631 51.7783 65.0428 55.8408C66.7264 59.9033 65.7967 64.5791 62.6873 67.6888C59.5779 70.7985 54.9021 71.7279 50.8353 70.0482C46.7728 68.3646 44.1244 64.3998 44.1244 60.0012C44.1244 57.1184 45.2728 54.3528 47.3119 52.3137C49.351 50.2746 52.117 49.126 54.9998 49.1299ZM87.6518 55.2315V55.2276C89.2495 53.6299 91.5346 52.9346 93.7495 53.376C95.9643 53.8135 97.812 55.3291 98.6753 57.4151C99.5425 59.501 99.3081 61.8799 98.0542 63.7549C96.8003 65.6338 94.691 66.7588 92.4332 66.7588C89.1637 66.751 86.3628 64.4072 85.7769 61.1885C85.7496 61.0166 85.6012 60.8955 85.4332 60.8955H77.6129C77.4176 60.8955 77.2613 60.7393 77.2613 60.544V59.4542C77.2613 59.2628 77.4176 59.1026 77.6129 59.1026H85.4332C85.6012 59.1065 85.7496 58.9815 85.7769 58.8136C86.0191 57.4542 86.6754 56.2003 87.6519 55.2238L87.6518 55.2315ZM70.7338 76.2515C70.6674 76.1851 70.6284 76.0953 70.6284 76.0015C70.6284 75.9078 70.6674 75.8179 70.7338 75.7515L71.4995 74.9859H71.5034C71.6401 74.8492 71.8588 74.8492 71.9956 74.9859L73.3862 76.3375H85.4292C85.601 76.3375 85.7495 76.2164 85.7768 76.0484C86.3901 72.5992 89.5385 70.1929 93.0229 70.5015C96.5112 70.814 99.187 73.732 99.187 77.2359C99.187 80.7359 96.5112 83.6578 93.0229 83.9664C89.5385 84.275 86.3901 81.8687 85.7768 78.4234C85.7495 78.2516 85.601 78.1305 85.4292 78.1305H73.0192C72.7848 78.1305 72.5621 78.0406 72.3942 77.8805L70.7301 76.2633L70.7338 76.2515ZM87.6518 37.9935C89.8549 35.7982 93.2729 35.3841 95.933 36.9974C98.5932 38.6107 99.8041 41.8333 98.8705 44.8021C97.9408 47.7709 95.101 49.7162 91.9955 49.5169C88.89 49.3177 86.3236 47.0247 85.7767 43.9622C85.7494 43.7903 85.601 43.6692 85.4291 43.6692H73.3821L71.9915 45.0208C71.8548 45.1537 71.636 45.1537 71.4954 45.0208L70.7298 44.2513C70.6634 44.1849 70.6243 44.0951 70.6243 44.0013C70.6243 43.9076 70.6634 43.8177 70.7298 43.7513L72.3509 42.1693V42.1732C72.5227 41.9818 72.7649 41.8763 73.0188 41.8803H85.4328C85.6008 41.8803 85.7492 41.7592 85.7766 41.5912C86.0188 40.2279 86.675 38.974 87.6516 37.9974L87.6518 37.9935ZM81.058 56.9625C81.058 57.1539 80.9018 57.3102 80.7065 57.3141H77.5776C77.4096 57.3141 77.2612 57.193 77.2338 57.025C77.0815 56.2125 76.3744 55.6227 75.5463 55.6188H72.8471C72.4995 55.6266 72.1909 55.4001 72.101 55.0641C71.7378 53.7907 71.23 52.5602 70.5893 51.4C70.4097 51.0992 70.4643 50.7164 70.7182 50.4781L72.6284 48.5679C73.0933 48.0992 73.2495 47.4077 73.0269 46.7867C72.98 46.6578 73.0152 46.5094 73.1128 46.4157L73.9995 45.5602C74.0659 45.4977 74.1519 45.4586 74.2456 45.4625H80.7104H80.7065C80.9018 45.4625 81.0581 45.6188 81.0581 45.8141L81.058 56.9625ZM77.2338 62.982V62.9781C77.2612 62.8101 77.4096 62.689 77.5776 62.689H80.7065C80.9018 62.693 81.058 62.8492 81.058 63.0406V74.1886C81.058 74.3839 80.9018 74.5402 80.7065 74.5402H74.2456C74.1518 74.5402 74.0659 74.505 73.9995 74.4386L73.1167 73.5792C73.019 73.4855 72.9839 73.3409 73.0307 73.212C73.2534 72.5909 73.0933 71.8995 72.6284 71.4347L70.7143 69.5206C70.4643 69.2824 70.4096 68.8995 70.5854 68.5988C71.226 67.4386 71.7338 66.2121 72.101 64.9386C72.1908 64.6026 72.4994 64.3721 72.8471 64.3839H75.5463C75.9994 64.3839 76.433 64.2042 76.7533 63.8839C76.9994 63.6378 77.1674 63.3253 77.2299 62.9854L77.2338 62.982ZM39.2648 75.752C39.3312 75.8184 39.3703 75.9083 39.3703 76.002C39.3703 76.0958 39.3312 76.1856 39.2648 76.252L37.6007 77.8692C37.2414 78.2208 36.6789 78.1192 36.0812 78.1192L24.5652 78.1231C24.3934 78.1192 24.2488 78.2442 24.2176 78.4122C23.6043 81.8575 20.4598 84.2638 16.9715 83.9552C13.4871 83.6466 10.8113 80.7247 10.8113 77.2247C10.8113 73.7247 13.4871 70.8028 16.9715 70.4942C20.4598 70.1856 23.6043 72.5919 24.2176 76.0372C24.2449 76.2051 24.3934 76.3302 24.5652 76.3302H36.6162L38.0068 74.9785H38.0029C38.1397 74.8418 38.3623 74.8418 38.499 74.9785L39.2646 75.7442L39.2648 75.752ZM12.7878 55.225C14.569 53.4516 17.1901 52.8109 19.5886 53.5648C21.987 54.3187 23.7683 56.3382 24.2175 58.8148C24.2449 58.9828 24.3933 59.1078 24.5652 59.1078H32.3855C32.5769 59.1078 32.7371 59.264 32.7371 59.4554V60.5492C32.7371 60.7407 32.5769 60.8969 32.3855 60.8969H24.5574C24.3855 60.8969 24.241 61.0219 24.2097 61.1899C23.6433 64.4126 20.8425 66.7602 17.5691 66.7563C14.8386 66.7563 12.3777 65.1118 11.3308 62.5883C10.2839 60.0649 10.8582 57.1586 12.7878 55.225ZM12.7878 37.995C14.569 36.2216 17.1901 35.5848 19.5886 36.3348C21.987 37.0887 23.7722 39.1121 24.2175 41.5887C24.2488 41.7567 24.3933 41.8778 24.5652 41.8778H36.9752C37.2564 41.8778 37.5221 42.0067 37.6979 42.2293L39.2643 43.7527L39.2604 43.7488C39.3307 43.8152 39.3658 43.9051 39.3658 43.9988C39.3658 44.0965 39.3307 44.1863 39.2604 44.2488L38.4947 45.0144V45.0184C38.358 45.1512 38.1393 45.1512 38.0025 45.0184L36.6119 43.6667H24.5649C24.3931 43.6667 24.2485 43.7878 24.2173 43.9558C23.8423 46.0769 22.479 47.8894 20.5493 48.8386C18.6157 49.7878 16.3501 49.7605 14.4399 48.7683C12.5337 47.7722 11.2133 45.9285 10.8852 43.7995C10.561 41.6745 11.2683 39.5185 12.7878 37.995ZM28.9358 63.042C28.9358 62.8506 29.096 62.6944 29.2874 62.6905H32.4163C32.9163 62.6905 32.6155 63.253 33.2366 63.8819H33.2405C33.5608 64.2022 33.9944 64.3819 34.4514 64.3819H37.1506C37.4983 64.374 37.8069 64.6006 37.8967 64.9365C38.26 66.2138 38.7678 67.4404 39.4084 68.6045C39.5842 68.9053 39.5295 69.2881 39.2795 69.5264L37.3693 71.4366H37.3654C36.9045 71.9054 36.7482 72.5968 36.9669 73.2178C37.0138 73.3467 36.9787 73.4913 36.881 73.585L35.9982 74.4444C35.9318 74.5069 35.8459 74.546 35.7521 74.542H29.2873C29.0959 74.542 28.9358 74.3858 28.9358 74.1905L28.9358 63.042ZM32.76 57.0225L32.7639 57.0264C32.7327 57.1944 32.5882 57.3155 32.4163 57.3155H29.2874C29.096 57.3116 28.9358 57.1553 28.9358 56.9639V45.8159C28.9358 45.6206 29.096 45.4644 29.2874 45.4644H35.7522C35.842 45.4644 35.9319 45.4995 35.9944 45.5659L36.8772 46.4214C36.9787 46.5151 37.01 46.6597 36.9631 46.7886C36.7444 47.4136 36.9006 48.105 37.3655 48.5738L39.2757 50.484C39.5296 50.7223 39.5804 51.1051 39.4046 51.4059C38.764 52.5661 38.2562 53.7926 37.8929 55.0661C37.7991 55.402 37.4905 55.6325 37.1468 55.6207H34.4437C33.9906 55.6207 33.557 55.8004 33.2367 56.1207C32.9906 56.3668 32.8264 56.6788 32.76 57.0225ZM28.9358 80.2725V102.011C28.9397 103.663 30.2796 104.999 31.928 105.003H78.065C79.7173 104.999 81.0533 103.663 81.0572 102.011V80.2725C81.0572 80.0772 80.901 79.9209 80.7057 79.9209H72.1237V79.7608C71.7604 79.6319 71.4284 79.4248 71.151 79.1553C70.5885 78.6084 70.0221 78.0615 69.4635 77.5147C69.2174 77.2764 68.9909 77.4952 68.8541 77.6319H68.8502C68.1823 78.2999 67.1002 78.2999 66.4322 77.6319L64.5181 75.7217C64.2799 75.4678 63.897 75.417 63.5963 75.5928C62.4361 76.2334 61.2096 76.7412 59.9361 77.1045C59.6001 77.1943 59.3696 77.5029 59.3814 77.8506V80.5498C59.3775 81.4951 58.6118 82.2568 57.6666 82.2607H52.3268C51.3814 82.2568 50.6198 81.4951 50.6159 80.5498V77.8506C50.6237 77.5029 50.3932 77.1943 50.0612 77.1045C48.7878 76.7373 47.5573 76.2295 46.401 75.5889C46.1002 75.4131 45.7174 75.4678 45.4752 75.7178L43.565 77.6319C42.897 78.2999 41.815 78.2999 41.1431 77.6319C41.0064 77.4952 40.7798 77.2725 40.5337 77.5147L38.8462 79.1553C38.5689 79.4248 38.2368 79.6319 37.8736 79.7608V79.9209H29.2877C29.0962 79.9209 28.9358 80.0772 28.9358 80.2725ZM41.0298 42.4875C40.8931 42.6242 40.6744 42.6242 40.5337 42.4875C40.0064 41.9758 39.479 41.468 38.9517 40.9563H38.9557C38.7096 40.6868 38.4088 40.4719 38.0767 40.3196C37.7291 40.1633 37.3541 40.0852 36.9751 40.0813H29.2876C29.0962 40.0813 28.9361 39.9251 28.9361 39.7337V17.9956C28.94 16.3433 30.2799 15.0073 31.9283 15.0034H40.0103C40.0767 15.0034 40.1431 15.023 40.1978 15.0581L45.9986 18.8042C47.7134 19.9058 49.2525 20.9058 51.3736 20.9058H57.5064V20.9019C59.2642 20.7965 60.9595 20.2066 62.4048 19.2027L69.7603 15.0465H69.7642C69.815 15.0153 69.8775 14.9997 69.94 15.0036H78.065C79.7173 15.0075 81.0533 16.3434 81.0572 17.9958V39.7338C81.0572 39.9291 80.9009 40.0853 80.7056 40.0853H73.0181C72.6392 40.0853 72.2642 40.1674 71.9204 40.3236C71.5923 40.472 71.2993 40.683 71.0532 40.9447L69.4594 42.4916C69.2133 42.7299 68.9907 42.5111 68.85 42.3744L68.8539 42.3705C68.1821 41.7025 67.1 41.7025 66.432 42.3705L64.5179 44.2846C64.2797 44.5385 63.8969 44.5893 63.5961 44.4135C62.4359 43.7729 61.2094 43.2651 59.9359 42.9018C59.5999 42.8081 59.3695 42.4995 59.3812 42.1557V39.4526C59.3812 38.5073 58.6116 37.7417 57.6664 37.7417H52.3266C51.3813 37.7456 50.6157 38.5112 50.6157 39.4526V42.1557C50.6235 42.5034 50.393 42.8081 50.061 42.9018C48.7876 43.2651 47.5571 43.7729 46.3969 44.4135C46.0961 44.5893 45.7133 44.5385 45.475 44.2846L43.5648 42.3744C42.8968 41.7064 41.8148 41.7064 41.1468 42.3744L41.0298 42.4875Z" fill="white"/>
</svg>
