<svg width="110" height="135" viewBox="0 0 110 135" fill="none" xmlns="http://www.w3.org/2000/svg">
<path fill-rule="evenodd" clip-rule="evenodd" d="M29.551 57.43H37.5705V61.4495C40.2228 61.9808 42.6916 63.0198 44.8674 64.469L47.7151 61.6213L53.3792 67.2854L50.5315 70.1331C51.9807 72.305 53.0198 74.7776 53.551 77.43H57.5705V85.4495H53.551C53.0198 88.1018 51.9807 90.5706 50.5315 92.7464L53.3792 95.5941L47.7151 101.258L44.8674 98.4105C42.6955 99.8597 40.2229 100.899 37.5705 101.43V105.45H29.551V101.43C26.8987 100.899 24.4299 99.8597 22.2541 98.4105L19.4064 101.258L13.7423 95.5941L16.59 92.7464C15.1408 90.5745 14.1017 88.1019 13.5705 85.4495H9.53931V77.43H13.5588C14.0901 74.7777 15.1291 72.3089 16.5783 70.1331L13.7306 67.2854L19.3947 61.6213L22.2424 64.469C24.4143 63.0198 26.8869 61.9807 29.5393 61.4495V57.43H29.551ZM74.735 101.778V104.391C74.735 105.247 73.7467 105.778 73.0319 105.227L62.8289 97.3406C62.2781 96.9109 62.2781 96.0867 62.8289 95.6687L73.0319 87.782C73.7467 87.2312 74.735 87.7624 74.735 88.6179V90.9968C92.673 88.1101 97.266 71.5358 97.837 58.9028C106.001 76.9378 94.1534 99.43 74.735 101.778ZM35.266 18.223C15.848 20.5707 4.00001 43.063 12.164 61.094C12.7343 48.461 17.3281 31.899 35.266 29V31.3789C35.266 32.2461 36.2543 32.7656 36.9691 32.2149L47.1721 24.3282C47.7229 23.8985 47.7229 23.0743 47.1721 22.6563L36.9691 14.7696C36.2543 14.2188 35.266 14.75 35.266 15.6055V18.223ZM76.438 14.5394C63.172 14.5394 52.418 25.2934 52.418 38.5594C52.418 51.8254 63.172 62.5794 76.438 62.5794C89.704 62.5794 100.458 51.8254 100.458 38.5594C100.462 25.2974 89.704 14.5394 76.438 14.5394ZM74.9692 28.6014C74.9692 27.785 75.6333 27.1326 76.438 27.1326C77.2544 27.1326 77.9068 27.7967 77.9068 28.6014V30.1717C79.2115 30.3748 80.3951 31.1092 81.1607 32.1717C81.6412 32.8241 81.4888 33.7537 80.8326 34.2225C80.1802 34.703 79.2506 34.5506 78.7818 33.8944C78.0591 32.8944 77.1373 33.0467 76.0474 33.0467C74.2818 33.0467 73.3326 35.199 74.6177 36.4842C75.2896 37.1561 75.9654 37.078 76.8208 37.078C81.1997 37.078 83.4653 42.4061 80.3325 45.5468C79.6801 46.1991 78.8442 46.6796 77.9028 46.8827V48.5155C77.9028 49.3319 77.2387 49.9843 76.434 49.9843C75.6176 49.9843 74.9652 49.3202 74.9652 48.5155V46.9452C73.6605 46.7421 72.4769 46.0077 71.7113 44.9452C71.2308 44.2929 71.3832 43.3632 72.0394 42.8944C72.6917 42.4139 73.6214 42.5663 74.0902 43.2225C74.8129 44.2225 75.7347 44.0702 76.8246 44.0702C78.5902 44.0702 79.5394 41.9179 78.2543 40.6327C77.5824 39.9608 76.9066 40.0389 76.0512 40.0389C71.6723 40.0389 69.4067 34.7108 72.5395 31.5701C73.1918 30.9178 74.0278 30.4373 74.9692 30.2342V28.6014ZM76.438 20.328C86.508 20.328 94.672 28.4921 94.672 38.562C94.672 48.6319 86.5079 56.796 76.438 56.796C66.3681 56.796 58.204 48.6319 58.204 38.562C58.204 28.488 66.3681 20.328 76.438 20.328ZM87.254 27.746C93.2228 33.7148 93.2228 43.398 87.254 49.367C81.2852 55.336 71.602 55.3358 65.633 49.367C59.664 43.3982 59.6642 33.715 65.633 27.746C71.6018 21.777 81.278 21.7772 87.254 27.746ZM37.899 81.633C35.6021 81.633 33.7467 83.4885 33.7467 85.7853C33.7467 89.4689 38.2272 91.3244 40.8287 88.7228C43.4498 86.1134 41.5943 81.633 37.899 81.633ZM38.7545 84.9299C38.0006 84.176 36.692 84.7151 36.692 85.7854C36.692 86.8557 37.9967 87.3987 38.7545 86.6409C39.2232 86.1643 39.2232 85.3986 38.7545 84.9299ZM29.2154 72.9499C26.9185 72.9499 25.0631 74.8054 25.0631 77.1022C25.0631 80.7858 29.5436 82.6413 32.1451 80.0397C34.7662 77.4186 32.9068 72.9499 29.2154 72.9499ZM30.0708 76.2468C29.3169 75.4929 28.0083 76.032 28.0083 77.1023C28.0083 78.1726 29.313 78.7156 30.0708 77.9578C30.5396 77.4812 30.5396 76.7155 30.0708 76.2468ZM37.5825 75.3367L27.4615 85.4577C26.8912 86.028 26.8912 86.9694 27.4615 87.5397C28.0319 88.11 28.9732 88.11 29.5435 87.5397L39.6645 77.4187C40.2349 76.8484 40.2349 75.907 39.6645 75.3367C39.0942 74.7664 38.1528 74.7664 37.5825 75.3367ZM33.563 68.0515C26.1646 68.0515 20.176 74.0398 20.176 81.4385C20.176 88.8372 26.1643 94.8255 33.563 94.8255C40.9617 94.8255 46.95 88.8372 46.95 81.4385C46.95 74.0398 40.9617 68.0515 33.563 68.0515Z" fill="white"/>
</svg>
