<svg width="110" height="135" viewBox="0 0 110 135" fill="none" xmlns="http://www.w3.org/2000/svg">
<path d="M13.3319 14.168H21.6639C23.9647 14.168 25.8319 16.4688 25.8319 18.336V21.1133C25.8319 23.4141 23.9647 25.2813 21.6639 25.2813H13.3319C11.0311 25.2813 9.16394 22.9805 9.16394 21.1133V18.336C9.16394 16.0352 11.0311 14.168 13.3319 14.168Z" fill="white"/>
<path d="M13.3319 28.055H21.6639C23.9647 28.055 25.8319 30.3558 25.8319 32.223V51.668C25.8319 53.9688 23.9647 55.836 21.6639 55.836H13.3319C11.0311 55.836 9.16394 53.5352 9.16394 51.668V32.223C9.16394 29.9222 11.0311 28.055 13.3319 28.055Z" fill="white"/>
<path d="M32.777 44.723H41.109C43.4098 44.723 45.277 47.0238 45.277 48.891V51.6683C45.277 53.9691 43.4098 55.8363 41.109 55.8363H32.777C30.4762 55.8363 28.609 53.5355 28.609 51.6683V48.891C28.609 46.5902 30.4762 44.723 32.777 44.723Z" fill="white"/>
<path d="M32.777 14.168H41.109C43.4098 14.168 45.277 16.4688 45.277 18.336V37.781C45.277 40.0818 43.4098 41.949 41.109 41.949H32.777C30.4762 41.949 28.609 39.6482 28.609 37.781V18.336C28.609 16.0352 30.4762 14.168 32.777 14.168Z" fill="white"/>
<path d="M97.766 20.266C93.5863 14.766 86.864 14.1683 84.168 14.1683C83.8203 14.1683 75.7774 14.2386 70.613 20.2113C69.488 21.516 66.82 24.5863 67.531 28.3207C67.656 29.0004 68.0466 30.348 69.2263 31.7387C71.324 34.2114 73.949 34.4887 76.2693 34.7387C77.9646 34.9184 79.4099 35.0707 80.4646 36.0317C81.8396 37.2973 81.7419 39.2817 81.6326 41.3911C81.5232 43.5591 81.4099 46.0005 83.4256 47.2934C84.1326 47.7387 84.9686 47.934 85.8709 47.934C89.7029 47.934 94.8982 44.2543 97.8279 39.9496C99.1052 38.0746 100.66 34.9652 100.843 30.8949C101.023 26.7543 99.9958 23.1879 97.7732 20.2699L97.766 20.266ZM95.2777 32.223C95.2777 32.9886 94.6527 33.6136 93.8871 33.6136C93.1215 33.6136 92.4965 32.9886 92.4965 32.223V30.8324C92.4965 30.0668 93.1215 29.4418 93.8871 29.4418C94.6527 29.4418 95.2777 30.0668 95.2777 30.8324V32.223ZM85.555 21.11C85.555 21.8756 84.93 22.5006 84.1644 22.5006C83.3987 22.5006 82.7738 21.8756 82.7738 21.11V19.7194C82.7738 18.9538 83.3988 18.3288 84.1644 18.3288C84.93 18.3288 85.555 18.9538 85.555 19.7194V21.11ZM78.6097 23.8912C78.6097 24.6568 77.9847 25.2818 77.2191 25.2818C76.4535 25.2818 75.8285 24.6568 75.8285 23.8912V22.5006C75.8285 21.735 76.4535 21.11 77.2191 21.11C77.9847 21.11 78.6097 21.735 78.6097 22.5006V23.8912ZM91.1097 23.8912C91.1097 23.1256 91.7346 22.5006 92.5002 22.5006C93.2658 22.5006 93.8909 23.1256 93.8909 23.8912V25.2818C93.8909 26.0474 93.2658 26.6724 92.5002 26.6724C91.7346 26.6724 91.1097 26.0474 91.1097 25.2818V23.8912Z" fill="white"/>
<path d="M65.984 51.07C65.7497 50.5856 65.2614 50.277 64.7184 50.277C64.1755 50.277 63.6911 50.5817 63.4528 51.07L52.3548 74.679C52.1595 75.0696 52.1752 75.511 52.3705 75.9017L56.5385 84.2337C56.7729 84.7064 57.2455 84.9993 57.7729 84.9993H71.6639C72.1912 84.9993 72.6639 84.7064 72.8983 84.2337L77.0663 75.9017C77.2616 75.5111 77.2733 75.0697 77.0936 74.679L65.984 51.07ZM64.7223 54.9294L66.1129 57.8747V69.9727C67.7223 70.543 68.8902 72.0821 68.8902 73.8907C68.8902 76.1837 67.0152 78.0587 64.7222 78.0587C62.4292 78.0587 60.5542 76.1837 60.5542 73.8907C60.5542 72.086 61.7222 70.543 63.3315 69.9727V57.8747L64.7223 54.9294Z" fill="white"/>
<path d="M66.109 73.891C66.109 75.7426 63.3317 75.7426 63.3317 73.891C63.3317 72.0355 66.109 72.0355 66.109 73.891Z" fill="white"/>
<path d="M71.668 86.391H57.777C57.0113 86.391 56.3864 87.016 56.3864 87.7816V93.3363C56.3864 94.1019 57.0114 94.7269 57.777 94.7269H71.668C72.4336 94.7269 73.0586 94.1019 73.0586 93.3363V87.7816C73.0586 87.016 72.4336 86.391 71.668 86.391ZM70.2774 91.9457H59.1684V89.1684H70.2774V91.9457Z" fill="white"/>
<path d="M33.473 87.777H31.973L16.571 72.375C15.7507 71.5547 14.6687 71.1094 13.5007 71.1094C11.1101 71.1094 9.1687 73.0547 9.1687 75.4414V75.664C9.1687 76.6093 9.48901 77.5546 10.071 78.3046L23.055 95.1956V96.1136C23.055 99.9456 19.9456 103.059 16.1097 103.059C15.3441 103.059 14.7191 103.684 14.7191 104.45C14.7191 105.215 15.3441 105.84 16.1097 105.84H33.4687C38.4414 105.84 42.496 101.785 42.496 96.8128C42.496 91.8402 38.4413 87.7855 33.4687 87.7855L33.473 87.777ZM33.473 103.054H22.903C24.7077 101.288 25.8327 98.8313 25.8327 96.1087V95.386L31.8757 90.554H33.4734C36.9187 90.554 39.7234 93.3587 39.7234 96.804C39.7234 100.249 36.9183 103.054 33.473 103.054Z" fill="white"/>
<path d="M52.93 92.125C52.137 92.5703 51.3323 93 50.5277 93.418C49.848 93.7656 49.5824 94.6133 49.93 95.293C50.18 95.7656 50.6644 96.043 51.1644 96.043C51.3715 96.043 51.5941 95.9883 51.8051 95.8906C52.6371 95.4609 53.4731 95 54.2895 94.5429C54.9574 94.1679 55.1918 93.3202 54.8168 92.6523C54.4418 91.9844 53.5941 91.75 52.9262 92.125L52.93 92.125Z" fill="white"/>
<path d="M45.5981 95.766L44.7231 96.141C44.016 96.4339 43.6801 97.2504 43.9887 97.9613C44.2113 98.4886 44.7231 98.8089 45.266 98.8089C45.4457 98.8089 45.6254 98.766 45.8089 98.6996L46.7113 98.3089C47.4066 98.0042 47.7386 97.1839 47.4183 96.4886C47.1136 95.7816 46.309 95.4613 45.5981 95.766Z" fill="white"/>
<path d="M86.527 61.777C85.8746 61.3591 85.0114 61.5544 84.609 62.2067C84.109 62.9723 83.6246 63.734 83.109 64.4997C82.6793 65.1247 82.8433 65.9997 83.484 66.4294C83.7183 66.5818 83.984 66.6638 84.2613 66.6638C84.7066 66.6638 85.1363 66.4411 85.4136 66.0544C85.9292 65.2771 86.4409 64.4841 86.9566 63.695C87.3589 63.0427 87.1637 62.1794 86.527 61.777Z" fill="white"/>
<path d="M93.793 46.805C93.0859 46.5277 92.2774 46.8753 92 47.598C91.6679 48.4456 91.3203 49.2777 90.957 50.1253C90.6523 50.8323 90.9843 51.6409 91.6914 51.9456C91.8711 52.0276 92.0507 52.055 92.2343 52.055C92.7773 52.055 93.289 51.7346 93.5116 51.2229C93.8866 50.3479 94.2343 49.4885 94.5819 48.5979C94.8593 47.8909 94.5116 47.0823 93.789 46.8049L93.793 46.805Z" fill="white"/>
<path d="M90.516 54.457C89.8363 54.1093 89.0004 54.3867 88.6566 55.0664C88.2386 55.8867 87.8089 56.6914 87.3793 57.4961C87.0199 58.164 87.2543 59.0117 87.934 59.3711C88.141 59.4961 88.3793 59.5508 88.602 59.5508C89.0863 59.5508 89.559 59.2851 89.8247 58.8164C90.27 57.9961 90.7153 57.1641 91.1294 56.332C91.477 55.6367 91.1997 54.8047 90.52 54.457L90.516 54.457Z" fill="white"/>
<path d="M79.902 68.93C79.3473 69.6526 78.777 70.3597 78.2067 71.0706C77.7223 71.6526 77.8043 72.5276 78.3864 73.0276C78.652 73.2346 78.9567 73.3323 79.277 73.3323C79.6793 73.3323 80.07 73.1643 80.3473 72.8323C80.945 72.0979 81.527 71.3753 82.1129 70.6253C82.5699 70.0159 82.4606 69.1409 81.8629 68.68C81.2535 68.2073 80.3785 68.3206 79.9059 68.93L79.902 68.93Z" fill="white"/>
<path d="M99.395 19.2773H99.4185C100.176 19.2773 100.793 18.6718 100.809 17.914C100.821 17.1288 100.836 16.3437 100.836 15.5546C100.836 14.789 100.215 14.164 99.4458 14.164C98.6763 14.164 98.0552 14.7851 98.0552 15.5546C98.0552 16.3241 98.0435 17.0937 98.0279 17.8632C98.0162 18.6288 98.6255 19.2616 99.3912 19.2773H99.395Z" fill="white"/>
</svg>
