<svg width="110" height="135" viewBox="0 0 110 135" fill="none" xmlns="http://www.w3.org/2000/svg">
<path d="M88.582 56.457V80.355H83.7617V61.199L88.582 56.457Z" fill="white"/>
<path d="M96.824 16.543H47.035C45.41 16.543 44.0858 17.8555 44.0858 19.4922V38.6642C40.4647 35.7619 36.0936 34.1369 31.4918 34.0704C25.8316 34.0235 20.4838 36.1329 16.4568 40.1016C12.4373 44.0625 10.2263 49.3555 10.2263 55.0036C10.2263 64.6911 17.0505 73.2616 26.4493 75.3866C26.7579 75.4569 26.9649 75.6991 26.9649 75.9881V78.7069H26.961C25.3672 79.3632 24.2422 80.9374 24.2422 82.7811V97.5311C24.2422 99.9686 26.2305 101.957 28.668 101.957H33.6797C36.1172 101.957 38.1055 99.9686 38.1055 97.5311V82.7811C38.1055 80.9569 37 79.3866 35.418 78.7186H35.4141V75.9881C35.4141 75.6991 35.6212 75.4569 35.9298 75.3866C38.9806 74.6952 41.7384 73.3436 44.086 71.5155V100.511C44.086 102.148 45.4102 103.461 47.0352 103.461H96.8282C98.4532 103.461 99.7774 102.148 99.7774 100.511L99.7734 19.4885C99.7734 17.8557 98.449 16.543 96.824 16.543ZM93.6599 51.137V54.969C93.6599 55.3948 93.3162 55.7502 92.8787 55.7502C92.4529 55.7502 92.0974 55.3948 92.0974 54.969V53.0002L90.1482 54.9182V80.3562H91.9802C92.406 80.3562 92.7615 80.7116 92.7615 81.1374C92.7615 81.5749 92.406 81.9187 91.9802 81.9187H55.0972C54.6597 81.9187 54.316 81.5749 54.316 81.1374C54.316 80.7116 54.6597 80.3562 55.0972 80.3562H56.6597V58.9612C56.6597 58.6682 56.8355 58.3869 57.1089 58.2619C57.3785 58.1252 57.691 58.1682 57.9332 58.3557L66.5699 65.2424L73.7574 58.5979C74.0581 58.3167 74.5386 58.3166 74.8316 58.6174L79.4878 63.2229L90.9758 51.9219H88.7375C88.3 51.9219 87.9445 51.5782 87.9445 51.1407C87.9445 50.7149 88.3 50.3594 88.7375 50.3594H92.882C93.3155 50.3555 93.6599 50.7073 93.6599 51.137ZM55.2109 46.637C54.7734 46.637 54.4297 46.2815 54.4297 45.8557C54.4297 45.4182 54.7734 45.0745 55.2109 45.0745H91.2539C91.6797 45.0745 92.0352 45.4182 92.0352 45.8557C92.0352 46.2815 91.6797 46.637 91.2539 46.637H55.2109ZM77.6169 53.0745C77.6169 53.5003 77.2614 53.8557 76.8357 53.8557H58.3357C57.9099 53.8557 57.5544 53.5003 57.5544 53.0745C57.5544 52.6487 57.9099 52.2932 58.3357 52.2932H76.8357C77.2614 52.2932 77.6169 52.6448 77.6169 53.0745ZM92.0349 31.4065C92.0349 31.8322 91.6794 32.1877 91.2537 32.1877H79.5547C79.1289 32.1877 78.7734 31.8322 78.7734 31.4065C78.7734 30.969 79.1289 30.6252 79.5547 30.6252H91.2537C91.6794 30.6252 92.0349 30.969 92.0349 31.4065ZM84.7927 18.1055L83.8044 23.1797L60.0544 23.1758L59.0662 18.1016L84.7927 18.1055ZM52.6167 30.6255H74.5737C75.0112 30.6255 75.355 30.9692 75.355 31.4067C75.355 31.8325 75.0112 32.188 74.5737 32.188H52.6167C52.1792 32.188 51.8355 31.8325 51.8355 31.4067C51.8355 30.9692 52.1792 30.6255 52.6167 30.6255ZM52.6167 37.8443H91.2537C91.6795 37.8443 92.035 38.1997 92.035 38.6255C92.035 39.063 91.6795 39.4068 91.2537 39.4068H52.6167C52.1792 39.4068 51.8355 39.063 51.8355 38.6255C51.8355 38.1997 52.1792 37.8443 52.6167 37.8443ZM35.5857 73.8643C34.5662 74.0947 33.8513 74.9698 33.8513 75.9893V78.3682C33.8005 78.3604 33.738 78.3565 33.6794 78.3565H28.6677C28.617 78.3565 28.5662 78.3565 28.5271 78.3682V75.9893C28.5271 74.9698 27.8162 74.0948 26.7927 73.8643C18.0974 71.8995 11.7887 63.9659 11.7887 55.0053C11.7887 49.7787 13.8356 44.8843 17.5543 41.2163C21.2809 37.5444 26.2379 35.5796 31.4723 35.6343C36.5739 35.7046 41.3981 37.8374 45.0543 41.6304C48.7184 45.4312 50.6715 50.3413 50.5582 55.4544C50.3551 64.345 44.1993 71.9153 35.5857 73.8643ZM98.2107 100.512C98.2107 101.282 97.5974 101.899 96.824 101.899L47.035 101.895C46.2733 101.895 45.6483 101.282 45.6483 100.508V90.2784H98.2103L98.2107 100.512Z" fill="white"/>
<path d="M65.812 96.871H78.054C78.4837 96.871 78.8353 96.5194 78.8353 96.0897C78.8353 95.66 78.4837 95.3085 78.054 95.3085H65.812C65.3823 95.3085 65.0308 95.66 65.0308 96.0897C65.0308 96.5194 65.3784 96.871 65.812 96.871Z" fill="white"/>
<path d="M31.1911 40.824C23.3669 40.824 17.0031 47.1873 17.0031 55C17.0031 62.8242 23.3664 69.188 31.1911 69.188C39.0036 69.188 45.3671 62.8247 45.3671 55C45.3671 47.1875 39.0038 40.824 31.1911 40.824ZM24.4099 56.426C24.1091 56.1252 23.9411 55.7189 23.9411 55.2893C23.9411 54.8635 24.1091 54.4572 24.4099 54.1526C24.7106 53.8518 25.1169 53.6838 25.5466 53.6838C25.9841 53.6838 26.3786 53.8518 26.6833 54.1526L28.57 56.0276C28.8707 56.3401 29.3707 56.3401 29.6755 56.0276L35.695 50.0081C36.3004 49.4026 37.363 49.4026 37.9645 50.0081C38.5895 50.6331 38.5895 51.6526 37.9645 52.2776L30.2575 59.9846C29.652 60.5979 28.5895 60.5979 27.988 59.9846L24.4099 56.426Z" fill="white"/>
<path d="M78.9299 64.875L77.3792 63.332V80.352H82.2033L82.1994 62.739L80.0236 64.8757C79.7229 65.1765 79.2308 65.1758 78.9299 64.875Z" fill="white"/>
<path d="M70.9919 63.27V80.356H75.8161V61.794L74.2614 60.251L70.9919 63.27Z" fill="white"/>
<path d="M66.117 66.887L64.6053 65.68V80.356H69.4295V64.719L67.1365 66.844C66.8553 67.1057 66.4178 67.1253 66.117 66.887Z" fill="white"/>
<path d="M58.223 80.355H63.0433V64.425L58.223 60.5812V80.355Z" fill="white"/>
</svg>
