<svg width="540" height="676" viewBox="0 0 540 676" fill="none" xmlns="http://www.w3.org/2000/svg">
<path d="M397.5 342.219C401.901 342.219 405.469 338.651 405.469 334.25C405.469 329.849 401.901 326.281 397.5 326.281C393.099 326.281 389.531 329.849 389.531 334.25C389.531 338.651 393.099 342.219 397.5 342.219Z" fill="white"/>
<path d="M198.281 119.094C158.735 119.094 126.562 151.267 126.562 190.813C126.562 230.359 158.735 262.532 198.281 262.532C237.827 262.532 270 230.358 270 190.812C270 151.266 237.827 119.094 198.281 119.094ZM235.791 172.541L195.947 212.385C192.833 215.497 187.79 215.496 184.677 212.385L160.771 188.479C157.659 185.366 157.659 180.321 160.771 177.209C163.884 174.098 168.929 174.098 172.041 177.209L190.312 195.481L224.521 161.271C227.634 158.16 232.679 158.16 235.791 161.271C238.903 164.384 238.903 169.429 235.791 172.541Z" fill="white"/>
<path d="M397.5 413.938C401.901 413.938 405.469 410.37 405.469 405.969C405.469 401.568 401.901 398 397.5 398C393.099 398 389.531 401.568 389.531 405.969C389.531 410.37 393.099 413.938 397.5 413.938Z" fill="white"/>
<path d="M284.504 358.156C294.083 358.156 301.875 350.364 301.875 340.785V334.25H238.125V340.785C238.125 350.364 245.917 358.156 255.496 358.156H284.504Z" fill="white"/>
<path d="M461.25 206.75V71.281H78.75V318.312C88.01 318.312 327.424 318.312 333.75 318.312V243.831C333.75 223.384 350.385 206.749 370.832 206.749C387.623 206.75 438.402 206.75 461.25 206.75ZM198.281 278.469C149.948 278.469 110.625 239.146 110.625 190.813C110.625 142.48 149.948 103.157 198.281 103.157C246.614 103.157 285.937 142.48 285.937 190.813C285.937 239.146 246.615 278.469 198.281 278.469Z" fill="white"/>
<path d="M349.688 488.418C349.688 500.076 359.174 509.562 370.832 509.562H503.856C515.514 509.562 525 500.076 525 488.418V469.718H349.688V488.418Z" fill="white"/>
<path d="M428.135 238.625H446.552C454.657 238.625 461.25 232.032 461.25 223.927V222.687H413.438V223.927C413.438 232.032 420.03 238.625 428.135 238.625Z" fill="white"/>
<path d="M477.188 413.938C481.589 413.938 485.157 410.37 485.157 405.969C485.157 401.568 481.589 398 477.188 398C472.787 398 469.219 401.568 469.219 405.969C469.219 410.37 472.787 413.938 477.188 413.938Z" fill="white"/>
<path d="M503.856 222.688H477.188V223.928C477.188 240.82 463.445 254.563 446.553 254.563H428.136C411.244 254.563 397.501 240.82 397.501 223.928V222.688H370.833C359.175 222.688 349.689 232.174 349.689 243.832V453.782H525V243.832C525 232.173 515.514 222.688 503.856 222.688ZM397.5 429.875C384.318 429.875 373.594 419.15 373.594 405.969C373.594 392.788 384.319 382.063 397.5 382.063C410.681 382.063 421.406 392.788 421.406 405.969C421.406 419.15 410.682 429.875 397.5 429.875ZM397.5 358.156C384.318 358.156 373.594 347.431 373.594 334.25C373.594 321.069 384.319 310.344 397.5 310.344C410.681 310.344 421.406 321.069 421.406 334.25C421.406 347.431 410.682 358.156 397.5 358.156ZM477.188 429.875C464.006 429.875 453.282 419.15 453.282 405.969C453.282 392.788 464.007 382.063 477.188 382.063C490.369 382.063 501.094 392.788 501.094 405.969C501.094 419.15 490.369 429.875 477.188 429.875ZM477.188 358.156C464.006 358.156 453.282 347.431 453.282 334.25C453.282 321.069 464.007 310.344 477.188 310.344C490.369 310.344 501.094 321.069 501.094 334.25C501.094 347.431 490.369 358.156 477.188 358.156Z" fill="white"/>
<path d="M62.8118 68.996C62.8118 61.468 68.9368 55.343 76.4648 55.343H463.535C471.063 55.343 477.188 61.468 477.188 68.996V206.75H501.094V66.022C501.094 46.952 485.58 31.438 466.51 31.438H73.4898C54.4198 31.438 38.9058 46.952 38.9058 66.022V318.313H62.8118V68.996Z" fill="white"/>
<path d="M317.812 340.785C317.812 359.152 302.87 374.094 284.503 374.094H255.496C237.129 374.094 222.187 359.152 222.187 340.785V334.25H15V370.906C15 385.845 27.154 398 42.094 398H333.75V334.25H317.812V340.785Z" fill="white"/>
<path d="M477.188 342.219C481.589 342.219 485.157 338.651 485.157 334.25C485.157 329.849 481.589 326.281 477.188 326.281C472.787 326.281 469.219 329.849 469.219 334.25C469.219 338.651 472.787 342.219 477.188 342.219Z" fill="white"/>
</svg>
