<svg width="110" height="136" viewBox="0 0 110 136" fill="none" xmlns="http://www.w3.org/2000/svg">
<path d="M71.402 58.551C71.402 50.5822 64.9176 44.098 56.949 44.098C56.1169 44.098 55.3045 44.184 54.5076 44.3207V72.7817C55.3044 72.9184 56.1131 73.0043 56.949 73.0043C64.9178 73.0043 71.402 66.5196 71.402 58.551Z" fill="white"/>
<path d="M54.5081 79.098C55.3088 79.1918 56.1214 79.2543 56.9495 79.2543C68.3635 79.2543 77.6525 69.9652 77.6525 58.5513C77.6525 47.1373 68.3634 37.8483 56.9495 37.8483C56.1213 37.8483 55.3089 37.9108 54.5081 38.0045V41.9498C55.3088 41.8326 56.1175 41.7506 56.9495 41.7506C66.2112 41.7506 73.7465 49.2858 73.7465 58.5476C73.7465 67.8094 66.2113 75.3446 56.9495 75.3446C56.1174 75.3446 55.3089 75.2626 54.5081 75.1454V79.098Z" fill="white"/>
<path d="M97.1879 50.68H93.1332C92.2582 50.68 91.4926 50.1058 91.2699 49.2855C90.4731 46.3324 89.2972 43.4886 87.7699 40.8402C87.3442 40.1019 87.4809 39.1488 88.0981 38.5316L90.9653 35.6644C92.6411 33.9886 92.6411 31.2621 90.9653 29.5863L85.9106 24.5316C84.2348 22.8558 81.5083 22.8558 79.8325 24.5316L76.9653 27.3988C76.3442 28.0199 75.395 28.1527 74.6567 27.7269C72.0044 26.1996 69.1645 25.0238 66.2114 24.2269C65.391 24.0043 64.8169 23.2386 64.8169 22.3636V18.3089C64.8169 15.9378 62.8872 14.012 60.52 14.012H53.3716C51.0044 14.012 49.0747 15.9378 49.0747 18.3089V22.3636C49.0747 23.2386 48.5004 24.0042 47.6802 24.2269C44.7271 25.0238 41.8833 26.1996 39.2349 27.7269C38.4927 28.1488 37.5435 28.0199 36.9263 27.3988L34.0591 24.5316C32.3833 22.8558 29.6568 22.8558 27.981 24.5316L23.981 28.5316H47.864C51.5242 28.5316 54.5046 31.5121 54.5046 35.1722V35.6331C55.3053 35.5472 56.1218 35.5003 56.946 35.5003C69.653 35.5003 79.993 45.8403 79.993 58.5473C79.993 71.2543 69.653 81.5943 56.946 81.5943C56.1217 81.5943 55.3093 81.5475 54.5046 81.4615V102.685C54.5046 102.821 54.4733 102.95 54.4655 103.083H60.5202C62.8874 103.083 64.8171 101.157 64.8171 98.7861V94.7314C64.8171 93.8564 65.3913 93.0908 66.2116 92.8681C69.1647 92.0712 72.0085 90.8954 74.6569 89.3681C75.3952 88.9423 76.3444 89.0751 76.9655 89.6962L79.8327 92.5634C81.5085 94.2392 84.235 94.2392 85.9108 92.5634L90.9655 87.5087C92.6413 85.8329 92.6413 83.1064 90.9655 81.4306L88.0983 78.5634C87.4811 77.9462 87.3444 76.9931 87.7702 76.2548C89.2975 73.6025 90.4733 70.7626 91.2702 67.8095C91.4928 66.9892 92.2585 66.415 93.1335 66.415H97.1882C99.5593 66.415 101.485 64.4853 101.485 62.1181V54.9697C101.485 52.6025 99.5593 50.6728 97.1882 50.6728L97.1879 50.68Z" fill="white"/>
<path d="M47.867 30.879H41.8904V34.4962C41.8904 36.8634 39.9607 38.7931 37.5935 38.7931H23.0855C20.7183 38.7931 18.7886 36.8634 18.7886 34.4962V30.879H12.812C10.4448 30.879 8.51514 32.8087 8.51514 35.1759V94.0119H52.1631V35.1759C52.1631 32.8087 50.2342 30.879 47.867 30.879Z" fill="white"/>
<path d="M23.086 36.449H37.598C38.6761 36.449 39.5511 35.574 39.5511 34.4959V30.8787H21.1331V34.4959C21.1331 35.574 22.0079 36.449 23.086 36.449Z" fill="white"/>
<path d="M8.51562 102.688C8.51562 105.055 10.4453 106.985 12.8125 106.985H47.8675C50.2347 106.985 52.1644 105.055 52.1644 102.688V96.356H8.51643L8.51562 102.688ZM27.7886 99.2583H32.8941C33.5426 99.2583 34.066 99.7818 34.066 100.43C34.066 101.079 33.5426 101.602 32.8941 101.602H27.7886C27.1402 101.602 26.6167 101.079 26.6167 100.43C26.6167 99.7818 27.1402 99.2583 27.7886 99.2583Z" fill="white"/>
</svg>
