<svg width="512" height="512" viewBox="0 0 512 512" fill="none" xmlns="http://www.w3.org/2000/svg">
<path d="M64 16C51.281 16.0371 39.0936 21.1062 30.0999 30.0999C21.1062 39.0936 16.0371 51.281 16 64V112H240V16H64ZM80 80C76.8355 80 73.7421 79.0616 71.1109 77.3035C68.4797 75.5454 66.4289 73.0466 65.2179 70.1229C64.0069 67.1993 63.6901 63.9823 64.3074 60.8786C64.9248 57.7749 66.4487 54.9239 68.6863 52.6863C70.9239 50.4487 73.7749 48.9248 76.8786 48.3074C79.9823 47.6901 83.1993 48.0069 86.1229 49.2179C89.0466 50.4289 91.5454 52.4797 93.3035 55.1109C95.0616 57.7421 96 60.8355 96 64C95.9878 68.2397 94.2981 72.3023 91.3002 75.3002C88.3023 78.2981 84.2397 79.9878 80 80ZM128 80C124.835 80 121.742 79.0616 119.111 77.3035C116.48 75.5454 114.429 73.0466 113.218 70.1229C112.007 67.1993 111.69 63.9823 112.307 60.8786C112.925 57.7749 114.449 54.9239 116.686 52.6863C118.924 50.4487 121.775 48.9248 124.879 48.3074C127.982 47.6901 131.199 48.0069 134.123 49.2179C137.047 50.4289 139.545 52.4797 141.304 55.1109C143.062 57.7421 144 60.8355 144 64C143.988 68.2397 142.298 72.3023 139.3 75.3002C136.302 78.2981 132.24 79.9878 128 80ZM176 80C172.835 80 169.742 79.0616 167.111 77.3035C164.48 75.5454 162.429 73.0466 161.218 70.1229C160.007 67.1993 159.69 63.9823 160.307 60.8786C160.925 57.7749 162.449 54.9239 164.686 52.6863C166.924 50.4487 169.775 48.9248 172.879 48.3074C175.982 47.6901 179.199 48.0069 182.123 49.2179C185.047 50.4289 187.545 52.4797 189.304 55.1109C191.062 57.7421 192 60.8355 192 64C191.988 68.2397 190.298 72.3023 187.3 75.3002C184.302 78.2981 180.24 79.9878 176 80Z" fill="white"/>
<path d="M272 112H496V64C495.986 51.2739 490.924 39.073 481.926 30.0743C472.927 21.0756 460.726 16.014 448 16H272V112Z" fill="white"/>
<path d="M16 144V448C16.0371 460.719 21.1062 472.906 30.0999 481.9C39.0936 490.894 51.281 495.963 64 496H448C460.719 495.963 472.906 490.894 481.9 481.9C490.894 472.906 495.963 460.719 496 448V144H16ZM143.2 279.2L334.72 215.84L331.2 214.08C329.3 213.146 327.605 211.845 326.211 210.252C324.817 208.659 323.752 206.805 323.078 204.798C322.405 202.792 322.135 200.671 322.285 198.56C322.435 196.448 323.002 194.387 323.953 192.496C324.904 190.605 326.22 188.921 327.825 187.541C329.431 186.161 331.293 185.113 333.306 184.457C335.319 183.801 337.441 183.55 339.551 183.719C341.661 183.887 343.717 184.472 345.6 185.44L383.52 204.48C385.404 205.416 387.083 206.719 388.456 208.313C389.83 209.906 390.872 211.758 391.52 213.76C392.815 217.781 392.47 222.152 390.56 225.92L371.52 264C370.202 266.648 368.171 268.875 365.654 270.43C363.138 271.985 360.238 272.806 357.28 272.8C354.777 272.768 352.315 272.166 350.08 271.04C346.306 269.128 343.445 265.796 342.125 261.776C340.805 257.756 341.134 253.377 343.04 249.6L344.8 246.08L153.28 309.6C151.692 310.176 150.009 310.447 148.32 310.4C144.516 310.408 140.834 309.062 137.932 306.603C135.03 304.144 133.098 300.732 132.482 296.979C131.866 293.225 132.606 289.375 134.57 286.118C136.534 282.86 139.593 280.408 143.2 279.2ZM416 432C415.988 436.24 414.298 440.302 411.3 443.3C408.302 446.298 404.24 447.988 400 448H112C107.757 448 103.687 446.314 100.686 443.314C97.6857 440.313 96 436.243 96 432C96 427.757 97.6857 423.687 100.686 420.686C103.687 417.686 107.757 416 112 416H128V352C128 347.757 129.686 343.687 132.686 340.686C135.687 337.686 139.757 336 144 336C148.243 336 152.313 337.686 155.314 340.686C158.314 343.687 160 347.757 160 352V416H192V336C192 331.757 193.686 327.687 196.686 324.686C199.687 321.686 203.757 320 208 320C212.243 320 216.313 321.686 219.314 324.686C222.314 327.687 224 331.757 224 336V416H256V320C256 315.757 257.686 311.687 260.686 308.686C263.687 305.686 267.757 304 272 304C276.243 304 280.313 305.686 283.314 308.686C286.314 311.687 288 315.757 288 320V416H320V304C320 299.757 321.686 295.687 324.686 292.686C327.687 289.686 331.757 288 336 288C340.243 288 344.313 289.686 347.314 292.686C350.314 295.687 352 299.757 352 304V416H384V288C384 283.757 385.686 279.687 388.686 276.686C391.687 273.686 395.757 272 400 272C404.243 272 408.313 273.686 411.314 276.686C414.314 279.687 416 283.757 416 288V432Z" fill="white"/>
</svg>
