<svg width="512" height="512" viewBox="0 0 512 512" fill="none" xmlns="http://www.w3.org/2000/svg">
<path d="M350.357 381.547C346.032 388.539 340.788 395.163 334.808 401.144C328.736 407.216 322.112 412.46 315.028 416.876L369.309 474.745L369.953 475.389C380.625 486.06 398.105 486.06 408.869 475.205C419.818 464.256 419.542 446.316 408.317 435.737L350.357 381.547Z" fill="white"/>
<path d="M187.437 28.6304H45.232C37.9654 28.6304 31.5474 32.3238 27.7555 37.9319C25.4807 41.2972 24.1509 45.3516 24.1509 49.7115V95.6773H187.437V28.6304ZM66.658 72.697H62.4892C56.6682 72.697 51.9486 67.9774 51.9486 62.1564C51.9486 56.3354 56.6682 51.6158 62.4892 51.6158H66.658C72.479 51.6158 77.1986 56.3354 77.1986 62.1564C77.1986 67.9774 72.479 72.697 66.658 72.697ZM107.879 72.697H103.71C97.8886 72.697 93.169 67.9774 93.169 62.1564C93.169 56.3354 97.8886 51.6158 103.71 51.6158H107.879C113.7 51.6158 118.419 56.3354 118.419 62.1564C118.419 67.9774 113.7 72.697 107.879 72.697ZM149.099 72.697H144.925C139.104 72.697 134.384 67.9774 134.384 62.1564C134.384 56.3354 139.104 51.6158 144.925 51.6158H149.099C154.92 51.6158 159.64 56.3354 159.64 62.1564C159.64 67.9774 154.92 72.697 149.099 72.697Z" fill="white"/>
<path d="M487.828 49.7115C487.828 38.085 478.374 28.6304 466.747 28.6304H208.518V95.6773H487.828V49.7115Z" fill="white"/>
<path d="M24.1689 116.734V369.919C24.1689 381.513 33.6557 391 45.2501 391H166.256C133.095 347.181 135.756 283.945 176.692 243.011C220.326 199.158 291.96 198.485 336.592 243.115C369.267 275.686 377.7 323.33 362.205 363.805L391.298 391H466.768C478.363 391 487.849 381.513 487.849 369.919V116.734H24.1689ZM130.734 243.959H97.5316C91.7344 243.959 86.991 239.216 86.991 233.418C86.991 227.621 91.7344 222.878 97.5316 222.878H130.734C136.532 222.878 141.275 227.621 141.275 233.418C141.275 239.216 136.532 243.959 130.734 243.959ZM110.18 286.438H97.5316C91.7344 286.438 86.991 281.694 86.991 275.897C86.991 270.099 91.7344 265.357 97.5316 265.357H110.18C115.978 265.357 120.721 270.099 120.721 275.897C120.721 281.694 115.978 286.438 110.18 286.438ZM114.607 318.481C114.607 324.278 109.864 329.021 104.067 329.021H97.5316C91.7344 329.021 86.991 324.278 86.991 318.481C86.991 312.684 91.7344 307.94 97.5316 307.94H104.067C109.864 307.94 114.607 312.684 114.607 318.481ZM176.375 201.481H97.5316C91.7344 201.481 86.991 196.737 86.991 190.94C86.991 185.142 91.7344 180.4 97.5316 180.4H176.375C182.172 180.4 186.916 185.142 186.916 190.94C186.916 196.737 182.172 201.481 176.375 201.481ZM326.895 201.481C321.097 201.481 316.354 196.737 316.354 190.94C316.354 185.142 321.097 180.4 326.895 180.4H414.382C420.179 180.4 424.922 185.142 424.922 190.94C424.922 196.737 420.179 201.481 414.382 201.481H326.895ZM362.1 233.418C362.1 227.621 366.843 222.878 372.641 222.878H414.382C420.179 222.878 424.922 227.621 424.922 233.418C424.922 239.216 420.179 243.959 414.382 243.959H372.641C366.843 243.959 362.1 239.216 362.1 233.418ZM393.195 265.357H414.382C420.179 265.357 424.922 270.099 424.922 275.897C424.922 281.694 420.179 286.438 414.382 286.438H393.195C387.398 286.438 382.654 281.694 382.654 275.897C382.654 270.099 387.398 265.357 393.195 265.357ZM424.922 318.481C424.922 324.278 420.179 329.021 414.382 329.021H399.309C393.511 329.021 388.768 324.278 388.768 318.481C388.768 312.684 393.511 307.94 399.309 307.94H414.382C420.179 307.94 424.922 312.684 424.922 318.481ZM466.768 360.96C466.768 366.757 462.025 371.5 456.227 371.5H394.987C389.189 371.5 384.446 366.757 384.446 360.96C384.446 355.162 389.189 350.419 394.987 350.419H445.687V158.896H66.2258V350.419H110.496C116.294 350.419 121.037 355.162 121.037 360.96C121.037 366.757 116.294 371.5 110.496 371.5H55.6852C49.888 371.5 45.1446 366.757 45.1446 360.96V148.356C45.1446 142.559 49.888 137.815 55.6852 137.815H456.227C462.025 137.815 466.768 142.559 466.768 148.356V360.96Z" fill="white"/>
<path d="M321.704 257.98C285.732 222.009 227.449 222.009 191.542 257.916C155.571 293.887 155.571 352.17 191.542 388.141C227.449 424.048 285.797 424.113 321.768 388.141C357.675 352.235 357.61 293.887 321.704 257.98ZM301.51 327.392C301.389 327.401 301.268 327.401 301.151 327.401C296.439 327.401 292.591 323.795 292.103 319.14L268.735 344.377C267.068 346.178 264.755 347.238 262.307 347.324C259.854 347.355 257.473 346.511 255.689 344.835L241.741 331.749L219.653 355.625C216.212 359.348 210.384 359.586 206.652 356.128C202.923 352.679 202.699 346.861 206.149 343.128L234.526 312.45C236.189 310.653 238.502 309.593 240.955 309.504C243.358 309.373 245.789 310.312 247.572 311.992L261.525 325.083L278.593 306.648C273.694 306.666 269.836 302.762 269.651 297.896C269.454 292.815 273.411 288.543 278.487 288.35C284.447 288.139 297.38 287.569 300.392 287.582C305.496 287.482 309.336 291.546 309.52 296.365L310.347 317.846C310.544 322.926 306.587 327.198 301.51 327.392Z" fill="white"/>
</svg>
