<svg width="3000" height="3750" viewBox="0 0 3000 3750" fill="none" xmlns="http://www.w3.org/2000/svg">
<path d="M1307.41 1406.61H1403.65C1411.4 1393.77 1424.86 1384.74 1440.91 1384.74C1465.34 1384.74 1485.18 1404.58 1485.18 1428.99C1485.18 1453.4 1465.34 1473.24 1440.91 1473.24C1424.86 1473.24 1411.4 1464.2 1403.65 1451.37H1307.41V1525.53H1439.65C1452.02 1525.53 1462.02 1535.54 1462.02 1547.9V1605.35C1474.81 1613.09 1483.83 1626.5 1483.83 1642.51C1483.83 1666.85 1463.99 1686.69 1439.65 1686.69C1415.31 1686.69 1395.51 1666.85 1395.51 1642.51C1395.51 1626.51 1404.5 1613.1 1417.27 1605.36V1570.27H1307.41V1692.59H1692.58V1563.37H1642.24L1614.02 1605.67C1620.5 1619.44 1620.51 1635.91 1611.43 1649.41C1604.79 1659.29 1594.69 1666.02 1582.98 1668.29C1580.1 1668.86 1577.21 1669.12 1574.33 1669.12C1565.55 1669.12 1556.98 1666.54 1549.51 1661.52C1539.59 1654.83 1532.9 1644.74 1530.59 1633.07C1528.32 1621.36 1530.72 1609.47 1537.36 1599.6C1544 1589.73 1554.14 1582.99 1565.85 1580.68C1569.56 1579.95 1573.21 1580.5 1576.89 1580.71L1611.65 1528.57C1615.8 1522.34 1622.79 1518.61 1630.27 1518.61H1692.59V1496.5H1630.27C1622.8 1496.5 1615.81 1492.76 1611.65 1486.54L1576.67 1434.08C1575.94 1434.12 1575.24 1434.4 1574.51 1434.4C1571.67 1434.4 1568.83 1434.14 1566.03 1433.59C1554.54 1431.34 1544.62 1424.76 1538.06 1415.04C1524.6 1395.05 1529.93 1367.78 1549.95 1354.3C1549.95 1354.3 1549.95 1354.28 1549.99 1354.28C1570.05 1340.84 1597.32 1346.15 1610.73 1366.19C1617.24 1375.89 1619.6 1387.58 1617.37 1399.07C1616.68 1402.53 1614.89 1405.48 1613.46 1408.6L1642.24 1451.75H1692.58V1307.41H1307.41V1406.61Z" fill="white"/>
<path d="M1786.72 1729.21V1270.82C1786.72 1239.09 1760.94 1213.29 1729.21 1213.29H1270.8C1239.07 1213.29 1213.29 1239.09 1213.29 1270.82V1729.21C1213.29 1760.94 1239.07 1786.72 1270.8 1786.72H1729.21C1760.93 1786.72 1786.72 1760.93 1786.72 1729.21ZM1285.04 1737.34C1272.67 1737.34 1262.67 1727.33 1262.67 1714.97V1285.03C1262.67 1272.66 1272.68 1262.66 1285.04 1262.66H1714.96C1727.33 1262.66 1737.33 1272.67 1737.33 1285.03V1714.97C1737.33 1727.34 1727.32 1737.34 1714.96 1737.34H1285.04Z" fill="white"/>
<path d="M2493.79 1332.5H2352.55C2320.21 1332.5 2292.33 1311.2 2283.15 1279.47C2265.45 1218.38 2240.54 1159.4 2209.08 1104.23C2192.78 1075.54 2197.32 1039.55 2220.18 1016.7L2321.17 915.71C2331.88 905.03 2331.88 887.61 2321.17 876.9L2123.08 678.85C2112.68 668.45 2094.67 668.45 2084.27 678.85L1981.05 782.05C1958.24 804.95 1923.37 809.49 1894.61 793.52C1839.55 762.95 1781.12 738.89 1720.95 721.98C1688.96 712.98 1667.5 685.12 1667.5 652.65V506.19C1667.5 491.07 1655.18 478.77 1640.06 478.77H1359.94C1344.82 478.77 1332.5 491.07 1332.5 506.19V652.65C1332.5 685.12 1311.04 712.98 1279.1 721.98C1218.92 738.87 1160.5 762.93 1105.39 793.5C1076.59 809.49 1041.72 804.95 1018.91 782.03L915.73 678.85C905.33 668.45 887.32 668.45 876.92 678.85L678.83 876.9C668.12 887.61 668.12 905.02 678.83 915.71L779.82 1016.7C802.68 1039.56 807.22 1075.54 790.92 1104.21C759.46 1159.4 734.55 1218.38 716.85 1279.49C707.67 1311.19 679.79 1332.5 647.45 1332.5H506.21C491.09 1332.5 478.77 1344.8 478.77 1359.94V1640.06C478.77 1655.18 491.09 1667.5 506.21 1667.5H643.08C675.37 1667.5 704.04 1689.74 712.78 1721.64C729.74 1783.87 754.43 1844.44 786.2 1901.64C802.28 1930.57 797.65 1965.44 774.71 1988.38L678.83 2084.26C668.12 2094.97 668.12 2112.36 678.83 2123.07L876.92 2321.16C887.58 2331.82 905.06 2331.82 915.73 2321.16L1009.51 2227.34C1023.23 2213.66 1041.63 2206.54 1060.33 2206.54C1072.87 2206.54 1085.5 2209.73 1096.99 2216.29C1154.28 2248.98 1215.5 2274.59 1278.87 2292.37C1310.95 2301.42 1332.49 2329.38 1332.49 2361.94V2493.78C1332.49 2508.9 1344.81 2521.22 1359.93 2521.22H1640.05C1655.17 2521.22 1667.49 2508.9 1667.49 2493.78V2361.94C1667.49 2329.38 1689.03 2301.42 1721.07 2292.37C1784.48 2274.58 1845.7 2248.98 1902.95 2216.29C1931.57 2199.99 1967.54 2204.53 1990.48 2227.3L2084.26 2321.17C2094.92 2331.83 2112.4 2331.83 2123.07 2321.17L2321.16 2123.08C2331.87 2112.37 2331.87 2094.98 2321.16 2084.27L2225.28 1988.39C2202.34 1965.45 2197.71 1930.57 2213.79 1901.6C2245.56 1844.44 2270.25 1783.87 2287.21 1721.64C2295.95 1689.74 2324.62 1667.5 2356.91 1667.5H2493.78C2508.9 1667.5 2521.22 1655.18 2521.22 1640.06V1359.94C2521.23 1344.8 2508.91 1332.5 2493.79 1332.5ZM2090.61 1341.67C2114.99 1341.67 2134.83 1361.51 2134.83 1385.89C2134.83 1410.27 2114.99 1430.11 2090.61 1430.11C2074.57 1430.11 2061.11 1421.08 2053.36 1408.26H1867.3C1854.93 1408.26 1844.93 1398.25 1844.93 1385.89C1844.93 1373.52 1854.94 1363.52 1867.3 1363.52H2053.36C2061.11 1350.7 2074.56 1341.67 2090.61 1341.67ZM1986.73 1500C1986.73 1512.37 1976.72 1522.37 1964.36 1522.37H1867.3C1854.93 1522.37 1844.93 1512.36 1844.93 1500C1844.93 1487.64 1854.94 1477.63 1867.3 1477.63H1964.36C1976.73 1477.63 1986.73 1487.63 1986.73 1500ZM1719.29 1030.73C1719.29 1018.36 1729.3 1008.36 1741.66 1008.36C1754.03 1008.36 1764.03 1018.37 1764.03 1030.73V1087.19C1831.01 1108.02 1900.2 1177.68 1923.01 1248.53C1923.1 1248.82 1923.03 1249.11 1923.11 1249.4H1964.35C1976.72 1249.4 1986.72 1259.41 1986.72 1271.77C1986.72 1284.14 1976.71 1294.14 1964.35 1294.14H1867.29C1854.92 1294.14 1844.92 1284.13 1844.92 1271.77C1844.92 1259.4 1854.93 1249.4 1867.29 1249.4H1875.19C1854.75 1201.27 1808.02 1153.58 1762.7 1134.36C1759.86 1143.45 1751.68 1150.16 1741.65 1150.16C1729.28 1150.16 1719.28 1140.15 1719.28 1127.79V1030.73H1719.29ZM1627.56 861.04C1651.51 861.04 1671 880.53 1671 904.48C1671 920.08 1662.3 933.15 1649.94 940.82V1127.79C1649.94 1140.16 1639.93 1150.16 1627.57 1150.16C1615.21 1150.16 1605.2 1140.15 1605.2 1127.79V940.82C1592.84 933.15 1584.14 920.08 1584.14 904.48C1584.12 880.53 1603.61 861.04 1627.56 861.04ZM1491.09 1030.73C1491.09 1018.36 1501.1 1008.36 1513.46 1008.36C1525.83 1008.36 1535.83 1018.37 1535.83 1030.73V1127.79C1535.83 1140.16 1525.82 1150.16 1513.46 1150.16C1501.09 1150.16 1491.09 1140.15 1491.09 1127.79V1030.73ZM1399.36 860.6C1423.57 860.6 1443.24 880.29 1443.24 904.47C1443.24 920.32 1434.36 933.62 1421.74 941.33V1127.78C1421.74 1140.15 1411.73 1150.15 1399.37 1150.15C1387.01 1150.15 1377 1140.14 1377 1127.78V941.34C1364.38 933.62 1355.5 920.33 1355.5 904.48C1355.48 880.29 1375.15 860.6 1399.36 860.6ZM1035.64 1249.4H1080.2C1108.29 1171.05 1192.53 1105.94 1261.01 1083.54C1261.62 1083.34 1262.23 1083.47 1262.85 1083.32V1030.73C1262.85 1018.36 1272.86 1008.36 1285.22 1008.36C1297.59 1008.36 1307.59 1018.37 1307.59 1030.73V1127.79C1307.59 1140.16 1297.58 1150.16 1285.22 1150.16C1273.87 1150.16 1264.88 1141.59 1263.42 1130.65C1206.34 1153.01 1152.12 1200.83 1128.17 1249.41H1132.7C1145.07 1249.41 1155.07 1259.42 1155.07 1271.78C1155.07 1284.15 1145.06 1294.15 1132.7 1294.15H1035.64C1023.27 1294.15 1013.27 1284.14 1013.27 1271.78C1013.27 1259.41 1023.27 1249.4 1035.64 1249.4ZM909.39 1343.6C924.32 1343.6 936.84 1351.82 944.37 1363.53H1132.7C1145.07 1363.53 1155.07 1373.54 1155.07 1385.9C1155.07 1398.27 1145.06 1408.27 1132.7 1408.27H944.36C936.83 1419.97 924.32 1428.18 909.39 1428.18C886.1 1428.18 867.13 1409.21 867.13 1385.9C867.13 1362.56 886.1 1343.6 909.39 1343.6ZM1155.07 1500C1155.07 1512.37 1145.06 1522.37 1132.7 1522.37H1035.64C1023.27 1522.37 1013.27 1512.36 1013.27 1500C1013.27 1487.64 1023.28 1477.63 1035.64 1477.63H1132.7C1145.07 1477.63 1155.07 1487.63 1155.07 1500ZM946.7 1636.48C938.95 1649.33 925.47 1658.37 909.39 1658.37C885.01 1658.37 865.17 1638.53 865.17 1614.1C865.17 1589.72 885.01 1569.88 909.39 1569.88C925.46 1569.88 938.93 1578.91 946.68 1591.73H1132.7C1145.07 1591.73 1155.07 1601.74 1155.07 1614.1C1155.07 1626.47 1145.06 1636.47 1132.7 1636.47H946.7V1636.48ZM1307.59 1969.25C1307.59 1981.62 1297.58 1991.62 1285.22 1991.62C1272.85 1991.62 1262.85 1981.61 1262.85 1969.25V1937.35C1182.17 1914.43 1103.2 1816.52 1084.7 1750.57H1035.65C1023.28 1750.57 1013.28 1740.56 1013.28 1728.2C1013.28 1715.83 1023.29 1705.83 1035.65 1705.83H1132.71C1145.08 1705.83 1155.08 1715.84 1155.08 1728.2C1155.08 1740.57 1145.07 1750.57 1132.71 1750.57H1131.46C1150.76 1799.92 1207.9 1868.24 1262.85 1890.77V1872.24C1262.85 1859.87 1272.86 1849.87 1285.22 1849.87C1297.59 1849.87 1307.59 1859.88 1307.59 1872.24V1969.25ZM1399.36 2137.37C1376.29 2137.37 1357.5 2118.58 1357.5 2095.51C1357.5 2080.85 1365.54 2068.56 1376.99 2061.09V1872.25C1376.99 1859.88 1387 1849.88 1399.36 1849.88C1411.72 1849.88 1421.73 1859.89 1421.73 1872.25V2061.1C1433.16 2068.57 1441.18 2080.86 1441.18 2095.51C1441.18 2118.58 1422.43 2137.37 1399.36 2137.37ZM1535.83 1969.25C1535.83 1981.62 1525.82 1991.62 1513.46 1991.62C1501.09 1991.62 1491.09 1981.61 1491.09 1969.25V1872.24C1491.09 1859.87 1501.1 1849.87 1513.46 1849.87C1525.83 1849.87 1535.83 1859.88 1535.83 1872.24V1969.25ZM1627.56 2137.94C1604.18 2137.94 1585.13 2118.89 1585.13 2095.51C1585.13 2080.52 1593.41 2067.96 1605.19 2060.42V1872.25C1605.19 1859.88 1615.2 1849.88 1627.56 1849.88C1639.92 1849.88 1649.93 1859.89 1649.93 1872.25V2060.43C1661.69 2067.97 1669.94 2080.53 1669.94 2095.51C1669.95 2118.88 1650.94 2137.94 1627.56 2137.94ZM1270.79 1831.47C1214.42 1831.47 1168.53 1785.58 1168.53 1729.21V1270.82C1168.53 1214.42 1214.42 1168.54 1270.79 1168.54H1729.2C1785.57 1168.54 1831.46 1214.43 1831.46 1270.82V1729.21C1831.46 1785.58 1785.57 1831.47 1729.2 1831.47H1270.79ZM1964.36 1750.58H1922.62C1922.39 1751.27 1922.45 1751.99 1922.14 1752.68C1888.01 1828.94 1837.62 1879.76 1768.14 1908.08C1766.8 1908.63 1765.41 1908.62 1764.03 1908.89V1969.26C1764.03 1981.63 1754.02 1991.63 1741.66 1991.63C1729.29 1991.63 1719.29 1981.62 1719.29 1969.26V1872.25C1719.29 1859.88 1729.3 1849.88 1741.66 1849.88C1750.08 1849.88 1757.12 1854.7 1760.94 1861.56C1808.94 1839.37 1845.58 1802.7 1872.5 1750.59H1867.29C1854.92 1750.59 1844.92 1740.58 1844.92 1728.22C1844.92 1715.85 1854.93 1705.85 1867.29 1705.85H1964.35C1976.72 1705.85 1986.72 1715.86 1986.72 1728.22C1986.73 1740.57 1976.73 1750.58 1964.36 1750.58ZM2090.61 1658.63C2074.38 1658.63 2060.78 1649.47 2053 1636.47H1867.3C1854.93 1636.47 1844.93 1626.46 1844.93 1614.1C1844.93 1601.73 1854.94 1591.73 1867.3 1591.73H2053.01C2060.8 1578.76 2074.39 1569.62 2090.61 1569.62C2115.13 1569.62 2135.1 1589.59 2135.1 1614.11C2135.09 1638.66 2115.12 1658.63 2090.61 1658.63Z" fill="white"/>
</svg>
