<?xml version="1.0" encoding="UTF-8"?>
<svg id="Layer_2" data-name="Layer 2" xmlns="http://www.w3.org/2000/svg" viewBox="0 0 2143.2 883.52">
  <defs>
    <style>
      .cls-1 {
        font-family: Karrik-Regular, Karrik;
        font-size: 108.46px;
      }

      .cls-1, .cls-2 {
        fill: #fff;
      }

      .cls-3 {
        letter-spacing: 0em;
      }

      .cls-4 {
        letter-spacing: 0em;
      }

      .cls-5 {
        letter-spacing: -.02em;
      }

      .cls-6 {
        letter-spacing: -.02em;
      }

      .cls-7 {
        letter-spacing: 0em;
      }

      .cls-2 {
        stroke-width: 0px;
      }

      .cls-8 {
        letter-spacing: -.03em;
      }

      .cls-9 {
        letter-spacing: -.02em;
      }
    </style>
  </defs>
  <g id="digirocket">
    <g>
      <path class="cls-2" d="M0,317.52c22.78-18.82,45.76-37.4,68.28-56.53,14.73-12.51,28.81-25.79,42.58-38.18,33.81,34.8,66.25,68.2,98.9,101.81-10.13.63-23.2,1.45-37.84,2.37v276.58c69.36,1.88,138.93,7.52,203.85-24.33,57.66-28.29,90.85-76.96,103.88-138.5,12.2-57.61,11.91-115.98-4.83-172.85-25.47-86.55-104.03-143.56-196.75-144.11-72.14-.43-144.28.1-216.42-.16-28.75-.11-47.96-12.43-55.74-34.38C-2.95,64.28,3.31,29.75,22.43,15.63,32.7,8.03,46.9,2.03,59.44,1.82c73.74-1.27,147.63-3.31,221.25-.1,192.68,8.4,326.8,130.92,337.64,331.47,5.1,94.26-10.17,183.73-68.49,261.27-57.66,76.67-136.47,119.85-230.64,125.82-90.84,5.75-182.32,1.25-276.17,1.25v-394.27H0v-9.73Z"/>
      <g>
        <path class="cls-2" d="M970.3,291.38c-76.51,0-121.58,31.44-121.58,158.27v263.08h-119.49V188.66h115.29v58.7c29.35-35.64,64.99-69.18,132.06-69.18,31.45,0,60.79,6.29,83.85,16.77l-6.29,115.29c-24.1-10.48-44.02-18.86-83.85-18.86Z"/>
        <path class="cls-2" d="M1336.13,178.18c157.22,0,251.55,135.21,251.55,276.7,0,132.06-83.85,268.32-251.55,268.32s-251.55-136.25-251.55-268.32c0-141.5,94.33-276.7,251.55-276.7ZM1336.13,293.47c-82.8,0-136.25,62.88-136.25,157.22,0,100.62,55.55,157.21,136.25,157.21s136.25-56.59,136.25-157.21c0-94.34-53.45-157.22-136.25-157.22Z"/>
        <path class="cls-2" d="M1811.99,0v369.99l186.56-181.33h144.64l-182.37,172.94,182.37,351.12h-134.16l-132.06-272.51-64.98,60.8v211.72h-119.49V0h119.49Z"/>
      </g>
      <text class="cls-1" transform="translate(1084.58 850.98)"><tspan class="cls-8" x="0" y="0">P</tspan><tspan class="cls-7" x="57.16" y="0">o</tspan><tspan class="cls-5" x="116.81" y="0">w</tspan><tspan x="199.12" y="0">e</tspan><tspan class="cls-6" x="256.93" y="0">r</tspan><tspan x="295.86" y="0">ed </tspan><tspan class="cls-7" x="439.56" y="0">b</tspan><tspan class="cls-4" x="500.52" y="0">y</tspan><tspan class="cls-3" x="551.38" y="0" xml:space="preserve"> Digi</tspan><tspan class="cls-6" x="760.15" y="0">r</tspan><tspan class="cls-3" x="799.09" y="0">oc</tspan><tspan class="cls-9" x="918.17" y="0">k</tspan><tspan x="968.6" y="0">et</tspan></text>
    </g>
  </g>
</svg>