<svg width="17" height="22" viewBox="0 0 17 22" fill="none" xmlns="http://www.w3.org/2000/svg">
<g clip-path="url(#clip0_101_13)">
<path d="M13.8366 1.37544C13.8209 1.37645 13.8053 1.37886 13.7901 1.38264L11.3566 1.98208C11.2885 1.99894 11.2299 2.04217 11.1936 2.10225C11.1574 2.16234 11.1465 2.23436 11.1633 2.30247C11.1802 2.37048 11.2234 2.42901 11.2833 2.46525C11.3433 2.50148 11.4152 2.51245 11.4832 2.49575L13.2795 2.05288C11.2317 5.85387 6.79095 8.43182 1.7665 8.69334C1.73178 8.69525 1.69778 8.70399 1.66644 8.71905C1.6351 8.73412 1.60704 8.75521 1.58386 8.78113C1.56068 8.80704 1.54283 8.83728 1.53134 8.87009C1.51985 8.90291 1.51495 8.93767 1.5169 8.97239C1.52064 9.04222 1.55188 9.10773 1.60378 9.1546C1.65569 9.20147 1.72404 9.22588 1.79389 9.2225C6.97296 8.95294 11.5779 6.30638 13.7342 2.32473L14.1358 4.14426C14.1509 4.21267 14.1925 4.27231 14.2515 4.31009C14.3105 4.34787 14.382 4.36072 14.4505 4.3458C14.5188 4.3306 14.5783 4.28894 14.616 4.22996C14.6537 4.17098 14.6664 4.09947 14.6515 4.03109L14.1125 1.58214C14.0988 1.52039 14.0634 1.46559 14.0128 1.42767C13.9622 1.38975 13.8997 1.37122 13.8366 1.37544ZM12.925 5.8377C12.8548 5.83743 12.7874 5.86504 12.7376 5.91447C12.6878 5.96389 12.6597 6.03108 12.6594 6.10125V16.0293H11.6651V8.58585C11.6648 8.51568 11.6367 8.44849 11.5869 8.39907C11.5371 8.34965 11.4697 8.32203 11.3995 8.3223H9.22961C9.1598 8.32258 9.09292 8.35043 9.04356 8.3998C8.99419 8.44917 8.96634 8.51604 8.96606 8.58585V16.0293H7.96974V10.0059C7.96946 9.93611 7.9416 9.86923 7.89224 9.81987C7.84287 9.7705 7.776 9.74265 7.70619 9.74237H5.53423C5.46442 9.74265 5.39754 9.7705 5.34818 9.81987C5.29881 9.86923 5.27096 9.9361 5.27068 10.0059V16.0293H4.27642V10.873C4.27614 10.8029 4.248 10.7357 4.19819 10.6863C4.14838 10.6368 4.08097 10.6092 4.0108 10.6095H1.84091C1.77074 10.6092 1.70334 10.6368 1.65353 10.6863C1.60371 10.7357 1.57557 10.8029 1.57529 10.873V16.0293H1.05957C1.02465 16.0292 0.990045 16.036 0.957758 16.0493C0.92547 16.0626 0.896135 16.0821 0.871443 16.1068C0.846751 16.1315 0.82719 16.1608 0.81389 16.1931C0.800589 16.2254 0.793812 16.26 0.793947 16.2949C0.794083 16.3297 0.801061 16.3641 0.814483 16.3961C0.827904 16.4282 0.847508 16.4573 0.872173 16.4817C0.896837 16.5062 0.926081 16.5256 0.958234 16.5387C0.990387 16.5519 1.02482 16.5586 1.05957 16.5585H15.8762C15.946 16.5582 16.0129 16.5304 16.0623 16.481C16.1117 16.4316 16.1395 16.3648 16.1398 16.2949C16.1401 16.2248 16.1124 16.1574 16.063 16.1075C16.0136 16.0577 15.9464 16.0296 15.8762 16.0293H15.3584V6.10125C15.3582 6.03143 15.3303 5.96456 15.2809 5.9152C15.2316 5.86583 15.1647 5.83798 15.0949 5.8377H12.925Z" fill="white"/>
</g>
<defs>
<clipPath id="clip0_101_13">
<rect width="16.9333" height="21.1667" fill="white" transform="translate(0 0.5)"/>
</clipPath>
</defs>
</svg>
