<svg width="128" height="161" viewBox="0 0 128 161" fill="none" xmlns="http://www.w3.org/2000/svg">
<path d="M116.001 61.535C116.766 59.1997 117.729 56.9338 118.879 54.7617C119.701 53.2883 120.6 51.8594 121.572 50.4808C123.794 47.2113 126.091 43.8301 126.091 40.0774C126.102 38.5094 125.802 36.9547 125.21 35.5028C124.618 34.051 123.744 32.7307 122.639 31.618C121.534 30.5053 120.22 29.6222 118.772 29.0196C117.325 28.4169 115.772 28.1067 114.204 28.1067C112.636 28.1067 111.084 28.4169 109.636 29.0195C108.188 29.6221 106.874 30.5052 105.769 31.6179C104.664 32.7306 103.791 34.0509 103.198 35.5027C102.606 36.9546 102.306 38.5093 102.317 40.0773C102.317 44.0054 104.745 47.5607 107.093 50.9981C107.983 52.3014 108.824 53.5325 109.539 54.7816C110.77 56.9267 111.77 59.1964 112.522 61.5525C105.936 61.8799 100.849 63.8725 100.849 66.2822C100.849 67.3107 101.784 68.262 103.359 69.0429L70.4619 80.6368C69.4372 80.4001 68.3987 80.2278 67.3524 80.1209C68.5731 75.1055 70.419 70.2633 72.8467 65.708C74.0577 63.5419 75.3815 61.4407 76.8125 59.4131C80.3462 54.2129 84 48.835 84 42.5352C84.0165 39.8983 83.5113 37.2841 82.5136 34.8431C81.5159 32.4021 80.0453 30.1826 78.1865 28.3121C76.3277 26.4417 74.1173 24.9573 71.6827 23.9443C69.248 22.9314 66.637 22.4099 64 22.4099C61.363 22.4099 58.752 22.9314 56.3173 23.9443C53.8827 24.9573 51.6723 26.4417 49.8135 28.3121C47.9547 30.1826 46.4841 32.4021 45.4864 34.8431C44.4887 37.2841 43.9835 39.8983 44 42.5352C44 49.1055 47.854 54.7461 51.5806 60.2002C52.9038 62.1377 54.1538 63.9678 55.2017 65.7969C57.7808 70.2499 59.6415 75.0819 60.7153 80.1146C59.2705 80.253 57.8417 80.5261 56.4476 80.9303L24.2768 69.2144C26.0712 68.4036 27.1514 67.3875 27.1514 66.2823C27.1514 63.8145 21.8204 61.7791 15.004 61.527C15.7687 59.1945 16.7304 56.9313 17.8787 54.7618C18.7006 53.2884 19.5997 51.8594 20.5724 50.4809C22.7941 47.2114 25.0906 43.8301 25.0907 40.0774C25.1017 38.5094 24.8025 36.9547 24.2101 35.5029C23.6177 34.051 22.7439 32.7307 21.639 31.618C20.5341 30.5053 19.22 29.6222 17.7724 29.0196C16.3247 28.417 14.7722 28.1067 13.2041 28.1067C11.6361 28.1067 10.0835 28.4169 8.63586 29.0196C7.18822 29.6222 5.87411 30.5053 4.76923 31.6179C3.66435 32.7306 2.79054 34.0509 2.19812 35.5027C1.60571 36.9546 1.3064 38.5093 1.31744 40.0773C1.31738 44.0054 3.74469 47.5607 6.09332 50.9981C6.98332 52.3014 7.82354 53.5325 8.53932 54.7817C9.77181 56.9292 10.7726 59.2016 11.5248 61.5606C5.011 61.9107 0 63.8908 0 66.2823C0 68.919 6.08978 71.0645 13.5762 71.0645C16.2392 71.0857 18.8948 70.7825 21.4845 70.1614L53.9913 81.9617C52.9638 82.5727 52.3633 83.2832 52.3633 84.045C52.3633 85.4104 54.2652 86.6165 57.1784 87.3614L28.7395 97.4346C27.3109 97.2164 25.8702 97.0869 24.4257 97.0469C24.6112 96.6426 24.8159 96.2254 25.0416 95.7996C25.5079 94.9635 26.0182 94.1526 26.5702 93.3704C27.831 91.5149 29.1342 89.5962 29.1342 87.4666C29.1405 86.5768 28.9707 85.6944 28.6346 84.8705C28.2984 84.0466 27.8026 83.2973 27.1756 82.6658C26.5486 82.0343 25.8029 81.5332 24.9813 81.1912C24.1598 80.8492 23.2787 80.6731 22.3889 80.6731C21.499 80.6731 20.6179 80.8491 19.7964 81.1911C18.9749 81.5331 18.2291 82.0343 17.6021 82.6657C16.9751 83.2972 16.4793 84.0465 16.1431 84.8704C15.8069 85.6943 15.6371 86.5766 15.6434 87.4665C15.6434 89.6956 17.0208 91.7132 18.3536 93.6637C18.8586 94.4034 19.3354 95.1021 19.7417 95.811C20.0011 96.2635 20.2296 96.7051 20.4343 97.1333C14.3075 97.5943 9.69732 99.5141 9.69732 101.809C9.69732 104.446 15.7871 106.591 23.2725 106.591C30.7588 106.591 36.8485 104.446 36.8485 101.809C36.8485 100.358 34.9994 99.0588 32.0956 98.1812L60.811 87.9849C61.8256 88.0866 62.8927 88.1446 64 88.1446C65.5806 88.1481 67.1591 88.0295 68.7214 87.7898L95.8024 98.2138C92.9587 99.0909 91.1514 100.375 91.1514 101.809C91.1514 104.446 97.2412 106.591 104.727 106.591C112.213 106.591 118.303 104.446 118.303 101.809C118.303 99.3729 113.106 97.3619 106.417 97.0675C106.605 96.6567 106.812 96.2328 107.042 95.7997C107.508 94.9635 108.018 94.1526 108.57 93.3703C109.831 91.5149 111.134 89.5962 111.134 87.4666C111.14 86.5768 110.971 85.6945 110.635 84.8706C110.298 84.0466 109.803 83.2973 109.176 82.6659C108.549 82.0344 107.803 81.5332 106.981 81.1912C106.16 80.8492 105.279 80.6731 104.389 80.6731C103.499 80.6731 102.618 80.8492 101.796 81.1912C100.975 81.5332 100.229 82.0343 99.6021 82.6658C98.9751 83.2972 98.4792 84.0465 98.143 84.8704C97.8069 85.6944 97.6371 86.5767 97.6434 87.4665C97.6433 89.6955 99.0208 91.7131 100.354 93.6638C100.859 94.4034 101.335 95.102 101.742 95.8109C101.994 96.2518 102.218 96.6829 102.419 97.1009C101.256 97.1713 100.146 97.2933 99.1036 97.4612L72.0557 87.0567L71.7281 87.104C74.121 86.3533 75.6367 85.263 75.6367 84.045C75.6367 83.1265 74.7684 82.2815 73.3196 81.5981L106.034 70.0345C108.773 70.7464 111.594 71.0928 114.424 71.0645C121.91 71.0645 128 68.919 128 66.2822C128 63.8328 122.746 61.8116 116.001 61.535ZM9.39606 48.7415C7.29853 45.6717 5.31739 42.7721 5.31745 40.0773C5.30651 39.0347 5.50242 38.0002 5.89386 37.0337C6.28529 36.0673 6.86448 35.188 7.59791 34.4469C8.33135 33.7057 9.20447 33.1173 10.1668 32.7158C11.1291 32.3142 12.1614 32.1075 13.2041 32.1075C14.2468 32.1075 15.2792 32.3143 16.2415 32.7158C17.2038 33.1174 18.0769 33.7058 18.8103 34.447C19.5437 35.1881 20.1229 36.0674 20.5143 37.0338C20.9058 38.0003 21.1017 39.0348 21.0907 40.0774C21.0906 42.6014 19.2319 45.3367 17.2618 48.2359L17.2315 48.2807C16.1868 49.7634 15.2231 51.3016 14.3445 52.8884C13.9429 53.6461 13.5756 54.3895 13.2401 55.1124C12.8719 54.3589 12.4634 53.5838 12.0099 52.7929C11.2136 51.4034 10.331 50.1109 9.39606 48.7415ZM13.5762 69.6983C8.22949 69.6983 3.8789 68.1661 3.8789 66.2823C3.8789 64.5972 7.36285 63.1971 11.9237 62.9196C12.1896 63.8648 12.3914 64.8269 12.5279 65.7993C12.5457 65.9633 12.6222 66.1153 12.7433 66.2273C12.8645 66.3393 13.022 66.4037 13.1869 66.4086L13.2037 66.4093C13.3658 66.4086 13.5222 66.3502 13.6451 66.2445C13.7679 66.1389 13.849 65.9928 13.8737 65.8327C14.0581 64.8382 14.2954 63.8542 14.5847 62.885C19.4583 63.0633 23.2725 64.5185 23.2725 66.2823C23.2725 68.166 18.9219 69.6983 13.5762 69.6983ZM19.6434 87.4665C19.638 86.7324 19.924 86.0262 20.4386 85.5026C20.9532 84.9791 21.6545 84.6811 22.3885 84.6739C22.7479 84.674 23.1035 84.7458 23.4348 84.8849C23.7661 85.024 24.0663 85.2278 24.3179 85.4843C24.5777 85.7447 24.7836 86.0539 24.9237 86.394C25.0637 86.7342 25.1353 87.0986 25.1342 87.4665C25.1342 88.3666 24.1394 89.8306 23.2447 91.1473C22.9637 91.5617 22.6642 92.0033 22.3695 92.464C22.1328 92.105 21.8928 91.7535 21.6562 91.407C20.7128 90.0263 19.6434 88.4612 19.6434 87.4665ZM32.9697 101.809C32.9697 103.692 28.6191 105.225 23.2725 105.225C17.9258 105.225 13.5762 103.692 13.5762 101.809C13.5762 100.198 16.7585 98.8482 21.0213 98.4893C21.4879 99.638 21.8181 100.837 22.0051 102.063C22.0151 102.156 22.0586 102.243 22.1273 102.306C22.1961 102.37 22.2855 102.406 22.3791 102.409L22.3886 102.409C22.4805 102.409 22.5694 102.376 22.6391 102.316C22.7088 102.256 22.7548 102.173 22.7688 102.082C23.0137 100.824 23.3769 99.5925 23.8534 98.403C28.9292 98.5097 32.9697 99.9939 32.9697 101.809ZM58.6719 63.8076C57.5459 61.8428 56.2529 59.9492 54.8838 57.9444C51.4995 52.9913 48 47.8702 48 42.5352C47.9835 40.4235 48.3851 38.3294 49.1818 36.3737C49.9785 34.418 51.1544 32.6394 52.6418 31.1403C54.1291 29.6412 55.8985 28.4514 57.848 27.6395C59.7974 26.8275 61.8882 26.4095 64 26.4095C66.1118 26.4095 68.2026 26.8275 70.152 27.6395C72.1014 28.4514 73.8709 29.6412 75.3582 31.1403C76.8456 32.6394 78.0215 34.418 78.8182 36.3737C79.6149 38.3294 80.0165 40.4235 80 42.5352C80 47.6045 76.6978 52.4649 73.458 57.2334C71.9594 59.3586 70.5754 61.5622 69.312 63.835C67.1158 67.9836 65.3594 72.3505 64.0713 76.8643C62.8489 72.2952 61.0337 67.9056 58.6719 63.8076ZM101.643 87.4664C101.637 87.102 101.704 86.7399 101.839 86.4014C101.974 86.0628 102.175 85.7546 102.431 85.4947C102.686 85.2347 102.991 85.0283 103.327 84.8873C103.663 84.7464 104.024 84.6738 104.389 84.6739C104.753 84.6739 105.114 84.7465 105.45 84.8874C105.787 85.0283 106.091 85.2348 106.347 85.4948C106.602 85.7547 106.804 86.063 106.939 86.4015C107.074 86.74 107.14 87.1021 107.134 87.4666C107.134 88.3665 106.139 89.8305 105.242 91.1507C104.962 91.564 104.663 92.0044 104.369 92.464C104.133 92.105 103.893 91.7535 103.656 91.4071C102.713 90.0263 101.643 88.461 101.643 87.4664ZM103.006 98.4497C103.48 99.6105 103.816 100.823 104.005 102.063C104.015 102.156 104.059 102.242 104.127 102.306C104.196 102.37 104.285 102.406 104.379 102.409L104.389 102.409C104.481 102.409 104.569 102.376 104.639 102.316C104.709 102.256 104.755 102.173 104.769 102.082C105.013 100.829 105.374 99.6023 105.848 98.4173C110.668 98.6138 114.424 100.059 114.424 101.809C114.424 103.692 110.074 105.225 104.727 105.225C99.3809 105.225 95.0303 103.692 95.0303 101.809C95.0303 100.132 98.4789 98.7371 103.006 98.4497ZM110.396 48.7415C108.299 45.6717 106.317 42.7721 106.317 40.0773C106.307 39.0346 106.502 38.0002 106.894 37.0337C107.285 36.0673 107.864 35.188 108.598 34.4469C109.331 33.7057 110.204 33.1173 111.167 32.7158C112.129 32.3142 113.161 32.1075 114.204 32.1075C115.247 32.1075 116.279 32.3142 117.242 32.7158C118.204 33.1174 119.077 33.7058 119.81 34.4469C120.544 35.1881 121.123 36.0674 121.514 37.0338C121.906 38.0003 122.102 39.0348 122.091 40.0774C122.091 42.6014 120.232 45.3367 118.262 48.2359L118.232 48.2803C117.187 49.7631 116.223 51.3014 115.344 52.8883C114.943 53.646 114.576 54.3894 114.24 55.1123C113.872 54.3589 113.463 53.5837 113.01 52.7928C112.214 51.4034 111.331 50.1109 110.396 48.7415ZM114.424 69.6983C109.078 69.6983 104.727 68.166 104.727 66.2823C104.727 64.5789 108.288 63.1673 112.922 62.9115C113.188 63.8594 113.391 64.8241 113.528 65.7992C113.546 65.9633 113.622 66.1153 113.743 66.2273C113.864 66.3393 114.022 66.4037 114.187 66.4086L114.204 66.4092C114.366 66.4086 114.522 66.3502 114.645 66.2445C114.768 66.1388 114.849 65.9928 114.874 65.8327C115.058 64.8409 115.294 63.8596 115.582 62.893C120.384 63.0958 124.121 64.5368 124.121 66.2823C124.121 68.166 119.771 69.6983 114.424 69.6983Z" fill="white"/>
<path d="M64 49.0454C68.4183 49.0454 72 45.4637 72 41.0454C72 36.6271 68.4183 33.0454 64 33.0454C59.5817 33.0454 56 36.6271 56 41.0454C56 45.4637 59.5817 49.0454 64 49.0454Z" fill="white"/>
<path d="M13.2041 44.0673C15.4132 44.0673 17.2041 42.2882 17.2041 40.0936C17.2041 37.899 15.4132 36.1199 13.2041 36.1199C10.995 36.1199 9.2041 37.899 9.2041 40.0936C9.2041 42.2882 10.995 44.0673 13.2041 44.0673Z" fill="white"/>
<path d="M114.204 44.0673C116.413 44.0673 118.204 42.2882 118.204 40.0936C118.204 37.899 116.413 36.1199 114.204 36.1199C111.995 36.1199 110.204 37.899 110.204 40.0936C110.204 42.2882 111.995 44.0673 114.204 44.0673Z" fill="white"/>
</svg>
