<svg width="66" height="83" viewBox="0 0 66 83" fill="none" xmlns="http://www.w3.org/2000/svg">
<g clip-path="url(#clip0_108_6)">
<path d="M59.4 60.9999L55.5 64.8999C54.6 65.7999 53.1 65.7999 52.3 64.8999L41.3 53.7999C40.4 52.8999 40.4 51.4999 41.3 50.5999L42.8 49.0999L41.3 47.6999C41.7 47.2999 41.8 47.1999 42.2 46.7999L43.7 48.1999L45.2 46.6999C46.1 45.7999 47.6 45.7999 48.4 46.6999L59.5 57.7999C60.3 58.5999 60.3 60.0999 59.4 60.9999Z" fill="white"/>
<path d="M18.8004 25.3999H12.8004C11.9004 27.1999 11.4004 29.1999 11.4004 31.1999H18.2004C18.2004 29.0999 18.4004 27.1999 18.8004 25.3999Z" fill="white"/>
<path d="M13.5 39.5C15.6 43 18.9 45.4 22.7 46.3C21.2 44.8 20 42.5 19.2 39.5H13.5Z" fill="white"/>
<path d="M32.6 38.1999C33 36.3999 33.2 34.3999 33.3 32.3999H19.5C19.5 34.3999 19.8 36.3999 20.2 38.1999H32.6Z" fill="white"/>
<path d="M22.6004 17.2C18.8004 18.2 15.5004 20.6 13.4004 24H19.0004C19.9004 21.1 21.2004 18.7 22.6004 17.2Z" fill="white"/>
<path d="M18.2004 32.3999H11.4004C11.5004 34.3999 12.0004 36.3999 12.8004 38.1999H18.8004C18.4004 36.3999 18.2004 34.4999 18.2004 32.3999Z" fill="white"/>
<path d="M25.9004 16.9999C25.9004 16.8999 25.8004 16.8999 25.8004 16.7999C23.6004 17.1999 21.6004 19.9999 20.4004 24.0999H29.6004C27.9004 21.3999 26.7004 18.9999 25.9004 16.9999ZM33.2004 29.3999C32.4004 28.2999 30.7004 25.7999 30.4004 25.3999H20.1004C19.7004 27.1999 19.5004 29.1999 19.4004 31.1999H33.3004C33.3004 30.5999 33.3004 29.9999 33.2004 29.3999ZM41.3004 29.8999C41.0004 30.2999 40.7004 30.7999 40.4004 31.0999H41.4004C41.4004 30.6999 41.4004 30.2999 41.3004 29.8999ZM45.4004 24.0999C44.2004 25.8999 43.4004 27.0999 42.4004 28.4999C42.6004 29.5999 42.7004 30.6999 42.7004 31.7999C42.7004 34.3999 42.1004 36.8999 40.9004 39.1999C38.1004 44.6999 32.5004 48.0999 26.3004 48.0999C20.1004 48.0999 14.6004 44.6999 11.8004 39.1999C10.6004 36.8999 10.0004 34.3999 10.0004 31.7999C10.0004 29.1999 10.6004 26.6999 11.8004 24.3999C14.5004 19.1999 19.6004 15.7999 25.3004 15.4999C24.8004 13.9999 24.8004 12.7999 24.9004 11.3999C14.4004 12.0999 5.90039 20.9999 5.90039 31.7999C5.90039 43.0999 15.1004 52.2999 26.4004 52.2999C37.7004 52.2999 46.9004 43.1999 46.9004 31.7999C46.9004 29.0999 46.4004 26.4999 45.4004 24.0999Z" fill="white"/>
<path d="M41.4 32.3999C41.3 34.3999 40.8 36.3999 40 38.1999H34C34.4 36.3999 34.6 34.3999 34.7 32.3999H35.6C35.8 32.5999 35.9 32.7999 36 32.8999C36.8 33.8999 38.3 33.8999 39 32.8999C39.1 32.7999 39.2 32.5999 39.4 32.3999H41.4Z" fill="white"/>
<path d="M20.5 39.5C21.8 44 24 46.8 26.4 46.8C28.8 46.8 31.1 44 32.3 39.5H20.5Z" fill="white"/>
<path d="M30.1006 46.3999C33.9006 45.3999 37.2006 42.9999 39.3006 39.5999H33.7006C32.8006 42.4999 31.6006 44.8999 30.1006 46.3999Z" fill="white"/>
<path d="M37.5002 1.5C31.6002 1.5 26.7002 6.1 26.3002 11.9C26.2002 13.5 26.5002 14.9 27.1002 16.3C27.1002 16.4 27.2002 16.5 27.2002 16.5C28.5002 19.8 31.0002 23.8 33.1002 26.7C33.2002 26.9 36.7002 31.7 37.1002 32.1C37.3002 32.4 37.8002 32.4 38.1002 32.1C38.9002 31.3 48.9002 18.3 48.9002 12.7C48.7002 6.6 43.7002 1.5 37.5002 1.5ZM37.5002 17.8C34.7002 17.8 32.4002 15.5 32.4002 12.7C32.4002 9.9 34.7002 7.7 37.5002 7.7C40.3002 7.7 42.6002 10 42.6002 12.8C42.6002 15.5 40.3002 17.8 37.5002 17.8Z" fill="white"/>
<path d="M2.34131 82.8794L2.21924 83.4458C2.1818 83.4409 2.11751 83.4377 2.02637 83.436C1.93522 83.4328 1.86686 83.4531 1.82129 83.4971C1.77734 83.5394 1.75049 83.5866 1.74072 83.6387C1.72933 83.6908 1.71305 83.7656 1.69189 83.8633H2.14844L2.04346 84.354H1.58691L1.13281 86.5H0.439453L0.893555 84.354H0.505371L0.610352 83.8633H0.991211L1.02783 83.6924C1.08805 83.4076 1.17757 83.2114 1.29639 83.104C1.43148 82.9445 1.69189 82.8647 2.07764 82.8647C2.12158 82.8647 2.16064 82.8664 2.19482 82.8696C2.23063 82.8713 2.27946 82.8745 2.34131 82.8794ZM4.104 83.7803L3.95264 84.4932C3.91032 84.4883 3.87207 84.485 3.83789 84.4834C3.80371 84.4818 3.77604 84.481 3.75488 84.481C3.47493 84.481 3.26742 84.5721 3.13232 84.7544C3.05745 84.8569 2.99723 85.0148 2.95166 85.228L2.68311 86.5H1.98242L2.54639 83.8389H3.21045L3.11279 84.3027C3.25765 84.1253 3.37646 84.0041 3.46924 83.939C3.62386 83.8299 3.80534 83.7754 4.01367 83.7754C4.02669 83.7754 4.03727 83.7762 4.04541 83.7778C4.05518 83.7778 4.07471 83.7786 4.104 83.7803ZM6.04492 85.1743C6.10189 84.9074 6.09049 84.7023 6.01074 84.5591C5.93262 84.4142 5.79183 84.3418 5.58838 84.3418C5.38493 84.3418 5.21322 84.4142 5.07324 84.5591C4.93327 84.7023 4.8348 84.9074 4.77783 85.1743C4.72087 85.4412 4.73145 85.6471 4.80957 85.792C4.88932 85.9368 5.03092 86.0093 5.23438 86.0093C5.43783 86.0093 5.60954 85.9368 5.74951 85.792C5.88949 85.6471 5.98796 85.4412 6.04492 85.1743ZM5.1123 86.5928C4.65495 86.5928 4.34326 86.4544 4.17725 86.1777C4.01286 85.8994 3.97217 85.5649 4.05518 85.1743C4.13656 84.7902 4.31966 84.4574 4.60449 84.1758C4.88932 83.8942 5.26042 83.7534 5.71777 83.7534C6.17513 83.7534 6.486 83.8942 6.65039 84.1758C6.81478 84.4574 6.85628 84.7902 6.7749 85.1743C6.69189 85.5649 6.50798 85.8994 6.22314 86.1777C5.93994 86.4544 5.56966 86.5928 5.1123 86.5928ZM11.1377 84.0879C11.1914 84.1807 11.2174 84.2946 11.2158 84.4297C11.2126 84.5192 11.193 84.6502 11.1572 84.8228L10.7959 86.5H10.083L10.4419 84.8057C10.4631 84.7048 10.4647 84.6217 10.4468 84.5566C10.411 84.4329 10.3101 84.3711 10.144 84.3711C9.95199 84.3711 9.80225 84.4508 9.69482 84.6104C9.63949 84.695 9.5988 84.7967 9.57275 84.9155L9.23828 86.5H8.5376L8.87207 84.9155C8.90625 84.7576 8.91439 84.6429 8.89648 84.5713C8.86556 84.4427 8.76465 84.3784 8.59375 84.3784C8.39518 84.3784 8.24788 84.4427 8.15186 84.5713C8.09977 84.6445 8.05827 84.7536 8.02734 84.8984L7.68799 86.5H6.98242L7.54639 83.8438H8.22266L8.13965 84.2319C8.25521 84.0936 8.35775 83.9951 8.44727 83.9365C8.60352 83.8324 8.78906 83.7803 9.00391 83.7803C9.20736 83.7803 9.36279 83.825 9.47021 83.9146C9.55322 83.9976 9.60693 84.1042 9.63135 84.2344C9.75505 84.0781 9.89258 83.9634 10.0439 83.8901C10.2018 83.8169 10.3687 83.7803 10.5444 83.7803C10.6616 83.7803 10.7723 83.8031 10.8765 83.8486C10.9806 83.8942 11.0677 83.974 11.1377 84.0879ZM13.0151 84.3589L13.1201 83.8633H13.4912L13.6499 83.1211H14.3384L14.1797 83.8633H14.6118L14.5068 84.3589H14.0747L13.7744 85.7651C13.7516 85.8742 13.7508 85.9425 13.772 85.9702C13.7948 85.9963 13.877 86.0093 14.0186 86.0093C14.0397 86.0093 14.0617 86.0093 14.0845 86.0093C14.1089 86.0076 14.1333 86.006 14.1577 86.0044L14.0454 86.5244L13.7134 86.5366C13.383 86.548 13.1706 86.491 13.0762 86.3657C13.016 86.286 13.0029 86.1631 13.0371 85.9971L13.3862 84.3589H13.0151ZM17.251 84.1172C17.3031 84.2165 17.3258 84.319 17.3193 84.4248C17.3145 84.529 17.2868 84.6999 17.2363 84.9375L16.9043 86.5H16.1938L16.5356 84.8813C16.5666 84.7381 16.5674 84.6226 16.5381 84.5347C16.5007 84.411 16.3932 84.3491 16.2158 84.3491C16.0319 84.3491 15.8789 84.411 15.7568 84.5347C15.6364 84.6567 15.5518 84.8317 15.5029 85.0596L15.1978 86.5H14.5044L15.2661 82.9136H15.9595L15.6885 84.1855C15.8219 84.0309 15.9611 83.9235 16.106 83.8633C16.2524 83.8014 16.3989 83.7705 16.5454 83.7705C16.7098 83.7705 16.853 83.799 16.9751 83.856C17.0972 83.9129 17.1891 84 17.251 84.1172ZM18.4033 84.9033H19.4849C19.5125 84.7194 19.4857 84.5802 19.4043 84.4858C19.3245 84.3898 19.2106 84.3418 19.0625 84.3418C18.9014 84.3418 18.7655 84.3923 18.6548 84.4932C18.5457 84.5941 18.4619 84.7308 18.4033 84.9033ZM20.1123 84.2856C20.1839 84.4435 20.2124 84.6266 20.1978 84.835C20.1912 84.957 20.1619 85.1328 20.1099 85.3623H18.2886C18.2414 85.6292 18.2853 85.8164 18.4204 85.9238C18.5018 85.9906 18.61 86.0239 18.7451 86.0239C18.8883 86.0239 19.0137 85.9832 19.1211 85.9019C19.1781 85.8579 19.2342 85.7969 19.2896 85.7188H20C19.9479 85.8766 19.8315 86.0369 19.6509 86.1997C19.3677 86.4585 19.021 86.5879 18.6108 86.5879C18.2723 86.5879 17.9964 86.4788 17.7832 86.2607C17.5716 86.0426 17.5179 85.6878 17.6221 85.1963C17.7197 84.7357 17.911 84.3825 18.1958 84.1367C18.4823 83.891 18.8118 83.7681 19.1846 83.7681C19.4059 83.7681 19.5964 83.8096 19.7559 83.8926C19.917 83.9756 20.0358 84.1066 20.1123 84.2856ZM22.5391 82.9014H23.3276L24.2261 85.4136L24.7607 82.9014H25.4614L24.6973 86.5H23.9453L23.0176 83.9438L22.4756 86.5H21.7749L22.5391 82.9014ZM27.4512 85.1743C27.5081 84.9074 27.4967 84.7023 27.417 84.5591C27.3389 84.4142 27.1981 84.3418 26.9946 84.3418C26.7912 84.3418 26.6195 84.4142 26.4795 84.5591C26.3395 84.7023 26.241 84.9074 26.1841 85.1743C26.1271 85.4412 26.1377 85.6471 26.2158 85.792C26.2956 85.9368 26.4372 86.0093 26.6406 86.0093C26.8441 86.0093 27.0158 85.9368 27.1558 85.792C27.2957 85.6471 27.3942 85.4412 27.4512 85.1743ZM26.5186 86.5928C26.0612 86.5928 25.7495 86.4544 25.5835 86.1777C25.4191 85.8994 25.3784 85.5649 25.4614 85.1743C25.5428 84.7902 25.7259 84.4574 26.0107 84.1758C26.2956 83.8942 26.6667 83.7534 27.124 83.7534C27.5814 83.7534 27.8923 83.8942 28.0566 84.1758C28.221 84.4574 28.2625 84.7902 28.1812 85.1743C28.0981 85.5649 27.9142 85.8994 27.6294 86.1777C27.3462 86.4544 26.9759 86.5928 26.5186 86.5928ZM29.6582 83.8389L29.3188 85.4429C29.2863 85.5942 29.2798 85.7082 29.2993 85.7847C29.3335 85.9198 29.4434 85.9873 29.6289 85.9873C29.8665 85.9873 30.0496 85.8913 30.1782 85.6992C30.2466 85.5951 30.2987 85.4575 30.3345 85.2866L30.6421 83.8389H31.3477L30.7837 86.5H30.1074L30.1855 86.124C30.1774 86.1322 30.1562 86.1566 30.1221 86.1973C30.0879 86.238 30.0496 86.2738 30.0073 86.3047C29.8771 86.4023 29.7567 86.4691 29.646 86.5049C29.5369 86.5407 29.4141 86.5586 29.2773 86.5586C28.8835 86.5586 28.6483 86.417 28.5718 86.1338C28.5295 85.9775 28.5409 85.7472 28.606 85.4429L28.9453 83.8389H29.6582ZM34.2505 84.708L33.8696 86.5H33.1567L33.4985 84.8813C33.5295 84.7414 33.5335 84.634 33.5107 84.5591C33.4717 84.4224 33.3561 84.354 33.1641 84.354C32.9281 84.354 32.745 84.4541 32.6147 84.6543C32.5464 84.7601 32.4951 84.8952 32.4609 85.0596L32.1558 86.5H31.4624L32.0264 83.8438H32.6978L32.6147 84.2319C32.7336 84.0952 32.8394 83.9967 32.9321 83.9365C33.0981 83.8291 33.291 83.7754 33.5107 83.7754C33.7858 83.7754 33.995 83.8478 34.1382 83.9927C34.283 84.1359 34.3205 84.3743 34.2505 84.708ZM38.0566 83.5264H37.356L37.1313 84.5859H37.832C38.0094 84.5859 38.1567 84.5428 38.2739 84.4565C38.3911 84.3703 38.4692 84.2336 38.5083 84.0464C38.549 83.8592 38.5278 83.7257 38.4448 83.646C38.3634 83.5662 38.234 83.5264 38.0566 83.5264ZM37.7637 85.2061H36.9995L36.7261 86.5H35.979L36.7432 82.9014H38.3105C38.6719 82.9014 38.9396 82.9941 39.1138 83.1797C39.2896 83.3652 39.3368 83.6525 39.2554 84.0415C39.1642 84.4663 38.9925 84.7666 38.7402 84.9424C38.488 85.1182 38.1624 85.2061 37.7637 85.2061ZM41.355 83.7803L41.2036 84.4932C41.1613 84.4883 41.123 84.485 41.0889 84.4834C41.0547 84.4818 41.027 84.481 41.0059 84.481C40.7259 84.481 40.5184 84.5721 40.3833 84.7544C40.3084 84.8569 40.2482 85.0148 40.2026 85.228L39.9341 86.5H39.2334L39.7974 83.8389H40.4614L40.3638 84.3027C40.5086 84.1253 40.6274 84.0041 40.7202 83.939C40.8748 83.8299 41.0563 83.7754 41.2646 83.7754C41.2777 83.7754 41.2882 83.7762 41.2964 83.7778C41.3062 83.7778 41.3257 83.7786 41.355 83.7803ZM43.2959 85.1743C43.3529 84.9074 43.3415 84.7023 43.2617 84.5591C43.1836 84.4142 43.0428 84.3418 42.8394 84.3418C42.6359 84.3418 42.4642 84.4142 42.3242 84.5591C42.1842 84.7023 42.0858 84.9074 42.0288 85.1743C41.9718 85.4412 41.9824 85.6471 42.0605 85.792C42.1403 85.9368 42.2819 86.0093 42.4854 86.0093C42.6888 86.0093 42.8605 85.9368 43.0005 85.792C43.1405 85.6471 43.2389 85.4412 43.2959 85.1743ZM42.3633 86.5928C41.9059 86.5928 41.5942 86.4544 41.4282 86.1777C41.2638 85.8994 41.2231 85.5649 41.3062 85.1743C41.3875 84.7902 41.5706 84.4574 41.8555 84.1758C42.1403 83.8942 42.5114 83.7534 42.9688 83.7534C43.4261 83.7534 43.737 83.8942 43.9014 84.1758C44.0658 84.4574 44.1073 84.7902 44.0259 85.1743C43.9429 85.5649 43.759 85.8994 43.4741 86.1777C43.1909 86.4544 42.8206 86.5928 42.3633 86.5928ZM45.6055 83.5215H44.9097L45.0464 82.8794H45.7422L45.6055 83.5215ZM43.8354 87.0103C43.8745 87.0135 43.9014 87.0151 43.916 87.0151C43.9307 87.0168 43.9445 87.0176 43.9575 87.0176C44.0259 87.0176 44.0812 87.0005 44.1235 86.9663C44.1659 86.9338 44.1976 86.8695 44.2188 86.7734L44.8389 83.8511H45.5347L44.9121 86.7856C44.8551 87.0542 44.7599 87.2528 44.6265 87.3813C44.493 87.5099 44.2716 87.5742 43.9624 87.5742C43.9412 87.5742 43.9103 87.5734 43.8696 87.5718C43.8289 87.5701 43.7785 87.5685 43.7183 87.5669L43.8354 87.0103ZM46.4844 84.9033H47.5659C47.5936 84.7194 47.5667 84.5802 47.4854 84.4858C47.4056 84.3898 47.2917 84.3418 47.1436 84.3418C46.9824 84.3418 46.8465 84.3923 46.7358 84.4932C46.6268 84.5941 46.543 84.7308 46.4844 84.9033ZM48.1934 84.2856C48.265 84.4435 48.2935 84.6266 48.2788 84.835C48.2723 84.957 48.243 85.1328 48.1909 85.3623H46.3696C46.3224 85.6292 46.3664 85.8164 46.5015 85.9238C46.5828 85.9906 46.6911 86.0239 46.8262 86.0239C46.9694 86.0239 47.0947 85.9832 47.2021 85.9019C47.2591 85.8579 47.3153 85.7969 47.3706 85.7188H48.0811C48.029 85.8766 47.9126 86.0369 47.7319 86.1997C47.4487 86.4585 47.1021 86.5879 46.6919 86.5879C46.3534 86.5879 46.0775 86.4788 45.8643 86.2607C45.6527 86.0426 45.599 85.6878 45.7031 85.1963C45.8008 84.7357 45.992 84.3825 46.2769 84.1367C46.5633 83.891 46.8929 83.7681 47.2656 83.7681C47.487 83.7681 47.6774 83.8096 47.8369 83.8926C47.998 83.9756 48.1169 84.1066 48.1934 84.2856ZM50.3711 84.7935C50.3792 84.6942 50.3646 84.6047 50.3271 84.5249C50.2718 84.4175 50.1619 84.3638 49.9976 84.3638C49.7632 84.3638 49.5785 84.4801 49.4434 84.7129C49.3717 84.8366 49.314 85.001 49.27 85.2061C49.2293 85.4014 49.2188 85.5584 49.2383 85.6772C49.2741 85.8986 49.4067 86.0093 49.6362 86.0093C49.799 86.0093 49.9235 85.9653 50.0098 85.8774C50.0977 85.7896 50.1636 85.6756 50.2075 85.5356H50.918C50.8577 85.7472 50.7389 85.9474 50.5615 86.1362C50.2783 86.4406 49.9227 86.5928 49.4946 86.5928C49.0666 86.5928 48.7785 86.4658 48.6304 86.2119C48.4839 85.958 48.4538 85.6284 48.54 85.2231C48.6361 84.7658 48.8224 84.4102 49.0991 84.1562C49.3774 83.9023 49.7127 83.7754 50.105 83.7754C50.4386 83.7754 50.6958 83.8503 50.8765 84C51.0571 84.1497 51.1263 84.4142 51.084 84.7935H50.3711ZM51.3843 84.3589L51.4893 83.8633H51.8604L52.019 83.1211H52.7075L52.5488 83.8633H52.981L52.876 84.3589H52.4438L52.1436 85.7651C52.1208 85.8742 52.12 85.9425 52.1411 85.9702C52.1639 85.9963 52.2461 86.0093 52.3877 86.0093C52.4089 86.0093 52.4308 86.0093 52.4536 86.0093C52.478 86.0076 52.5024 86.006 52.5269 86.0044L52.4146 86.5244L52.0825 86.5366C51.7521 86.548 51.5397 86.491 51.4453 86.3657C51.3851 86.286 51.3721 86.1631 51.4062 85.9971L51.7554 84.3589H51.3843Z" fill="black"/>
</g>
<defs>
<clipPath id="clip0_108_6">
<rect width="66" height="82.5" fill="white" transform="translate(0 0.5)"/>
</clipPath>
</defs>
</svg>
