<svg width="110" height="136" viewBox="0 0 110 136" fill="none" xmlns="http://www.w3.org/2000/svg">
<path fill-rule="evenodd" clip-rule="evenodd" d="M28.9142 14.4336H81.0902C81.8246 14.4336 82.4222 15.0352 82.4222 15.7656V18.9336H27.5822V15.7656C27.5822 15.0351 28.1799 14.4336 28.9142 14.4336ZM96.2582 45.0976H84.8322V51.9609C84.8322 55.1015 87.4064 57.6718 90.5431 57.6718C93.6837 57.6718 96.254 55.0976 96.254 51.9609L96.2582 45.0976ZM82.0432 45.0976H70.6172V51.9609C70.6172 55.1015 73.1914 57.6718 76.3281 57.6718C79.4687 57.6718 82.039 55.0976 82.039 51.9609V45.0976H82.0432ZM67.8242 45.0976H56.3982V51.9609C56.3982 55.1015 58.9724 57.6718 62.1091 57.6718C65.2497 57.6718 67.82 55.0976 67.82 51.9609L67.8242 45.0976ZM53.6052 45.0976H42.1792V51.9609C42.1792 55.1015 44.7534 57.6718 47.8901 57.6718C51.0307 57.6718 53.601 55.0976 53.601 51.9609L53.6052 45.0976ZM39.3902 45.0976H27.9642V51.9609C27.9642 55.1015 30.5384 57.6718 33.6751 57.6718C36.8157 57.6718 39.386 55.0976 39.386 51.9609L39.3902 45.0976ZM25.1712 45.0976H13.7412L13.749 51.9609C13.749 55.1015 16.3232 57.6718 19.4599 57.6718C22.6005 57.6718 25.1708 55.0976 25.1708 51.9609L25.1712 45.0976ZM14.6752 42.3046H25.5852L32.925 21.7266H26.6555C26.0266 21.7266 25.5305 22.0196 25.2375 22.5703L14.6752 42.3046ZM28.5462 42.3046L35.886 21.7266H43.2844L39.6125 42.3046H28.5462ZM42.4482 42.3046H53.6042V21.7266H46.1198L42.4482 42.3046ZM56.3972 42.3046H67.5532L63.8813 21.7266H56.3969L56.3972 42.3046ZM70.3852 42.3046L66.7133 21.7266H74.1117L81.4515 42.3046H70.3852ZM84.4202 42.3046H95.3302L84.7682 22.5706C84.4752 22.0237 83.9752 21.7268 83.3502 21.7268H77.0807L84.4202 42.3046ZM89.8225 60.4336V103.305C89.8225 105.098 88.3537 106.566 86.5608 106.566H23.4398C21.6468 106.566 20.1781 105.097 20.1781 103.305V60.4336C22.8187 60.2109 25.1547 58.7617 26.5648 56.6172C29.9359 61.7383 37.4088 61.7383 40.7838 56.6172C44.1549 61.7383 51.6278 61.7383 55.0028 56.6172C58.3739 61.7383 65.8468 61.7383 69.2218 56.6172C72.5929 61.7383 80.0698 61.7383 83.4408 56.6172C84.851 58.7617 87.183 60.211 89.8236 60.4336H89.8225ZM55.0025 69.3477C51.4009 69.3477 48.483 72.2305 48.483 75.7891C48.483 79.3438 51.401 82.2266 55.0025 82.2266C58.6041 82.2266 61.522 79.3438 61.522 75.7891C61.522 72.2305 58.6001 69.3477 55.0025 69.3477ZM77.1935 94.7777H32.8105C32.4004 94.7777 32.0644 95.1136 32.0644 95.5238V99.2347C32.0644 99.6448 32.4004 99.9808 32.8105 99.9808H77.1935C77.6037 99.9808 77.9396 99.6448 77.9396 99.2347V95.5238C77.9357 95.1136 77.6037 94.7777 77.1935 94.7777ZM65.7675 89.4379H77.1935C77.6037 89.4379 77.9396 89.102 77.9396 88.6918V64.3398C77.9396 63.9296 77.6037 63.5937 77.1935 63.5937H32.8105C32.4004 63.5937 32.0644 63.9297 32.0644 64.3398V88.6918C32.0644 89.102 32.4004 89.4379 32.8105 89.4379H44.2365C44.5685 86.5238 46.2756 84.0121 48.6857 82.5707C52.2521 85.8363 57.7521 85.8363 61.3187 82.5707C63.7289 84.0082 65.4355 86.5199 65.7675 89.4379Z" fill="white"/>
</svg>
