<svg width="110" height="136" viewBox="0 0 110 136" fill="none" xmlns="http://www.w3.org/2000/svg">
<path fill-rule="evenodd" clip-rule="evenodd" d="M64.6411 94.523V100.132C64.6333 103.511 61.895 106.25 58.5161 106.261H51.3013C47.9224 106.25 45.1841 103.511 45.1763 100.132V94.523H64.6411ZM57.3794 25.117V17.117C57.3794 15.8045 56.313 14.7381 55.0005 14.7381C53.688 14.7381 52.6216 15.8045 52.6216 17.117V25.117C52.6216 26.4295 53.688 27.492 55.0005 27.492C56.313 27.492 57.3794 26.4295 57.3794 25.117ZM23.7504 41.789L16.8207 37.789C16.2777 37.4452 15.6176 37.3398 14.9926 37.4921C14.3637 37.6484 13.8285 38.0507 13.5082 38.6093C13.1879 39.1679 13.1097 39.832 13.2894 40.4531C13.4691 41.0703 13.891 41.5898 14.4652 41.8867L21.3949 45.8867H21.391C22.516 46.4727 23.9027 46.0664 24.5355 44.9688C25.1683 43.8672 24.8207 42.4648 23.7504 41.789ZM38.3284 28.953L34.3284 22.0233V22.0272C34.0315 21.4569 33.512 21.0311 32.8948 20.8514C32.2737 20.6717 31.6096 20.7498 31.051 21.0702C30.4924 21.3944 30.09 21.9295 29.9338 22.5546C29.7775 23.1796 29.8869 23.8398 30.2307 24.3866L34.2307 31.3163V31.3123C34.5275 31.8866 35.0471 32.3123 35.6643 32.492C36.2853 32.6756 36.9495 32.5936 37.5081 32.2733C38.0706 31.953 38.4729 31.4139 38.6292 30.7889C38.7815 30.1639 38.676 29.4998 38.3284 28.953ZM88.6094 45.894L95.5391 41.894H95.5352C96.1094 41.5932 96.5313 41.0737 96.711 40.4565C96.8907 39.8393 96.8125 39.1713 96.4922 38.6167C96.1719 38.0581 95.6368 37.6519 95.0078 37.4995C94.3828 37.3432 93.7226 37.4487 93.1797 37.7925L86.25 41.7925C85.7071 42.105 85.3086 42.6206 85.1445 43.2261C84.9805 43.8315 85.0625 44.48 85.375 45.023C86.0273 46.1558 87.4727 46.5503 88.6094 45.898L88.6094 45.894ZM79.7735 24.386C80.1172 23.8391 80.2266 23.179 80.0703 22.554C79.9141 21.929 79.5118 21.3938 78.9531 21.0696C78.3946 20.7493 77.7304 20.6712 77.1093 20.8508C76.4922 21.0305 75.9726 21.4563 75.6757 22.0266L71.6757 28.9563V28.9524C71.3281 29.4993 71.2226 30.1633 71.375 30.7883C71.5312 31.4133 71.9336 31.9524 72.4961 32.2727C73.0547 32.5931 73.7188 32.6751 74.3399 32.4915C74.961 32.3118 75.4766 31.886 75.7735 31.3118L79.7735 24.386ZM78.3985 59.874C78.4063 66.3271 75.7423 72.495 71.0352 76.913C68.5508 79.1786 66.9454 82.2528 66.5118 85.5888H43.4918C43.0543 82.2529 41.4527 79.1786 38.9684 76.913C33.2262 71.5146 30.5895 63.589 31.9528 55.831C33.3122 48.0693 38.484 41.515 45.7188 38.39C52.9493 35.265 61.2698 35.9877 67.8558 40.3158C74.4378 44.6439 78.4025 51.995 78.3985 59.874ZM65.7075 52.3115C65.2622 51.8662 64.6567 51.6162 64.0278 51.6162C63.395 51.6162 62.7895 51.8662 62.3442 52.3115L51.9302 62.7255L47.6568 58.4521C47.2115 58.0029 46.606 57.749 45.9693 57.7451C45.3365 57.7451 44.731 57.9951 44.2818 58.4443C43.8326 58.8896 43.5826 59.499 43.5865 60.1318C43.5865 60.7646 43.8443 61.3701 44.2935 61.8154L50.2466 67.7685C51.1763 68.6982 52.6802 68.6982 53.6099 67.7685L65.7119 55.6665V55.6704C66.1533 55.2251 66.4033 54.6196 66.4033 53.9907C66.4033 53.3579 66.1528 52.7568 65.7075 52.3115Z" fill="white"/>
</svg>
