<svg width="1600" height="1600" viewBox="0 0 1600 1600" fill="none" xmlns="http://www.w3.org/2000/svg">
<path d="M199.12 675.84L198.865 675.809C198.865 675.809 288.917 769.939 288.917 895.689C288.917 1000.9 280.172 1256.7 277.313 1337.5H401.662L419.865 1164.25C420.615 1157.12 426.63 1151.7 433.802 1151.7C441.365 1151.7 447.562 1157.7 447.807 1165.26L453.422 1337.5H571.031C570.859 1241.71 565.052 1046.19 560.625 922.072C560.818 905.567 563.739 889.119 570.729 874.166C593.12 826.259 589.365 775.854 583.448 743.614C578.979 719.254 583.339 694.155 596.198 672.994L615.453 641.296L615.317 641.421C680.609 558.619 693.015 444.488 694.453 382.128C695.026 357.295 674.844 336.945 650.005 336.945C626.151 336.945 606.494 355.7 605.604 379.539C602.437 464.284 574.26 645.939 390.87 645.939C207.481 645.939 179.297 464.285 176.137 379.539C175.247 355.7 155.59 336.945 131.736 336.945C106.897 336.945 86.7145 357.295 87.2878 382.128C88.9389 453.732 105.1 593.515 199.121 675.821L199.12 675.84Z" fill="white"/>
<path d="M280.427 423.24C269.119 442.037 262.5 463.969 262.5 487.5C262.5 556.536 318.464 612.5 387.5 612.5C456.536 612.5 512.5 556.536 512.5 487.5C512.5 418.464 456.536 362.5 387.5 362.5C374.417 362.5 361.807 364.531 349.948 368.26C349.677 337.427 324.645 312.5 293.751 312.5C262.683 312.5 237.5 337.683 237.5 368.751C237.5 395.204 255.828 417.235 280.427 423.24ZM387.5 587.507C343.855 587.507 306.745 559.351 293.131 520.283C379.245 517.736 409.333 467.455 419.579 427.72C433.516 435.027 452.683 441.871 477.412 444.027C483.808 457.193 487.501 471.907 487.501 487.505C487.501 542.645 442.641 587.505 387.501 587.505L387.5 587.507Z" fill="white"/>
<path d="M838.533 851.52C838.627 851.52 838.71 851.504 838.804 851.504C861.668 880.963 897.325 899.994 937.501 899.994C1006.54 899.994 1062.5 844.03 1062.5 774.994C1062.5 705.958 1006.54 649.994 937.501 649.994C906.595 649.994 878.361 661.27 856.537 679.854L856.376 679.895L855.079 681.182L844.657 691.505L767.261 768.182C759.553 776.146 757.995 788.171 763.417 797.838C775.193 818.807 799.767 851.521 838.532 851.521L838.533 851.52ZM937.502 874.993C910.248 874.993 885.529 864.004 867.472 846.259C903.013 832.285 918.92 793.264 936.31 765.467C956.436 733.305 994.622 718.399 1015.36 712.393C1029.19 729.544 1037.5 751.305 1037.5 774.992C1037.5 830.132 992.642 874.993 937.502 874.993Z" fill="white"/>
<path d="M1198.68 715.093C1173.02 704.989 1144.02 717.474 1133.73 743.052L1099.07 829.183C1072.74 894.625 1009.28 937.495 938.751 937.495H886.563C841.891 937.495 800.609 961.333 778.292 1000.03L636.212 1246.31C624.035 1267.42 631.488 1294.41 652.769 1306.28C672.029 1317.02 696.28 1311.72 709.3 1293.92L835.289 1121.64L801.987 1337.5H812.502C929.836 1337.5 1037.04 1293.5 1118.66 1221.24C1120.37 1127.15 1104.44 1071.49 1104.44 1071.49L1226.54 781.25C1237.47 755.286 1224.89 725.422 1198.68 715.099L1198.68 715.093Z" fill="white"/>
<path d="M1520.53 476.453L1437.15 307.28C1433.58 165.013 1324.86 78.4933 1320.16 74.8266C1315.64 71.311 1309.32 71.311 1304.8 74.8266C1300.23 78.3892 1197.14 160.483 1188.35 296.04L1099.42 476.453C1091.23 493.063 1103.32 512.5 1121.85 512.5H1187.48V537.5C1187.48 544.401 1193.07 550 1199.98 550H1259.91L1247.67 583.172C1244.66 591.333 1250.69 600 1259.4 600H1299.98V875C1299.98 1028.84 1228.65 1165.95 1117.34 1255.29C1033.84 1322.31 927.875 1362.5 812.475 1362.5H124.981C111.175 1362.5 99.9814 1373.69 99.9814 1387.5V1488.5C99.9814 1502.38 111.257 1513.5 124.955 1513.5C125.424 1513.5 125.897 1513.49 126.371 1513.46L809.985 1475.37C1102.53 1459.12 1330.13 1214.91 1325.77 921.94L1324.98 869.2V600H1365.57C1374.27 600 1380.31 591.333 1377.3 583.172L1365.06 550H1424.99C1431.9 550 1437.49 544.401 1437.49 537.5V512.5H1498.12C1516.64 512.5 1528.73 493.062 1520.54 476.448L1520.53 476.453ZM1324.99 525.005V425.005C1324.99 418.104 1319.4 412.505 1312.49 412.505C1305.58 412.505 1299.99 418.104 1299.99 425.005V525.005H1212.49V314.299C1212.49 294.627 1214.89 276.091 1218.81 258.648C1234.32 189.659 1275.11 138.965 1299.99 113.368V199.999C1299.99 206.9 1305.58 212.499 1312.49 212.499C1319.4 212.499 1324.99 206.9 1324.99 199.999V113.301C1347.03 135.916 1381.63 178.176 1400.02 235.604C1407.64 259.364 1412.49 285.687 1412.49 314.297V525.004L1324.99 525.005Z" fill="white"/>
<path d="M1312.51 250C1277.99 250 1250.01 277.984 1250.01 312.5C1250.01 347.016 1277.99 375 1312.51 375C1347.03 375 1375.01 347.016 1375.01 312.5C1375.01 277.984 1347.03 250 1312.51 250ZM1312.51 350C1291.83 350 1275.01 333.177 1275.01 312.5C1275.01 291.823 1291.83 275 1312.51 275C1333.18 275 1350.01 291.823 1350.01 312.5C1350.01 333.177 1333.18 350 1312.51 350Z" fill="white"/>
</svg>
